<?xml version="1.0" encoding="UTF-8"?><svg xmlns="http://www.w3.org/2000/svg" xmlns:xlink="http://www.w3.org/1999/xlink" fill-opacity="1" color-rendering="auto" color-interpolation="auto" text-rendering="auto" stroke="black" stroke-linecap="square" width="415" stroke-miterlimit="10" shape-rendering="auto" stroke-opacity="1" fill="black" stroke-dasharray="none" font-weight="normal" stroke-width="1" height="304" font-family="'Dialog'" font-style="normal" stroke-linejoin="miter" font-size="12px" stroke-dashoffset="0" image-rendering="auto">
  <!--Generated by ySVG 2.6-->
  <defs id="genericDefs"/>
  <g>
    <defs id="defs1">
      <linearGradient x1="675.627" gradientUnits="userSpaceOnUse" x2="755.627" y1="778.9167" y2="818.9167" id="linearGradient1" spreadMethod="reflect">
        <stop stop-opacity="1" stop-color="rgb(232,238,247)" offset="0%"/>
        <stop stop-opacity="1" stop-color="rgb(183,201,227)" offset="100%"/>
      </linearGradient>
      <linearGradient x1="675.627" gradientUnits="userSpaceOnUse" x2="755.627" y1="648.6667" y2="688.6667" id="linearGradient2" spreadMethod="reflect">
        <stop stop-opacity="1" stop-color="rgb(232,238,247)" offset="0%"/>
        <stop stop-opacity="1" stop-color="rgb(183,201,227)" offset="100%"/>
      </linearGradient>
      <linearGradient x1="832.9448" gradientUnits="userSpaceOnUse" x2="912.9448" y1="648.6667" y2="688.6667" id="linearGradient3" spreadMethod="reflect">
        <stop stop-opacity="1" stop-color="rgb(232,238,247)" offset="0%"/>
        <stop stop-opacity="1" stop-color="rgb(183,201,227)" offset="100%"/>
      </linearGradient>
      <linearGradient x1="832.9448" gradientUnits="userSpaceOnUse" x2="912.9448" y1="725.6667" y2="765.6667" id="linearGradient4" spreadMethod="reflect">
        <stop stop-opacity="1" stop-color="rgb(232,238,247)" offset="0%"/>
        <stop stop-opacity="1" stop-color="rgb(183,201,227)" offset="100%"/>
      </linearGradient>
      <linearGradient x1="972.9448" gradientUnits="userSpaceOnUse" x2="1052.9448" y1="725.6667" y2="765.6667" id="linearGradient5" spreadMethod="reflect">
        <stop stop-opacity="1" stop-color="rgb(232,238,247)" offset="0%"/>
        <stop stop-opacity="1" stop-color="rgb(183,201,227)" offset="100%"/>
      </linearGradient>
      <linearGradient x1="675.627" gradientUnits="userSpaceOnUse" x2="755.627" y1="545.1667" y2="585.1667" id="linearGradient6" spreadMethod="reflect">
        <stop stop-opacity="1" stop-color="rgb(232,238,247)" offset="0%"/>
        <stop stop-opacity="1" stop-color="rgb(183,201,227)" offset="100%"/>
      </linearGradient>
      <clipPath clipPathUnits="userSpaceOnUse" id="clipPath1">
        <path d="M0 0 L415 0 L415 304 L0 304 L0 0 Z"/>
      </clipPath>
      <clipPath clipPathUnits="userSpaceOnUse" id="clipPath2">
        <path d="M653 530 L1068 530 L1068 834 L653 834 L653 530 Z"/>
      </clipPath>
    </defs>
    <g fill="white" text-rendering="geometricPrecision" shape-rendering="geometricPrecision" transform="translate(-653,-530)" stroke="white">
      <rect x="653" width="415" height="304" y="530" clip-path="url(#clipPath2)" stroke="none"/>
    </g>
    <g fill="url(#linearGradient1)" text-rendering="geometricPrecision" shape-rendering="geometricPrecision" transform="matrix(1,0,0,1,-653,-530)" stroke="url(#linearGradient1)">
      <rect x="675.6269" y="778.9167" clip-path="url(#clipPath2)" width="80" rx="20" ry="20" height="40" stroke="none"/>
    </g>
    <g text-rendering="geometricPrecision" stroke-miterlimit="1.45" shape-rendering="geometricPrecision" transform="matrix(1,0,0,1,-653,-530)" stroke-linecap="butt">
      <rect x="675.6269" y="778.9167" clip-path="url(#clipPath2)" fill="none" width="80" rx="20" ry="20" height="40"/>
      <text x="708.7929" xml:space="preserve" y="803.5727" clip-path="url(#clipPath2)" font-family="sans-serif" stroke="none">ok</text>
    </g>
    <g fill="url(#linearGradient2)" text-rendering="geometricPrecision" shape-rendering="geometricPrecision" transform="matrix(1,0,0,1,-653,-530)" stroke="url(#linearGradient2)">
      <path d="M715.627 648.6667 L755.627 668.6667 L715.627 688.6667 L675.627 668.6667 Z" stroke="none" clip-path="url(#clipPath2)"/>
    </g>
    <g text-rendering="geometricPrecision" stroke-miterlimit="1.45" shape-rendering="geometricPrecision" transform="matrix(1,0,0,1,-653,-530)" stroke-linecap="butt">
      <path fill="none" d="M715.627 648.6667 L755.627 668.6667 L715.627 688.6667 L675.627 668.6667 Z" clip-path="url(#clipPath2)"/>
      <text x="700.3208" xml:space="preserve" y="673.3227" clip-path="url(#clipPath2)" font-family="sans-serif" stroke="none">alias?</text>
    </g>
    <g fill="url(#linearGradient3)" text-rendering="geometricPrecision" shape-rendering="geometricPrecision" transform="matrix(1,0,0,1,-653,-530)" stroke="url(#linearGradient3)">
      <rect x="832.9448" width="80" height="40" y="648.6667" clip-path="url(#clipPath2)" stroke="none"/>
    </g>
    <g text-rendering="geometricPrecision" stroke-miterlimit="1.45" shape-rendering="geometricPrecision" transform="matrix(1,0,0,1,-653,-530)" stroke-linecap="butt">
      <rect fill="none" x="832.9448" width="80" height="40" y="648.6667" clip-path="url(#clipPath2)"/>
      <path fill="none" d="M842.9448 648.6667 L842.9448 688.6667 M902.9448 648.6667 L902.9448 688.6667 M842.9448 648.6667 Z" clip-path="url(#clipPath2)"/>
      <text x="853.5347" xml:space="preserve" y="673.3227" clip-path="url(#clipPath2)" font-family="sans-serif" stroke="none">lookup</text>
    </g>
    <g fill="url(#linearGradient4)" text-rendering="geometricPrecision" shape-rendering="geometricPrecision" transform="matrix(1,0,0,1,-653,-530)" stroke="url(#linearGradient4)">
      <path d="M872.9448 725.6667 L912.9448 745.6667 L872.9448 765.6667 L832.9448 745.6667 Z" stroke="none" clip-path="url(#clipPath2)"/>
    </g>
    <g text-rendering="geometricPrecision" stroke-miterlimit="1.45" shape-rendering="geometricPrecision" transform="matrix(1,0,0,1,-653,-530)" stroke-linecap="butt">
      <path fill="none" d="M872.9448 725.6667 L912.9448 745.6667 L872.9448 765.6667 L832.9448 745.6667 Z" clip-path="url(#clipPath2)"/>
    </g>
    <g fill="url(#linearGradient5)" text-rendering="geometricPrecision" shape-rendering="geometricPrecision" transform="matrix(1,0,0,1,-653,-530)" stroke="url(#linearGradient5)">
      <rect x="972.9448" y="725.6667" clip-path="url(#clipPath2)" width="80" rx="20" ry="20" height="40" stroke="none"/>
    </g>
    <g text-rendering="geometricPrecision" stroke-miterlimit="1.45" shape-rendering="geometricPrecision" transform="matrix(1,0,0,1,-653,-530)" stroke-linecap="butt">
      <rect x="972.9448" y="725.6667" clip-path="url(#clipPath2)" fill="none" width="80" rx="20" ry="20" height="40"/>
      <text x="985.0806" xml:space="preserve" y="750.3227" clip-path="url(#clipPath2)" font-family="sans-serif" stroke="none">not found</text>
    </g>
    <g fill="url(#linearGradient6)" text-rendering="geometricPrecision" shape-rendering="geometricPrecision" transform="matrix(1,0,0,1,-653,-530)" stroke="url(#linearGradient6)">
      <ellipse rx="40" ry="20" clip-path="url(#clipPath2)" cx="715.6269" cy="565.1667" stroke="none"/>
    </g>
    <g text-rendering="geometricPrecision" stroke-miterlimit="1.45" shape-rendering="geometricPrecision" transform="matrix(1,0,0,1,-653,-530)" stroke-linecap="butt">
      <ellipse rx="40" fill="none" ry="20" clip-path="url(#clipPath2)" cx="715.6269" cy="565.1667"/>
      <text x="698.4908" xml:space="preserve" y="561.6506" clip-path="url(#clipPath2)" font-family="sans-serif" stroke="none">follow</text>
      <text x="702.9249" xml:space="preserve" y="577.9948" clip-path="url(#clipPath2)" font-family="sans-serif" stroke="none">alias</text>
    </g>
    <g text-rendering="geometricPrecision" stroke-miterlimit="1.45" shape-rendering="geometricPrecision" transform="matrix(1,0,0,1,-653,-530)" stroke-linecap="butt">
      <path fill="none" d="M715.627 688.6685 L715.627 770.918" clip-path="url(#clipPath2)"/>
    </g>
    <g text-rendering="geometricPrecision" stroke-miterlimit="1.45" shape-rendering="geometricPrecision" transform="matrix(1,0,0,1,-653,-530)" stroke-linecap="butt">
      <path d="M715.627 778.918 L720.627 766.918 L715.627 769.918 L710.627 766.918 Z" stroke="none" clip-path="url(#clipPath2)"/>
      <text x="670.8026" xml:space="preserve" y="738.4477" clip-path="url(#clipPath2)" font-family="sans-serif" stroke="none">symbol</text>
      <path fill="none" d="M755.6093 668.6667 L824.9258 668.6667" clip-path="url(#clipPath2)"/>
      <path d="M832.9258 668.6667 L820.9258 663.6667 L823.9258 668.6667 L820.9258 673.6667 Z" clip-path="url(#clipPath2)" stroke="none"/>
      <text x="763.9557" xml:space="preserve" y="661.1506" clip-path="url(#clipPath2)" font-family="sans-serif" stroke="none">alias name</text>
      <path fill="none" d="M872.9448 688.631 L872.9448 717.6429" clip-path="url(#clipPath2)"/>
      <path d="M872.9448 725.6429 L877.9448 713.6429 L872.9448 716.6429 L867.9448 713.6429 Z" clip-path="url(#clipPath2)" stroke="none"/>
      <path fill="none" d="M872.9448 765.6614 L872.9448 788.9167 L872.3198 793.2917 L870.4448 796.4167 L867.3198 798.2917 L862.9448 798.9167 L763.6093 798.9167" clip-path="url(#clipPath2)"/>
      <path d="M755.6093 798.9167 L767.6093 803.9167 L764.6093 798.9167 L767.6093 793.9167 Z" clip-path="url(#clipPath2)" stroke="none"/>
      <text x="784.1741" xml:space="preserve" y="791.4006" clip-path="url(#clipPath2)" font-family="sans-serif" stroke="none">alias symbol</text>
      <path fill="none" d="M912.9692 745.6667 L964.9644 745.6667" clip-path="url(#clipPath2)"/>
      <path d="M972.9644 745.6667 L960.9644 740.6667 L963.9644 745.6667 L960.9644 750.6667 Z" clip-path="url(#clipPath2)" stroke="none"/>
      <text x="928.4967" xml:space="preserve" y="738.1506" clip-path="url(#clipPath2)" font-family="sans-serif" stroke="none">error</text>
      <path fill="none" d="M715.627 585.1541 L715.627 640.6448" clip-path="url(#clipPath2)"/>
      <path d="M715.627 648.6448 L720.627 636.6448 L715.627 639.6448 L710.627 636.6448 Z" clip-path="url(#clipPath2)" stroke="none"/>
      <text x="679.4907" xml:space="preserve" y="621.5727" clip-path="url(#clipPath2)" font-family="sans-serif" stroke="none">name</text>
    </g>
  </g>
</svg>
