<?xml version="1.0" encoding="UTF-8"?><svg xmlns="http://www.w3.org/2000/svg" xmlns:xlink="http://www.w3.org/1999/xlink" fill-opacity="1" color-rendering="auto" color-interpolation="auto" text-rendering="auto" stroke="black" stroke-linecap="square" width="544" stroke-miterlimit="10" shape-rendering="auto" stroke-opacity="1" fill="black" stroke-dasharray="none" font-weight="normal" stroke-width="1" height="868" font-family="'Dialog'" font-style="normal" stroke-linejoin="miter" font-size="12px" stroke-dashoffset="0" image-rendering="auto">
  <!--Generated by ySVG 2.6-->
  <defs id="genericDefs"/>
  <g>
    <defs id="defs1">
      <linearGradient x1="862.0366" gradientUnits="userSpaceOnUse" x2="942.0366" y1="594.5624" y2="634.5624" id="linearGradient1" spreadMethod="reflect">
        <stop stop-opacity="1" stop-color="rgb(232,238,247)" offset="0%"/>
        <stop stop-opacity="1" stop-color="rgb(183,201,227)" offset="100%"/>
      </linearGradient>
      <linearGradient x1="1144.5101" gradientUnits="userSpaceOnUse" x2="1224.5101" y1="705.5" y2="745.5" id="linearGradient2" spreadMethod="reflect">
        <stop stop-opacity="1" stop-color="rgb(232,238,247)" offset="0%"/>
        <stop stop-opacity="1" stop-color="rgb(183,201,227)" offset="100%"/>
      </linearGradient>
      <linearGradient x1="862.0366" gradientUnits="userSpaceOnUse" x2="942.0366" y1="705.5" y2="745.5" id="linearGradient3" spreadMethod="reflect">
        <stop stop-opacity="1" stop-color="rgb(232,238,247)" offset="0%"/>
        <stop stop-opacity="1" stop-color="rgb(183,201,227)" offset="100%"/>
      </linearGradient>
      <linearGradient x1="862.0366" gradientUnits="userSpaceOnUse" x2="942.0366" y1="783.9334" y2="823.9334" id="linearGradient4" spreadMethod="reflect">
        <stop stop-opacity="1" stop-color="rgb(232,238,247)" offset="0%"/>
        <stop stop-opacity="1" stop-color="rgb(183,201,227)" offset="100%"/>
      </linearGradient>
      <linearGradient x1="1007.8602" gradientUnits="userSpaceOnUse" x2="1087.8602" y1="1391.6097" y2="1431.6097" id="linearGradient5" spreadMethod="reflect">
        <stop stop-opacity="1" stop-color="rgb(232,238,247)" offset="0%"/>
        <stop stop-opacity="1" stop-color="rgb(183,201,227)" offset="100%"/>
      </linearGradient>
      <linearGradient x1="1004.9484" gradientUnits="userSpaceOnUse" x2="1084.9484" y1="783.9334" y2="823.9334" id="linearGradient6" spreadMethod="reflect">
        <stop stop-opacity="1" stop-color="rgb(232,238,247)" offset="0%"/>
        <stop stop-opacity="1" stop-color="rgb(183,201,227)" offset="100%"/>
      </linearGradient>
      <linearGradient x1="1004.9484" gradientUnits="userSpaceOnUse" x2="1084.9484" y1="862.3669" y2="902.3669" id="linearGradient7" spreadMethod="reflect">
        <stop stop-opacity="1" stop-color="rgb(232,238,247)" offset="0%"/>
        <stop stop-opacity="1" stop-color="rgb(183,201,227)" offset="100%"/>
      </linearGradient>
      <linearGradient x1="1004.9484" gradientUnits="userSpaceOnUse" x2="1084.9484" y1="940.8003" y2="980.8003" id="linearGradient8" spreadMethod="reflect">
        <stop stop-opacity="1" stop-color="rgb(232,238,247)" offset="0%"/>
        <stop stop-opacity="1" stop-color="rgb(183,201,227)" offset="100%"/>
      </linearGradient>
      <linearGradient x1="1004.9484" gradientUnits="userSpaceOnUse" x2="1084.9484" y1="1097.6671" y2="1179.8103" id="linearGradient9" spreadMethod="reflect">
        <stop stop-opacity="1" stop-color="rgb(232,238,247)" offset="0%"/>
        <stop stop-opacity="1" stop-color="rgb(183,201,227)" offset="100%"/>
      </linearGradient>
      <linearGradient x1="1152.75" gradientUnits="userSpaceOnUse" x2="1232.75" y1="1118.7388" y2="1158.7388" id="linearGradient10" spreadMethod="reflect">
        <stop stop-opacity="1" stop-color="rgb(232,238,247)" offset="0%"/>
        <stop stop-opacity="1" stop-color="rgb(183,201,227)" offset="100%"/>
      </linearGradient>
      <linearGradient x1="1004.9484" gradientUnits="userSpaceOnUse" x2="1084.9484" y1="1019.2337" y2="1059.2338" id="linearGradient11" spreadMethod="reflect">
        <stop stop-opacity="1" stop-color="rgb(232,238,247)" offset="0%"/>
        <stop stop-opacity="1" stop-color="rgb(183,201,227)" offset="100%"/>
      </linearGradient>
      <linearGradient x1="719.1247" gradientUnits="userSpaceOnUse" x2="799.1247" y1="783.9334" y2="823.9334" id="linearGradient12" spreadMethod="reflect">
        <stop stop-opacity="1" stop-color="rgb(232,238,247)" offset="0%"/>
        <stop stop-opacity="1" stop-color="rgb(183,201,227)" offset="100%"/>
      </linearGradient>
      <linearGradient x1="1004.9484" gradientUnits="userSpaceOnUse" x2="1084.9484" y1="1246.2344" y2="1286.2344" id="linearGradient13" spreadMethod="reflect">
        <stop stop-opacity="1" stop-color="rgb(232,238,247)" offset="0%"/>
        <stop stop-opacity="1" stop-color="rgb(183,201,227)" offset="100%"/>
      </linearGradient>
      <linearGradient x1="1007.8602" gradientUnits="userSpaceOnUse" x2="1087.8602" y1="1316.2344" y2="1356.2344" id="linearGradient14" spreadMethod="reflect">
        <stop stop-opacity="1" stop-color="rgb(232,238,247)" offset="0%"/>
        <stop stop-opacity="1" stop-color="rgb(183,201,227)" offset="100%"/>
      </linearGradient>
      <linearGradient x1="864.9484" gradientUnits="userSpaceOnUse" x2="944.9484" y1="1316.2344" y2="1356.2344" id="linearGradient15" spreadMethod="reflect">
        <stop stop-opacity="1" stop-color="rgb(232,238,247)" offset="0%"/>
        <stop stop-opacity="1" stop-color="rgb(183,201,227)" offset="100%"/>
      </linearGradient>
      <clipPath clipPathUnits="userSpaceOnUse" id="clipPath1">
        <path d="M0 0 L544 0 L544 868 L0 868 L0 0 Z"/>
      </clipPath>
      <clipPath clipPathUnits="userSpaceOnUse" id="clipPath2">
        <path d="M704 579 L1248 579 L1248 1447 L704 1447 L704 579 Z"/>
      </clipPath>
    </defs>
    <g fill="white" text-rendering="geometricPrecision" shape-rendering="geometricPrecision" transform="translate(-704,-579)" stroke="white">
      <rect x="704" width="544" height="868" y="579" clip-path="url(#clipPath2)" stroke="none"/>
    </g>
    <g fill="url(#linearGradient1)" text-rendering="geometricPrecision" shape-rendering="geometricPrecision" transform="matrix(1,0,0,1,-704,-579)" stroke="url(#linearGradient1)">
      <ellipse rx="40" ry="20" clip-path="url(#clipPath2)" cx="902.0365" cy="614.5624" stroke="none"/>
    </g>
    <g text-rendering="geometricPrecision" stroke-miterlimit="1.45" shape-rendering="geometricPrecision" transform="matrix(1,0,0,1,-704,-579)" stroke-linecap="butt">
      <ellipse rx="40" fill="none" ry="20" clip-path="url(#clipPath2)" cx="902.0365" cy="614.5624"/>
      <text x="889.8024" xml:space="preserve" y="611.0463" clip-path="url(#clipPath2)" font-family="sans-serif" stroke="none">load</text>
      <text x="881.6244" xml:space="preserve" y="627.3904" clip-path="url(#clipPath2)" font-family="sans-serif" stroke="none">symbol</text>
    </g>
    <g fill="url(#linearGradient2)" text-rendering="geometricPrecision" shape-rendering="geometricPrecision" transform="matrix(1,0,0,1,-704,-579)" stroke="url(#linearGradient2)">
      <path d="M1154.7101 705.5 L1224.5101 705.5 L1214.3101 745.5 L1144.5101 745.5 Z" stroke="none" clip-path="url(#clipPath2)"/>
    </g>
    <g text-rendering="geometricPrecision" stroke-miterlimit="1.45" shape-rendering="geometricPrecision" transform="matrix(1,0,0,1,-704,-579)" stroke-linecap="butt">
      <path fill="none" d="M1154.7101 705.5 L1224.5101 705.5 L1214.3101 745.5 L1144.5101 745.5 Z" clip-path="url(#clipPath2)"/>
      <text x="1165.5559" xml:space="preserve" y="721.9839" clip-path="url(#clipPath2)" font-family="sans-serif" stroke="none">source</text>
      <text x="1168.292" xml:space="preserve" y="738.3281" clip-path="url(#clipPath2)" font-family="sans-serif" stroke="none">cache</text>
    </g>
    <g fill="url(#linearGradient3)" text-rendering="geometricPrecision" shape-rendering="geometricPrecision" transform="matrix(1,0,0,1,-704,-579)" stroke="url(#linearGradient3)">
      <path d="M862.0366 705.5 L942.0366 705.5 L942.0366 745.5 L862.0366 745.5 Z" stroke="none" clip-path="url(#clipPath2)"/>
    </g>
    <g text-rendering="geometricPrecision" stroke-miterlimit="1.45" shape-rendering="geometricPrecision" transform="matrix(1,0,0,1,-704,-579)" stroke-linecap="butt">
      <path fill="none" d="M862.0366 705.5 L942.0366 705.5 L942.0366 745.5 L862.0366 745.5 Z" clip-path="url(#clipPath2)"/>
      <text x="870.0563" xml:space="preserve" y="730.156" clip-path="url(#clipPath2)" font-family="sans-serif" stroke="none">fetch cache</text>
    </g>
    <g fill="url(#linearGradient4)" text-rendering="geometricPrecision" shape-rendering="geometricPrecision" transform="matrix(1,0,0,1,-704,-579)" stroke="url(#linearGradient4)">
      <path d="M902.0366 783.9334 L942.0366 803.9334 L902.0366 823.9334 L862.0366 803.9334 Z" stroke="none" clip-path="url(#clipPath2)"/>
    </g>
    <g text-rendering="geometricPrecision" stroke-miterlimit="1.45" shape-rendering="geometricPrecision" transform="matrix(1,0,0,1,-704,-579)" stroke-linecap="butt">
      <path fill="none" d="M902.0366 783.9334 L942.0366 803.9334 L902.0366 823.9334 L862.0366 803.9334 Z" clip-path="url(#clipPath2)"/>
    </g>
    <g fill="url(#linearGradient5)" text-rendering="geometricPrecision" shape-rendering="geometricPrecision" transform="matrix(1,0,0,1,-704,-579)" stroke="url(#linearGradient5)">
      <rect x="1007.8602" y="1391.6097" clip-path="url(#clipPath2)" width="80" rx="20" ry="20" height="40" stroke="none"/>
    </g>
    <g text-rendering="geometricPrecision" stroke-miterlimit="1.45" shape-rendering="geometricPrecision" transform="matrix(1,0,0,1,-704,-579)" stroke-linecap="butt">
      <rect x="1007.8602" y="1391.6097" clip-path="url(#clipPath2)" fill="none" width="80" rx="20" ry="20" height="40"/>
      <text x="1041.0262" xml:space="preserve" y="1416.2657" clip-path="url(#clipPath2)" font-family="sans-serif" stroke="none">ok</text>
    </g>
    <g fill="url(#linearGradient6)" text-rendering="geometricPrecision" shape-rendering="geometricPrecision" transform="matrix(1,0,0,1,-704,-579)" stroke="url(#linearGradient6)">
      <path d="M1004.9484 783.9334 L1084.9484 783.9334 L1084.9484 823.9334 L1004.9484 823.9334 Z" stroke="none" clip-path="url(#clipPath2)"/>
    </g>
    <g text-rendering="geometricPrecision" stroke-miterlimit="1.45" shape-rendering="geometricPrecision" transform="matrix(1,0,0,1,-704,-579)" stroke-linecap="butt">
      <path fill="none" d="M1004.9484 783.9334 L1084.9484 783.9334 L1084.9484 823.9334 L1004.9484 823.9334 Z" clip-path="url(#clipPath2)"/>
      <text x="1032.7144" xml:space="preserve" y="800.4174" clip-path="url(#clipPath2)" font-family="sans-serif" stroke="none">load</text>
      <text x="1015.8902" xml:space="preserve" y="816.7615" clip-path="url(#clipPath2)" font-family="sans-serif" stroke="none">source file</text>
    </g>
    <g fill="url(#linearGradient7)" text-rendering="geometricPrecision" shape-rendering="geometricPrecision" transform="matrix(1,0,0,1,-704,-579)" stroke="url(#linearGradient7)">
      <path d="M1004.9484 862.3669 L1084.9484 862.3669 L1084.9484 902.3669 L1004.9484 902.3669 Z" stroke="none" clip-path="url(#clipPath2)"/>
    </g>
    <g text-rendering="geometricPrecision" stroke-miterlimit="1.45" shape-rendering="geometricPrecision" transform="matrix(1,0,0,1,-704,-579)" stroke-linecap="butt">
      <path fill="none" d="M1004.9484 862.3669 L1084.9484 862.3669 L1084.9484 902.3669 L1004.9484 902.3669 Z" clip-path="url(#clipPath2)"/>
      <text x="1028.7302" xml:space="preserve" y="878.8508" clip-path="url(#clipPath2)" font-family="sans-serif" stroke="none">cache</text>
      <text x="1036.4043" xml:space="preserve" y="895.1949" clip-path="url(#clipPath2)" font-family="sans-serif" stroke="none">file</text>
    </g>
    <g fill="url(#linearGradient8)" text-rendering="geometricPrecision" shape-rendering="geometricPrecision" transform="matrix(1,0,0,1,-704,-579)" stroke="url(#linearGradient8)">
      <path d="M1004.9484 940.8003 L1084.9484 940.8003 L1084.9484 980.8003 L1004.9484 980.8003 Z" stroke="none" clip-path="url(#clipPath2)"/>
    </g>
    <g text-rendering="geometricPrecision" stroke-miterlimit="1.45" shape-rendering="geometricPrecision" transform="matrix(1,0,0,1,-704,-579)" stroke-linecap="butt">
      <path fill="none" d="M1004.9484 940.8003 L1084.9484 940.8003 L1084.9484 980.8003 L1004.9484 980.8003 Z" clip-path="url(#clipPath2)"/>
      <text x="1024.6023" xml:space="preserve" y="965.4564" clip-path="url(#clipPath2)" font-family="sans-serif" stroke="none">resolve</text>
    </g>
    <g fill="url(#linearGradient9)" text-rendering="geometricPrecision" shape-rendering="geometricPrecision" transform="matrix(1,0,0,1,-704,-579)" stroke="url(#linearGradient9)">
      <path d="M1004.9484 1097.6671 L1084.9484 1097.6671 L1084.9484 1179.8103 L1004.9484 1179.8103 Z" stroke="none" clip-path="url(#clipPath2)"/>
    </g>
    <g text-rendering="geometricPrecision" stroke-miterlimit="1.45" shape-rendering="geometricPrecision" transform="matrix(1,0,0,1,-704,-579)" stroke-linecap="butt">
      <path fill="none" d="M1004.9484 1097.6671 L1084.9484 1097.6671 L1084.9484 1179.8103 L1004.9484 1179.8103 Z" clip-path="url(#clipPath2)"/>
      <text x="1029.2762" xml:space="preserve" y="1118.8787" clip-path="url(#clipPath2)" font-family="sans-serif" stroke="none">move</text>
      <text x="1020.3122" xml:space="preserve" y="1135.2227" clip-path="url(#clipPath2)" font-family="sans-serif" stroke="none">symbol's</text>
      <text x="1022.0042" xml:space="preserve" y="1151.5668" clip-path="url(#clipPath2)" font-family="sans-serif" stroke="none">children</text>
      <text x="1013.5442" xml:space="preserve" y="1167.9109" clip-path="url(#clipPath2)" font-family="sans-serif" stroke="none">into parent</text>
    </g>
    <g fill="url(#linearGradient10)" text-rendering="geometricPrecision" shape-rendering="geometricPrecision" transform="matrix(1,0,0,1,-704,-579)" stroke="url(#linearGradient10)">
      <path d="M1162.95 1118.7388 L1232.75 1118.7388 L1222.55 1158.7388 L1152.75 1158.7388 Z" stroke="none" clip-path="url(#clipPath2)"/>
    </g>
    <g text-rendering="geometricPrecision" stroke-miterlimit="1.45" shape-rendering="geometricPrecision" transform="matrix(1,0,0,1,-704,-579)" stroke-linecap="butt">
      <path fill="none" d="M1162.95 1118.7388 L1232.75 1118.7388 L1222.55 1158.7388 L1152.75 1158.7388 Z" clip-path="url(#clipPath2)"/>
      <text x="1169.4639" xml:space="preserve" y="1143.3948" clip-path="url(#clipPath2)" font-family="sans-serif" stroke="none">symbols</text>
    </g>
    <g fill="url(#linearGradient11)" text-rendering="geometricPrecision" shape-rendering="geometricPrecision" transform="matrix(1,0,0,1,-704,-579)" stroke="url(#linearGradient11)">
      <path d="M1004.9484 1019.2337 L1084.9484 1019.2337 L1084.9484 1059.2338 L1004.9484 1059.2338 Z" stroke="none" clip-path="url(#clipPath2)"/>
    </g>
    <g text-rendering="geometricPrecision" stroke-miterlimit="1.45" shape-rendering="geometricPrecision" transform="matrix(1,0,0,1,-704,-579)" stroke-linecap="butt">
      <path fill="none" d="M1004.9484 1019.2337 L1084.9484 1019.2337 L1084.9484 1059.2338 L1004.9484 1059.2338 Z" clip-path="url(#clipPath2)"/>
      <text x="1013.5862" xml:space="preserve" y="1043.8898" clip-path="url(#clipPath2)" font-family="sans-serif" stroke="none">find parent</text>
    </g>
    <g fill="url(#linearGradient12)" text-rendering="geometricPrecision" shape-rendering="geometricPrecision" transform="matrix(1,0,0,1,-704,-579)" stroke="url(#linearGradient12)">
      <rect x="719.1247" y="783.9334" clip-path="url(#clipPath2)" width="80" rx="20" ry="20" height="40" stroke="none"/>
    </g>
    <g text-rendering="geometricPrecision" stroke-miterlimit="1.45" shape-rendering="geometricPrecision" transform="matrix(1,0,0,1,-704,-579)" stroke-linecap="butt">
      <rect x="719.1247" y="783.9334" clip-path="url(#clipPath2)" fill="none" width="80" rx="20" ry="20" height="40"/>
      <text x="731.2605" xml:space="preserve" y="808.5895" clip-path="url(#clipPath2)" font-family="sans-serif" stroke="none">not found</text>
    </g>
    <g fill="url(#linearGradient13)" text-rendering="geometricPrecision" shape-rendering="geometricPrecision" transform="matrix(1,0,0,1,-704,-579)" stroke="url(#linearGradient13)">
      <path d="M1004.9484 1246.2344 L1084.9484 1246.2344 L1084.9484 1286.2344 L1004.9484 1286.2344 Z" stroke="none" clip-path="url(#clipPath2)"/>
    </g>
    <g text-rendering="geometricPrecision" stroke-miterlimit="1.45" shape-rendering="geometricPrecision" transform="matrix(1,0,0,1,-704,-579)" stroke-linecap="butt">
      <path fill="none" d="M1004.9484 1246.2344 L1084.9484 1246.2344 L1084.9484 1286.2344 L1004.9484 1286.2344 Z" clip-path="url(#clipPath2)"/>
      <text x="1011.7142" xml:space="preserve" y="1270.8904" clip-path="url(#clipPath2)" font-family="sans-serif" stroke="none">fetch global</text>
    </g>
    <g fill="url(#linearGradient14)" text-rendering="geometricPrecision" shape-rendering="geometricPrecision" transform="matrix(1,0,0,1,-704,-579)" stroke="url(#linearGradient14)">
      <path d="M1047.8602 1316.2344 L1087.8602 1336.2344 L1047.8602 1356.2344 L1007.8602 1336.2344 Z" stroke="none" clip-path="url(#clipPath2)"/>
    </g>
    <g text-rendering="geometricPrecision" stroke-miterlimit="1.45" shape-rendering="geometricPrecision" transform="matrix(1,0,0,1,-704,-579)" stroke-linecap="butt">
      <path fill="none" d="M1047.8602 1316.2344 L1087.8602 1336.2344 L1047.8602 1356.2344 L1007.8602 1336.2344 Z" clip-path="url(#clipPath2)"/>
    </g>
    <g fill="url(#linearGradient15)" text-rendering="geometricPrecision" shape-rendering="geometricPrecision" transform="matrix(1,0,0,1,-704,-579)" stroke="url(#linearGradient15)">
      <rect x="864.9484" y="1316.2344" clip-path="url(#clipPath2)" width="80" rx="20" ry="20" height="40" stroke="none"/>
    </g>
    <g text-rendering="geometricPrecision" stroke-miterlimit="1.45" shape-rendering="geometricPrecision" transform="matrix(1,0,0,1,-704,-579)" stroke-linecap="butt">
      <rect x="864.9484" y="1316.2344" clip-path="url(#clipPath2)" fill="none" width="80" rx="20" ry="20" height="40"/>
      <text x="877.0842" xml:space="preserve" y="1340.8904" clip-path="url(#clipPath2)" font-family="sans-serif" stroke="none">not found</text>
    </g>
    <g text-rendering="geometricPrecision" stroke-miterlimit="1.45" shape-rendering="geometricPrecision" transform="matrix(1,0,0,1,-704,-579)" stroke-linecap="butt">
      <path fill="none" d="M902.0366 634.5777 L902.0366 697.4775" clip-path="url(#clipPath2)"/>
    </g>
    <g text-rendering="geometricPrecision" stroke-miterlimit="1.45" shape-rendering="geometricPrecision" transform="matrix(1,0,0,1,-704,-579)" stroke-linecap="butt">
      <path d="M902.0366 705.4775 L907.0366 693.4775 L902.0366 696.4775 L897.0366 693.4775 Z" stroke="none" clip-path="url(#clipPath2)"/>
      <text x="865.9003" xml:space="preserve" y="674.6872" clip-path="url(#clipPath2)" font-family="sans-serif" stroke="none">name</text>
      <path fill="none" d="M942.0697 725.5 L1141.6179 725.5" clip-path="url(#clipPath2)"/>
      <path d="M1149.6179 725.5 L1137.6179 720.5 L1140.6179 725.5 L1137.6179 730.5 Z" clip-path="url(#clipPath2)" stroke="none"/>
      <text x="1027.2052" xml:space="preserve" y="717.9839" clip-path="url(#clipPath2)" font-family="sans-serif" stroke="none">name</text>
      <path fill="none" d="M902.0366 745.5296 L902.0366 775.9427" clip-path="url(#clipPath2)"/>
      <path d="M902.0366 783.9427 L907.0366 771.9427 L902.0366 774.9427 L897.0366 771.9427 Z" clip-path="url(#clipPath2)" stroke="none"/>
      <path fill="none" d="M942.056 803.9334 L996.9319 803.9334" clip-path="url(#clipPath2)"/>
      <path d="M1004.9319 803.9334 L992.9319 798.9334 L995.9319 803.9334 L992.9319 808.9334 Z" clip-path="url(#clipPath2)" stroke="none"/>
      <text x="945.3403" xml:space="preserve" y="780.0733" clip-path="url(#clipPath2)" font-family="sans-serif" stroke="none">must load</text>
      <text x="956.9623" xml:space="preserve" y="796.4174" clip-path="url(#clipPath2)" font-family="sans-serif" stroke="none">(path)</text>
      <path fill="none" d="M1044.9484 823.9631 L1044.9484 854.3761" clip-path="url(#clipPath2)"/>
      <path d="M1044.9484 862.3761 L1049.9484 850.3761 L1044.9484 853.3761 L1039.9484 850.3761 Z" clip-path="url(#clipPath2)" stroke="none"/>
      <text x="1000.1241" xml:space="preserve" y="847.8062" clip-path="url(#clipPath2)" font-family="sans-serif" stroke="none">symbol</text>
      <path fill="none" d="M1084.9156 882.3669 L1174.5101 882.3669 L1178.8851 881.7419 L1182.0101 879.8669 L1183.8851 876.7419 L1184.5101 872.3669 L1184.5101 753.5296" clip-path="url(#clipPath2)"/>
      <path d="M1184.5101 745.5296 L1179.5101 757.5296 L1184.5101 754.5296 L1189.5101 757.5296 Z" clip-path="url(#clipPath2)" stroke="none"/>
      <text x="1097.0734" xml:space="preserve" y="899.1949" clip-path="url(#clipPath2)" font-family="sans-serif" stroke="none">symbol</text>
      <path fill="none" d="M1044.9484 902.3965 L1044.9484 932.8096" clip-path="url(#clipPath2)"/>
      <path d="M1044.9484 940.8096 L1049.9484 928.8096 L1044.9484 931.8096 L1039.9484 928.8096 Z" clip-path="url(#clipPath2)" stroke="none"/>
      <text x="1000.1241" xml:space="preserve" y="926.2396" clip-path="url(#clipPath2)" font-family="sans-serif" stroke="none">symbol</text>
      <path fill="none" d="M1084.9659 1138.7388 L1149.8307 1138.7388" clip-path="url(#clipPath2)"/>
      <path d="M1157.8307 1138.7388 L1145.8307 1133.7388 L1148.8307 1138.7388 L1145.8307 1143.7388 Z" clip-path="url(#clipPath2)" stroke="none"/>
      <text x="1098.437" xml:space="preserve" y="1155.5668" clip-path="url(#clipPath2)" font-family="sans-serif" stroke="none">symbol</text>
      <path fill="none" d="M1044.9484 980.83 L1044.9484 1011.243" clip-path="url(#clipPath2)"/>
      <path d="M1044.9484 1019.243 L1049.9484 1007.243 L1044.9484 1010.243 L1039.9484 1007.243 Z" clip-path="url(#clipPath2)" stroke="none"/>
      <text x="1000.1241" xml:space="preserve" y="1004.673" clip-path="url(#clipPath2)" font-family="sans-serif" stroke="none">symbol</text>
      <path fill="none" d="M1084.9659 1039.2338 L1182.75 1039.2338 L1187.125 1039.8588 L1190.25 1041.7338 L1192.125 1044.8588 L1192.75 1049.2338 L1192.75 1110.7698" clip-path="url(#clipPath2)"/>
      <path d="M1192.75 1118.7698 L1197.75 1106.7698 L1192.75 1109.7698 L1187.75 1106.7698 Z" clip-path="url(#clipPath2)" stroke="none"/>
      <text x="1104.2255" xml:space="preserve" y="1031.7177" clip-path="url(#clipPath2)" font-family="sans-serif" stroke="none">source name?</text>
      <path fill="none" d="M1044.9484 1059.2028 L1044.9484 1089.6892" clip-path="url(#clipPath2)"/>
      <path d="M1044.9484 1097.6892 L1049.9484 1085.6892 L1044.9484 1088.6892 L1039.9484 1085.6892 Z" clip-path="url(#clipPath2)" stroke="none"/>
      <text x="1003.3641" xml:space="preserve" y="1083.1064" clip-path="url(#clipPath2)" font-family="sans-serif" stroke="none">parent</text>
      <path fill="none" d="M862.017 803.9334 L807.1412 803.9334" clip-path="url(#clipPath2)"/>
      <path d="M799.1412 803.9334 L811.1412 808.9334 L808.1412 803.9334 L811.1412 798.9334 Z" clip-path="url(#clipPath2)" stroke="none"/>
      <text x="816.1325" xml:space="preserve" y="796.4174" clip-path="url(#clipPath2)" font-family="sans-serif" stroke="none">error</text>
      <path fill="none" d="M902.0366 823.939 L902.0366 1256.2344 L902.6616 1260.6094 L904.5366 1263.7344 L907.6616 1265.6094 L912.0366 1266.2344 L996.9289 1266.2344" clip-path="url(#clipPath2)"/>
      <path d="M1004.9289 1266.2344 L992.9289 1261.2344 L995.9289 1266.2344 L992.9289 1271.2344 Z" clip-path="url(#clipPath2)" stroke="none"/>
      <text x="869.4944" xml:space="preserve" y="1085.3289" clip-path="url(#clipPath2)" font-family="sans-serif" stroke="none">ok</text>
      <path fill="none" d="M1044.9484 1179.795 L1044.9484 1238.2706" clip-path="url(#clipPath2)"/>
      <path d="M1044.9484 1246.2706 L1049.9484 1234.2706 L1044.9484 1237.2706 L1039.9484 1234.2706 Z" clip-path="url(#clipPath2)" stroke="none"/>
      <text x="1000.1241" xml:space="preserve" y="1217.6783" clip-path="url(#clipPath2)" font-family="sans-serif" stroke="none">symbol</text>
      <path fill="none" d="M1084.9659 1266.2344 L1182.75 1266.2344 L1187.125 1265.6094 L1190.25 1263.7344 L1192.125 1260.6094 L1192.75 1256.2344 L1192.75 1166.7533" clip-path="url(#clipPath2)"/>
      <path d="M1192.75 1158.7533 L1187.75 1170.7533 L1192.75 1167.7533 L1197.75 1170.7533 Z" clip-path="url(#clipPath2)" stroke="none"/>
      <text x="1124.7396" xml:space="preserve" y="1258.7184" clip-path="url(#clipPath2)" font-family="sans-serif" stroke="none">name?</text>
      <path fill="none" d="M1045.7802 1286.2295 L1046.7131 1308.6593" clip-path="url(#clipPath2)"/>
      <path d="M1047.0457 1316.6523 L1051.5426 1304.4548 L1046.6716 1307.6602 L1041.5511 1304.8705 Z" clip-path="url(#clipPath2)" stroke="none"/>
      <path fill="none" d="M1047.8602 1356.2191 L1047.8602 1383.6226" clip-path="url(#clipPath2)"/>
      <path d="M1047.8602 1391.6226 L1052.8602 1379.6226 L1047.8602 1382.6226 L1042.8602 1379.6226 Z" clip-path="url(#clipPath2)" stroke="none"/>
      <text x="1003.0359" xml:space="preserve" y="1378.5781" clip-path="url(#clipPath2)" font-family="sans-serif" stroke="none">symbol</text>
      <path fill="none" d="M1007.8408 1336.2344 L952.9648 1336.2344" clip-path="url(#clipPath2)"/>
      <path d="M944.9648 1336.2344 L956.9648 1341.2344 L953.9648 1336.2344 L956.9648 1331.2344 Z" clip-path="url(#clipPath2)" stroke="none"/>
      <text x="961.9562" xml:space="preserve" y="1328.7184" clip-path="url(#clipPath2)" font-family="sans-serif" stroke="none">error</text>
    </g>
  </g>
</svg>
