<?xml version="1.0" encoding="UTF-8"?>
<svg xmlns="http://www.w3.org/2000/svg" xmlns:xlink="http://www.w3.org/1999/xlink" fill-opacity="1"
  color-rendering="auto" color-interpolation="auto" text-rendering="auto" stroke="black"
  stroke-linecap="square" width="640" stroke-miterlimit="10" shape-rendering="auto"
  stroke-opacity="1" fill="black" stroke-dasharray="none" font-weight="normal" stroke-width="1"
  height="735" font-family="'Dialog'" font-style="normal" stroke-linejoin="miter" font-size="12px"
  stroke-dashoffset="0" image-rendering="auto">
  <!--Generated
  by ySVG 2.6-->
  <defs id="genericDefs" />
  <g>
    <defs id="defs1">
      <linearGradient x1="1062.5" gradientUnits="userSpaceOnUse" x2="1142.5" y1="1076.5" y2="1116.5"
        id="linearGradient1" spreadMethod="reflect">
        <stop stop-opacity="1" stop-color="rgb(232,238,247)" offset="0%" />
        <stop stop-opacity="1" stop-color="rgb(183,201,227)" offset="100%" />
      </linearGradient>
      <linearGradient x1="917" gradientUnits="userSpaceOnUse" x2="997" y1="642.5" y2="682.5"
        id="linearGradient2" spreadMethod="reflect">
        <stop stop-opacity="1" stop-color="rgb(232,238,247)" offset="0%" />
        <stop stop-opacity="1" stop-color="rgb(183,201,227)" offset="100%" />
      </linearGradient>
      <linearGradient x1="1062.5" gradientUnits="userSpaceOnUse" x2="1142.5" y1="697.5" y2="737.5"
        id="linearGradient3" spreadMethod="reflect">
        <stop stop-opacity="1" stop-color="rgb(232,238,247)" offset="0%" />
        <stop stop-opacity="1" stop-color="rgb(183,201,227)" offset="100%" />
      </linearGradient>
      <linearGradient x1="1062.5" gradientUnits="userSpaceOnUse" x2="1142.5" y1="778.5" y2="818.5"
        id="linearGradient4" spreadMethod="reflect">
        <stop stop-opacity="1" stop-color="rgb(232,238,247)" offset="0%" />
        <stop stop-opacity="1" stop-color="rgb(183,201,227)" offset="100%" />
      </linearGradient>
      <linearGradient x1="1062.5" gradientUnits="userSpaceOnUse" x2="1142.5" y1="922.5" y2="962.5"
        id="linearGradient5" spreadMethod="reflect">
        <stop stop-opacity="1" stop-color="rgb(232,238,247)" offset="0%" />
        <stop stop-opacity="1" stop-color="rgb(183,201,227)" offset="100%" />
      </linearGradient>
      <linearGradient x1="927.25" gradientUnits="userSpaceOnUse" x2="1007.25" y1="778.5" y2="818.5"
        id="linearGradient6" spreadMethod="reflect">
        <stop stop-opacity="1" stop-color="rgb(232,238,247)" offset="0%" />
        <stop stop-opacity="1" stop-color="rgb(183,201,227)" offset="100%" />
      </linearGradient>
      <linearGradient x1="1062.5" gradientUnits="userSpaceOnUse" x2="1142.5" y1="999.5" y2="1039.5"
        id="linearGradient7" spreadMethod="reflect">
        <stop stop-opacity="1" stop-color="rgb(232,238,247)" offset="0%" />
        <stop stop-opacity="1" stop-color="rgb(183,201,227)" offset="100%" />
      </linearGradient>
      <linearGradient x1="927.25" gradientUnits="userSpaceOnUse" x2="1007.25" y1="1208.75"
        y2="1248.75" id="linearGradient8" spreadMethod="reflect">
        <stop stop-opacity="1" stop-color="rgb(232,238,247)" offset="0%" />
        <stop stop-opacity="1" stop-color="rgb(183,201,227)" offset="100%" />
      </linearGradient>
      <linearGradient x1="917" gradientUnits="userSpaceOnUse" x2="997" y1="544.5" y2="584.5"
        id="linearGradient9" spreadMethod="reflect">
        <stop stop-opacity="1" stop-color="rgb(232,238,247)" offset="0%" />
        <stop stop-opacity="1" stop-color="rgb(183,201,227)" offset="100%" />
      </linearGradient>
      <linearGradient x1="1062.5" gradientUnits="userSpaceOnUse" x2="1142.5" y1="1153.5" y2="1193.5"
        id="linearGradient10" spreadMethod="reflect">
        <stop stop-opacity="1" stop-color="rgb(232,238,247)" offset="0%" />
        <stop stop-opacity="1" stop-color="rgb(183,201,227)" offset="100%" />
      </linearGradient>
      <linearGradient x1="1062.5" gradientUnits="userSpaceOnUse" x2="1142.5" y1="845.5" y2="885.5"
        id="linearGradient11" spreadMethod="reflect">
        <stop stop-opacity="1" stop-color="rgb(232,238,247)" offset="0%" />
        <stop stop-opacity="1" stop-color="rgb(183,201,227)" offset="100%" />
      </linearGradient>
      <linearGradient x1="1197.75" gradientUnits="userSpaceOnUse" x2="1277.75" y1="845.5" y2="885.5"
        id="linearGradient12" spreadMethod="reflect">
        <stop stop-opacity="1" stop-color="rgb(232,238,247)" offset="0%" />
        <stop stop-opacity="1" stop-color="rgb(183,201,227)" offset="100%" />
      </linearGradient>
      <linearGradient x1="1197.75" gradientUnits="userSpaceOnUse" x2="1277.75" y1="1153.5"
        y2="1193.5" id="linearGradient13" spreadMethod="reflect">
        <stop stop-opacity="1" stop-color="rgb(232,238,247)" offset="0%" />
        <stop stop-opacity="1" stop-color="rgb(183,201,227)" offset="100%" />
      </linearGradient>
      <linearGradient x1="792" gradientUnits="userSpaceOnUse" x2="872" y1="778.5" y2="818.5"
        id="linearGradient14" spreadMethod="reflect">
        <stop stop-opacity="1" stop-color="rgb(232,238,247)" offset="0%" />
        <stop stop-opacity="1" stop-color="rgb(183,201,227)" offset="100%" />
      </linearGradient>
      <linearGradient x1="792" gradientUnits="userSpaceOnUse" x2="872" y1="845.5" y2="885.5"
        id="linearGradient15" spreadMethod="reflect">
        <stop stop-opacity="1" stop-color="rgb(232,238,247)" offset="0%" />
        <stop stop-opacity="1" stop-color="rgb(183,201,227)" offset="100%" />
      </linearGradient>
      <linearGradient x1="668.5" gradientUnits="userSpaceOnUse" x2="748.5" y1="845.5" y2="885.5"
        id="linearGradient16" spreadMethod="reflect">
        <stop stop-opacity="1" stop-color="rgb(232,238,247)" offset="0%" />
        <stop stop-opacity="1" stop-color="rgb(183,201,227)" offset="100%" />
      </linearGradient>
      <clipPath clipPathUnits="userSpaceOnUse" id="clipPath1">
        <path d="M0 0 L640 0 L640 735 L0 735 L0 0 Z" />
      </clipPath>
      <clipPath clipPathUnits="userSpaceOnUse" id="clipPath2">
        <path d="M653 529 L1293 529 L1293 1264 L653 1264 L653 529 Z" />
      </clipPath>
    </defs>
    <g fill="white" text-rendering="geometricPrecision" shape-rendering="geometricPrecision"
      transform="translate(-653,-529)" stroke="white">
      <rect x="653" width="640" height="735" y="529" clip-path="url(#clipPath2)" stroke="none" />
    </g>
    <g fill="url(#linearGradient1)" text-rendering="geometricPrecision"
      shape-rendering="geometricPrecision" transform="matrix(1,0,0,1,-653,-529)"
      stroke="url(#linearGradient1)">
      <rect x="1062.5" width="80" height="40" y="1076.5" clip-path="url(#clipPath2)" stroke="none" />
    </g>
    <g text-rendering="geometricPrecision" stroke-miterlimit="1.45"
      shape-rendering="geometricPrecision" transform="matrix(1,0,0,1,-653,-529)"
      stroke-linecap="butt">
      <rect fill="none" x="1062.5" width="80" height="40" y="1076.5" clip-path="url(#clipPath2)" />
      <path fill="none"
        d="M1072.5 1076.5 L1072.5 1116.5 M1132.5 1076.5 L1132.5 1116.5 M1072.5 1076.5 Z"
        clip-path="url(#clipPath2)" />
      <text x="1083.0898" xml:space="preserve" y="1101.156" clip-path="url(#clipPath2)"
        font-family="sans-serif" stroke="none">lookup</text>
    </g>
    <g fill="url(#linearGradient2)" text-rendering="geometricPrecision"
      shape-rendering="geometricPrecision" transform="matrix(1,0,0,1,-653,-529)"
      stroke="url(#linearGradient2)">
      <path d="M957 642.5 L997 662.5 L957 682.5 L917 662.5 Z" stroke="none"
        clip-path="url(#clipPath2)" />
    </g>
    <g text-rendering="geometricPrecision" stroke-miterlimit="1.45"
      shape-rendering="geometricPrecision" transform="matrix(1,0,0,1,-653,-529)"
      stroke-linecap="butt">
      <path fill="none" d="M957 642.5 L997 662.5 L957 682.5 L917 662.5 Z"
        clip-path="url(#clipPath2)" />
      <text x="930.8458" xml:space="preserve" y="667.156" clip-path="url(#clipPath2)"
        font-family="sans-serif" stroke="none">single id?</text>
    </g>
    <g fill="url(#linearGradient3)" text-rendering="geometricPrecision"
      shape-rendering="geometricPrecision" transform="matrix(1,0,0,1,-653,-529)"
      stroke="url(#linearGradient3)">
      <path d="M1062.5 697.5 L1142.5 697.5 L1142.5 737.5 L1062.5 737.5 Z" stroke="none"
        clip-path="url(#clipPath2)" />
    </g>
    <g text-rendering="geometricPrecision" stroke-miterlimit="1.45"
      shape-rendering="geometricPrecision" transform="matrix(1,0,0,1,-653,-529)"
      stroke-linecap="butt">
      <path fill="none" d="M1062.5 697.5 L1142.5 697.5 L1142.5 737.5 L1062.5 737.5 Z"
        clip-path="url(#clipPath2)" />
      <text x="1077.9838" xml:space="preserve" y="722.156" clip-path="url(#clipPath2)"
        font-family="sans-serif" stroke="none">split first</text>
    </g>
    <g fill="url(#linearGradient4)" text-rendering="geometricPrecision"
      shape-rendering="geometricPrecision" transform="matrix(1,0,0,1,-653,-529)"
      stroke="url(#linearGradient4)">
      <path d="M1062.5 778.5 L1142.5 778.5 L1142.5 818.5 L1062.5 818.5 Z" stroke="none"
        clip-path="url(#clipPath2)" />
    </g>
    <g text-rendering="geometricPrecision" stroke-miterlimit="1.45"
      shape-rendering="geometricPrecision" transform="matrix(1,0,0,1,-653,-529)"
      stroke-linecap="butt">
      <path fill="none" d="M1062.5 778.5 L1142.5 778.5 L1142.5 818.5 L1062.5 818.5 Z"
        clip-path="url(#clipPath2)" />
      <text x="1073.7657" xml:space="preserve" y="803.156" clip-path="url(#clipPath2)"
        font-family="sans-serif" stroke="none">fetch local</text>
    </g>
    <g fill="url(#linearGradient5)" text-rendering="geometricPrecision"
      shape-rendering="geometricPrecision" transform="matrix(1,0,0,1,-653,-529)"
      stroke="url(#linearGradient5)">
      <path d="M1062.5 922.5 L1142.5 922.5 L1142.5 962.5 L1062.5 962.5 Z" stroke="none"
        clip-path="url(#clipPath2)" />
    </g>
    <g text-rendering="geometricPrecision" stroke-miterlimit="1.45"
      shape-rendering="geometricPrecision" transform="matrix(1,0,0,1,-653,-529)"
      stroke-linecap="butt">
      <path fill="none" d="M1062.5 922.5 L1142.5 922.5 L1142.5 962.5 L1062.5 962.5 Z"
        clip-path="url(#clipPath2)" />
      <text x="1067.0637" xml:space="preserve" y="938.9839" clip-path="url(#clipPath2)"
        font-family="sans-serif" stroke="none">get symbol's</text>
      <text x="1076.0038" xml:space="preserve" y="955.3281" clip-path="url(#clipPath2)"
        font-family="sans-serif" stroke="none">full name</text>
    </g>
    <g fill="url(#linearGradient6)" text-rendering="geometricPrecision"
      shape-rendering="geometricPrecision" transform="matrix(1,0,0,1,-653,-529)"
      stroke="url(#linearGradient6)">
      <path d="M937.45 778.5 L1007.25 778.5 L997.05 818.5 L927.25 818.5 Z" stroke="none"
        clip-path="url(#clipPath2)" />
    </g>
    <g text-rendering="geometricPrecision" stroke-miterlimit="1.45"
      shape-rendering="geometricPrecision" transform="matrix(1,0,0,1,-653,-529)"
      stroke-linecap="butt">
      <path fill="none" d="M937.45 778.5 L1007.25 778.5 L997.05 818.5 L927.25 818.5 Z"
        clip-path="url(#clipPath2)" />
      <text x="938.2278" xml:space="preserve" y="803.156" clip-path="url(#clipPath2)"
        font-family="sans-serif" stroke="none">Stack</text>
    </g>
    <g fill="url(#linearGradient7)" text-rendering="geometricPrecision"
      shape-rendering="geometricPrecision" transform="matrix(1,0,0,1,-653,-529)"
      stroke="url(#linearGradient7)">
      <path d="M1062.5 999.5 L1142.5 999.5 L1142.5 1039.5 L1062.5 1039.5 Z" stroke="none"
        clip-path="url(#clipPath2)" />
    </g>
    <g text-rendering="geometricPrecision" stroke-miterlimit="1.45"
      shape-rendering="geometricPrecision" transform="matrix(1,0,0,1,-653,-529)"
      stroke-linecap="butt">
      <path fill="none" d="M1062.5 999.5 L1142.5 999.5 L1142.5 1039.5 L1062.5 1039.5 Z"
        clip-path="url(#clipPath2)" />
      <text x="1070.7838" xml:space="preserve" y="1024.156" clip-path="url(#clipPath2)"
        font-family="sans-serif" stroke="none">append tail</text>
    </g>
    <g fill="url(#linearGradient8)" text-rendering="geometricPrecision"
      shape-rendering="geometricPrecision" transform="matrix(1,0,0,1,-653,-529)"
      stroke="url(#linearGradient8)">
      <rect x="927.25" y="1208.75" clip-path="url(#clipPath2)" width="80" rx="20" ry="20"
        height="40" stroke="none" />
    </g>
    <g text-rendering="geometricPrecision" stroke-miterlimit="1.45"
      shape-rendering="geometricPrecision" transform="matrix(1,0,0,1,-653,-529)"
      stroke-linecap="butt">
      <rect x="927.25" y="1208.75" clip-path="url(#clipPath2)" fill="none" width="80" rx="20"
        ry="20" height="40" />
      <text x="960.416" xml:space="preserve" y="1233.406" clip-path="url(#clipPath2)"
        font-family="sans-serif" stroke="none">ok</text>
    </g>
    <g fill="url(#linearGradient9)" text-rendering="geometricPrecision"
      shape-rendering="geometricPrecision" transform="matrix(1,0,0,1,-653,-529)"
      stroke="url(#linearGradient9)">
      <ellipse rx="40" ry="20" clip-path="url(#clipPath2)" cx="957" cy="564.5" stroke="none" />
    </g>
    <g text-rendering="geometricPrecision" stroke-miterlimit="1.45"
      shape-rendering="geometricPrecision" transform="matrix(1,0,0,1,-653,-529)"
      stroke-linecap="butt">
      <ellipse rx="40" fill="none" ry="20" clip-path="url(#clipPath2)" cx="957" cy="564.5" />
      <text x="937.5898" xml:space="preserve" y="560.9839" clip-path="url(#clipPath2)"
        font-family="sans-serif" stroke="none">lookup</text>
      <text x="944.0279" xml:space="preserve" y="577.3281" clip-path="url(#clipPath2)"
        font-family="sans-serif" stroke="none">local</text>
    </g>
    <g fill="url(#linearGradient10)" text-rendering="geometricPrecision"
      shape-rendering="geometricPrecision" transform="matrix(1,0,0,1,-653,-529)"
      stroke="url(#linearGradient10)">
      <path d="M1102.5 1153.5 L1142.5 1173.5 L1102.5 1193.5 L1062.5 1173.5 Z" stroke="none"
        clip-path="url(#clipPath2)" />
    </g>
    <g text-rendering="geometricPrecision" stroke-miterlimit="1.45"
      shape-rendering="geometricPrecision" transform="matrix(1,0,0,1,-653,-529)"
      stroke-linecap="butt">
      <path fill="none" d="M1102.5 1153.5 L1142.5 1173.5 L1102.5 1193.5 L1062.5 1173.5 Z"
        clip-path="url(#clipPath2)" />
    </g>
    <g fill="url(#linearGradient11)" text-rendering="geometricPrecision"
      shape-rendering="geometricPrecision" transform="matrix(1,0,0,1,-653,-529)"
      stroke="url(#linearGradient11)">
      <path d="M1102.5 845.5 L1142.5 865.5 L1102.5 885.5 L1062.5 865.5 Z" stroke="none"
        clip-path="url(#clipPath2)" />
    </g>
    <g text-rendering="geometricPrecision" stroke-miterlimit="1.45"
      shape-rendering="geometricPrecision" transform="matrix(1,0,0,1,-653,-529)"
      stroke-linecap="butt">
      <path fill="none" d="M1102.5 845.5 L1142.5 865.5 L1102.5 885.5 L1062.5 865.5 Z"
        clip-path="url(#clipPath2)" />
    </g>
    <g fill="url(#linearGradient12)" text-rendering="geometricPrecision"
      shape-rendering="geometricPrecision" transform="matrix(1,0,0,1,-653,-529)"
      stroke="url(#linearGradient12)">
      <rect x="1197.75" y="845.5" clip-path="url(#clipPath2)" width="80" rx="20" ry="20" height="40"
        stroke="none" />
    </g>
    <g text-rendering="geometricPrecision" stroke-miterlimit="1.45"
      shape-rendering="geometricPrecision" transform="matrix(1,0,0,1,-653,-529)"
      stroke-linecap="butt">
      <rect x="1197.75" y="845.5" clip-path="url(#clipPath2)" fill="none" width="80" rx="20" ry="20"
        height="40" />
      <text x="1209.8857" xml:space="preserve" y="870.156" clip-path="url(#clipPath2)"
        font-family="sans-serif" stroke="none">not found</text>
    </g>
    <g fill="url(#linearGradient13)" text-rendering="geometricPrecision"
      shape-rendering="geometricPrecision" transform="matrix(1,0,0,1,-653,-529)"
      stroke="url(#linearGradient13)">
      <rect x="1197.75" y="1153.5" clip-path="url(#clipPath2)" width="80" rx="20" ry="20"
        height="40" stroke="none" />
    </g>
    <g text-rendering="geometricPrecision" stroke-miterlimit="1.45"
      shape-rendering="geometricPrecision" transform="matrix(1,0,0,1,-653,-529)"
      stroke-linecap="butt">
      <rect x="1197.75" y="1153.5" clip-path="url(#clipPath2)" fill="none" width="80" rx="20"
        ry="20" height="40" />
      <text x="1209.8857" xml:space="preserve" y="1178.156" clip-path="url(#clipPath2)"
        font-family="sans-serif" stroke="none">not found</text>
    </g>
    <g fill="url(#linearGradient14)" text-rendering="geometricPrecision"
      shape-rendering="geometricPrecision" transform="matrix(1,0,0,1,-653,-529)"
      stroke="url(#linearGradient14)">
      <path d="M792 778.5 L872 778.5 L872 818.5 L792 818.5 Z" stroke="none"
        clip-path="url(#clipPath2)" />
    </g>
    <g text-rendering="geometricPrecision" stroke-miterlimit="1.45"
      shape-rendering="geometricPrecision" transform="matrix(1,0,0,1,-653,-529)"
      stroke-linecap="butt">
      <path fill="none" d="M792 778.5 L872 778.5 L872 818.5 L792 818.5 Z"
        clip-path="url(#clipPath2)" />
      <text x="803.2658" xml:space="preserve" y="803.156" clip-path="url(#clipPath2)"
        font-family="sans-serif" stroke="none">fetch local</text>
    </g>
    <g fill="url(#linearGradient15)" text-rendering="geometricPrecision"
      shape-rendering="geometricPrecision" transform="matrix(1,0,0,1,-653,-529)"
      stroke="url(#linearGradient15)">
      <path d="M832 845.5 L872 865.5 L832 885.5 L792 865.5 Z" stroke="none"
        clip-path="url(#clipPath2)" />
    </g>
    <g text-rendering="geometricPrecision" stroke-miterlimit="1.45"
      shape-rendering="geometricPrecision" transform="matrix(1,0,0,1,-653,-529)"
      stroke-linecap="butt">
      <path fill="none" d="M832 845.5 L872 865.5 L832 885.5 L792 865.5 Z"
        clip-path="url(#clipPath2)" />
    </g>
    <g fill="url(#linearGradient16)" text-rendering="geometricPrecision"
      shape-rendering="geometricPrecision" transform="matrix(1,0,0,1,-653,-529)"
      stroke="url(#linearGradient16)">
      <rect x="668.5" y="845.5" clip-path="url(#clipPath2)" width="80" rx="20" ry="20" height="40"
        stroke="none" />
    </g>
    <g text-rendering="geometricPrecision" stroke-miterlimit="1.45"
      shape-rendering="geometricPrecision" transform="matrix(1,0,0,1,-653,-529)"
      stroke-linecap="butt">
      <rect x="668.5" y="845.5" clip-path="url(#clipPath2)" fill="none" width="80" rx="20" ry="20"
        height="40" />
      <text x="680.6358" xml:space="preserve" y="870.156" clip-path="url(#clipPath2)"
        font-family="sans-serif" stroke="none">not found</text>
    </g>
    <g text-rendering="geometricPrecision" stroke-miterlimit="1.45"
      shape-rendering="geometricPrecision" transform="matrix(1,0,0,1,-653,-529)"
      stroke-linecap="butt">
      <path fill="none"
        d="M997.0338 662.5 L1092.5 662.5 L1096.875 663.125 L1100 665 L1101.875 668.125 L1102.5 672.5 L1102.5 689.4927"
        clip-path="url(#clipPath2)" />
    </g>
    <g text-rendering="geometricPrecision" stroke-miterlimit="1.45"
      shape-rendering="geometricPrecision" transform="matrix(1,0,0,1,-653,-529)"
      stroke-linecap="butt">
      <path d="M1102.5 697.4927 L1107.5 685.4927 L1102.5 688.4927 L1097.5 685.4927 Z" stroke="none"
        clip-path="url(#clipPath2)" />
      <text x="1009.125" xml:space="preserve" y="654.9839" clip-path="url(#clipPath2)"
        font-family="sans-serif" stroke="none">name</text>
      <path fill="none" d="M1102.5 737.4731 L1102.5 770.5054" clip-path="url(#clipPath2)" />
      <path d="M1102.5 778.5054 L1107.5 766.5054 L1102.5 769.5054 L1097.5 766.5054 Z"
        clip-path="url(#clipPath2)" stroke="none" />
      <text x="1067.5518" xml:space="preserve" y="762.656" clip-path="url(#clipPath2)"
        font-family="sans-serif" stroke="none">id,tail</text>
      <path fill="none" d="M1062.5127 798.5 L1010.1828 798.5" clip-path="url(#clipPath2)" />
      <path d="M1002.1828 798.5 L1014.1828 803.5 L1011.1828 798.5 L1014.1828 793.5 Z"
        clip-path="url(#clipPath2)" stroke="none" />
      <text x="1027.033" xml:space="preserve" y="790.9839" clip-path="url(#clipPath2)"
        font-family="sans-serif" stroke="none">id?</text>
      <path fill="none" d="M1102.5 962.4644 L1102.5 991.4763" clip-path="url(#clipPath2)" />
      <path d="M1102.5 999.4763 L1107.5 987.4763 L1102.5 990.4763 L1097.5 987.4763 Z"
        clip-path="url(#clipPath2)" stroke="none" />
      <text x="1045.5076" xml:space="preserve" y="985.656" clip-path="url(#clipPath2)"
        font-family="sans-serif" stroke="none">full name</text>
      <path fill="none" d="M1102.5 1039.4644 L1102.5 1068.4762" clip-path="url(#clipPath2)" />
      <path d="M1102.5 1076.4762 L1107.5 1064.4762 L1102.5 1067.4762 L1097.5 1064.4762 Z"
        clip-path="url(#clipPath2)" stroke="none" />
      <text x="1037.8396" xml:space="preserve" y="1062.656" clip-path="url(#clipPath2)"
        font-family="sans-serif" stroke="none">alias name</text>
      <path fill="none" d="M957 584.4541 L957 634.4931" clip-path="url(#clipPath2)" />
      <path d="M957 642.4931 L962 630.4931 L957 633.4931 L952 630.4931 Z"
        clip-path="url(#clipPath2)" stroke="none" />
      <text x="920.8638" xml:space="preserve" y="618.156" clip-path="url(#clipPath2)"
        font-family="sans-serif" stroke="none">name</text>
      <path fill="none" d="M1102.5 1116.4644 L1102.5 1145.4762" clip-path="url(#clipPath2)" />
      <path d="M1102.5 1153.4762 L1107.5 1141.4762 L1102.5 1144.4762 L1097.5 1141.4762 Z"
        clip-path="url(#clipPath2)" stroke="none" />
      <path fill="none"
        d="M1102.5 1193.4904 L1102.5 1218.75 L1101.875 1223.125 L1100 1226.25 L1096.875 1228.125 L1092.5 1228.75 L1015.2372 1228.75"
        clip-path="url(#clipPath2)" />
      <path d="M1007.2372 1228.75 L1019.2372 1233.75 L1016.2372 1228.75 L1019.2372 1223.75 Z"
        clip-path="url(#clipPath2)" stroke="none" />
      <text x="1039.0254" xml:space="preserve" y="1221.234" clip-path="url(#clipPath2)"
        font-family="sans-serif" stroke="none">symbol</text>
      <path fill="none" d="M1102.5 818.4888 L1102.5 837.5294" clip-path="url(#clipPath2)" />
      <path d="M1102.5 845.5294 L1107.5 833.5294 L1102.5 836.5294 L1097.5 833.5294 Z"
        clip-path="url(#clipPath2)" stroke="none" />
      <path fill="none" d="M1102.5 885.4644 L1102.5 914.4763" clip-path="url(#clipPath2)" />
      <path d="M1102.5 922.4763 L1107.5 910.4763 L1102.5 913.4763 L1097.5 910.4763 Z"
        clip-path="url(#clipPath2)" stroke="none" />
      <text x="1028.6115" xml:space="preserve" y="908.656" clip-path="url(#clipPath2)"
        font-family="sans-serif" stroke="none">local symbol</text>
      <path fill="none" d="M1142.4873 865.5 L1189.7936 865.5" clip-path="url(#clipPath2)" />
      <path d="M1197.7936 865.5 L1185.7936 860.5 L1188.7936 865.5 L1185.7936 870.5 Z"
        clip-path="url(#clipPath2)" stroke="none" />
      <text x="1155.6769" xml:space="preserve" y="857.9839" clip-path="url(#clipPath2)"
        font-family="sans-serif" stroke="none">error</text>
      <path fill="none" d="M1142.4873 1173.5 L1189.7936 1173.5" clip-path="url(#clipPath2)" />
      <path d="M1197.7936 1173.5 L1185.7936 1168.5 L1188.7936 1173.5 L1185.7936 1178.5 Z"
        clip-path="url(#clipPath2)" stroke="none" />
      <text x="1155.6769" xml:space="preserve" y="1165.984" clip-path="url(#clipPath2)"
        font-family="sans-serif" stroke="none">error</text>
      <path fill="none"
        d="M916.9915 662.5 L842 662.5 L837.625 663.125 L834.5 665 L832.625 668.125 L832 672.5 L832 770.4785"
        clip-path="url(#clipPath2)" />
      <path d="M832 778.4785 L837 766.4785 L832 769.4785 L827 766.4785 Z"
        clip-path="url(#clipPath2)" stroke="none" />
      <text x="817.5239" xml:space="preserve" y="720.5935" clip-path="url(#clipPath2)"
        font-family="sans-serif" stroke="none">id</text>
      <path fill="none" d="M872 798.5 L924.3438 798.5" clip-path="url(#clipPath2)" />
      <path d="M932.3438 798.5 L920.3438 793.5 L923.3438 798.5 L920.3438 803.5 Z"
        clip-path="url(#clipPath2)" stroke="none" />
      <text x="884.125" xml:space="preserve" y="790.9839" clip-path="url(#clipPath2)"
        font-family="sans-serif" stroke="none">id?</text>
      <path fill="none" d="M832 818.5 L832 837.4902" clip-path="url(#clipPath2)" />
      <path d="M832 845.4902 L837 833.4902 L832 836.4902 L827 833.4902 Z"
        clip-path="url(#clipPath2)" stroke="none" />
      <path fill="none"
        d="M832 885.4983 L832 1218.75 L832.625 1223.125 L834.5 1226.25 L837.625 1228.125 L842 1228.75 L919.2628 1228.75"
        clip-path="url(#clipPath2)" />
      <path d="M927.2628 1228.75 L915.2628 1223.75 L918.2628 1228.75 L915.2628 1233.75 Z"
        clip-path="url(#clipPath2)" stroke="none" />
      <text x="802.0558" xml:space="preserve" y="1058.1715" clip-path="url(#clipPath2)"
        font-family="sans-serif" stroke="none">local</text>
      <text x="787.1757" xml:space="preserve" y="1074.5156" clip-path="url(#clipPath2)"
        font-family="sans-serif" stroke="none">symbol</text>
      <path fill="none" d="M791.9891 865.5 L756.4916 865.5" clip-path="url(#clipPath2)" />
      <path d="M748.4916 865.5 L760.4916 870.5 L757.4916 865.5 L760.4916 860.5 Z"
        clip-path="url(#clipPath2)" stroke="none" />
      <text x="755.8019" xml:space="preserve" y="857.9839" clip-path="url(#clipPath2)"
        font-family="sans-serif" stroke="none">error</text>
    </g>
  </g>
</svg>