<?xml version="1.0" encoding="UTF-8"?><svg xmlns="http://www.w3.org/2000/svg" xmlns:xlink="http://www.w3.org/1999/xlink" fill-opacity="1" color-rendering="auto" color-interpolation="auto" text-rendering="auto" stroke="black" stroke-linecap="square" width="398" stroke-miterlimit="10" shape-rendering="auto" stroke-opacity="1" fill="black" stroke-dasharray="none" font-weight="normal" stroke-width="1" height="415" font-family="'Dialog'" font-style="normal" stroke-linejoin="miter" font-size="12px" stroke-dashoffset="0" image-rendering="auto">
  <!--Generated by ySVG 2.6-->
  <defs id="genericDefs"/>
  <g>
    <defs id="defs1">
      <linearGradient x1="700.4603" gradientUnits="userSpaceOnUse" x2="780.4603" y1="569.5624" y2="609.5624" id="linearGradient1" spreadMethod="reflect">
        <stop stop-opacity="1" stop-color="rgb(232,238,247)" offset="0%"/>
        <stop stop-opacity="1" stop-color="rgb(183,201,227)" offset="100%"/>
      </linearGradient>
      <linearGradient x1="700.4603" gradientUnits="userSpaceOnUse" x2="780.4603" y1="680.5" y2="720.5" id="linearGradient2" spreadMethod="reflect">
        <stop stop-opacity="1" stop-color="rgb(232,238,247)" offset="0%"/>
        <stop stop-opacity="1" stop-color="rgb(183,201,227)" offset="100%"/>
      </linearGradient>
      <linearGradient x1="840.4603" gradientUnits="userSpaceOnUse" x2="920.4603" y1="680.5" y2="720.5" id="linearGradient3" spreadMethod="reflect">
        <stop stop-opacity="1" stop-color="rgb(232,238,247)" offset="0%"/>
        <stop stop-opacity="1" stop-color="rgb(183,201,227)" offset="100%"/>
      </linearGradient>
      <linearGradient x1="700.4603" gradientUnits="userSpaceOnUse" x2="780.4603" y1="758.9334" y2="798.9334" id="linearGradient4" spreadMethod="reflect">
        <stop stop-opacity="1" stop-color="rgb(232,238,247)" offset="0%"/>
        <stop stop-opacity="1" stop-color="rgb(183,201,227)" offset="100%"/>
      </linearGradient>
      <linearGradient x1="770.7505" gradientUnits="userSpaceOnUse" x2="850.7505" y1="913.7693" y2="953.7693" id="linearGradient5" spreadMethod="reflect">
        <stop stop-opacity="1" stop-color="rgb(232,238,247)" offset="0%"/>
        <stop stop-opacity="1" stop-color="rgb(183,201,227)" offset="100%"/>
      </linearGradient>
      <linearGradient x1="840.4603" gradientUnits="userSpaceOnUse" x2="920.4603" y1="758.9334" y2="798.9334" id="linearGradient6" spreadMethod="reflect">
        <stop stop-opacity="1" stop-color="rgb(232,238,247)" offset="0%"/>
        <stop stop-opacity="1" stop-color="rgb(183,201,227)" offset="100%"/>
      </linearGradient>
      <linearGradient x1="840.4603" gradientUnits="userSpaceOnUse" x2="920.4603" y1="837.3669" y2="877.3669" id="linearGradient7" spreadMethod="reflect">
        <stop stop-opacity="1" stop-color="rgb(232,238,247)" offset="0%"/>
        <stop stop-opacity="1" stop-color="rgb(183,201,227)" offset="100%"/>
      </linearGradient>
      <linearGradient x1="980.4603" gradientUnits="userSpaceOnUse" x2="1060.4602" y1="837.3669" y2="877.3669" id="linearGradient8" spreadMethod="reflect">
        <stop stop-opacity="1" stop-color="rgb(232,238,247)" offset="0%"/>
        <stop stop-opacity="1" stop-color="rgb(183,201,227)" offset="100%"/>
      </linearGradient>
      <clipPath clipPathUnits="userSpaceOnUse" id="clipPath1">
        <path d="M0 0 L398 0 L398 415 L0 415 L0 0 Z"/>
      </clipPath>
      <clipPath clipPathUnits="userSpaceOnUse" id="clipPath2">
        <path d="M678 554 L1076 554 L1076 969 L678 969 L678 554 Z"/>
      </clipPath>
    </defs>
    <g fill="white" text-rendering="geometricPrecision" shape-rendering="geometricPrecision" transform="translate(-678,-554)" stroke="white">
      <rect x="678" width="398" height="415" y="554" clip-path="url(#clipPath2)" stroke="none"/>
    </g>
    <g fill="url(#linearGradient1)" text-rendering="geometricPrecision" shape-rendering="geometricPrecision" transform="matrix(1,0,0,1,-678,-554)" stroke="url(#linearGradient1)">
      <ellipse rx="40" ry="20" clip-path="url(#clipPath2)" cx="740.4603" cy="589.5624" stroke="none"/>
    </g>
    <g text-rendering="geometricPrecision" stroke-miterlimit="1.45" shape-rendering="geometricPrecision" transform="matrix(1,0,0,1,-678,-554)" stroke-linecap="butt">
      <ellipse rx="40" fill="none" ry="20" clip-path="url(#clipPath2)" cx="740.4603" cy="589.5624"/>
      <text x="721.0501" xml:space="preserve" y="586.0463" clip-path="url(#clipPath2)" font-family="sans-serif" stroke="none">lookup</text>
      <text x="722.9882" xml:space="preserve" y="602.3904" clip-path="url(#clipPath2)" font-family="sans-serif" stroke="none">global</text>
    </g>
    <g fill="url(#linearGradient2)" text-rendering="geometricPrecision" shape-rendering="geometricPrecision" transform="matrix(1,0,0,1,-678,-554)" stroke="url(#linearGradient2)">
      <path d="M700.4603 680.5 L780.4603 680.5 L780.4603 720.5 L700.4603 720.5 Z" stroke="none" clip-path="url(#clipPath2)"/>
    </g>
    <g text-rendering="geometricPrecision" stroke-miterlimit="1.45" shape-rendering="geometricPrecision" transform="matrix(1,0,0,1,-678,-554)" stroke-linecap="butt">
      <path fill="none" d="M700.4603 680.5 L780.4603 680.5 L780.4603 720.5 L700.4603 720.5 Z" clip-path="url(#clipPath2)"/>
      <text x="707.226" xml:space="preserve" y="705.156" clip-path="url(#clipPath2)" font-family="sans-serif" stroke="none">fetch global</text>
    </g>
    <g fill="url(#linearGradient3)" text-rendering="geometricPrecision" shape-rendering="geometricPrecision" transform="matrix(1,0,0,1,-678,-554)" stroke="url(#linearGradient3)">
      <path d="M850.6603 680.5 L920.4603 680.5 L910.2603 720.5 L840.4603 720.5 Z" stroke="none" clip-path="url(#clipPath2)"/>
    </g>
    <g text-rendering="geometricPrecision" stroke-miterlimit="1.45" shape-rendering="geometricPrecision" transform="matrix(1,0,0,1,-678,-554)" stroke-linecap="butt">
      <path fill="none" d="M850.6603 680.5 L920.4603 680.5 L910.2603 720.5 L840.4603 720.5 Z" clip-path="url(#clipPath2)"/>
      <text x="857.1741" xml:space="preserve" y="705.156" clip-path="url(#clipPath2)" font-family="sans-serif" stroke="none">symbols</text>
    </g>
    <g fill="url(#linearGradient4)" text-rendering="geometricPrecision" shape-rendering="geometricPrecision" transform="matrix(1,0,0,1,-678,-554)" stroke="url(#linearGradient4)">
      <path d="M740.4603 758.9334 L780.4603 778.9334 L740.4603 798.9334 L700.4603 778.9334 Z" stroke="none" clip-path="url(#clipPath2)"/>
    </g>
    <g text-rendering="geometricPrecision" stroke-miterlimit="1.45" shape-rendering="geometricPrecision" transform="matrix(1,0,0,1,-678,-554)" stroke-linecap="butt">
      <path fill="none" d="M740.4603 758.9334 L780.4603 778.9334 L740.4603 798.9334 L700.4603 778.9334 Z" clip-path="url(#clipPath2)"/>
    </g>
    <g fill="url(#linearGradient5)" text-rendering="geometricPrecision" shape-rendering="geometricPrecision" transform="matrix(1,0,0,1,-678,-554)" stroke="url(#linearGradient5)">
      <rect x="770.7505" y="913.7693" clip-path="url(#clipPath2)" width="80" rx="20" ry="20" height="40" stroke="none"/>
    </g>
    <g text-rendering="geometricPrecision" stroke-miterlimit="1.45" shape-rendering="geometricPrecision" transform="matrix(1,0,0,1,-678,-554)" stroke-linecap="butt">
      <rect x="770.7505" y="913.7693" clip-path="url(#clipPath2)" fill="none" width="80" rx="20" ry="20" height="40"/>
      <text x="803.9164" xml:space="preserve" y="938.4253" clip-path="url(#clipPath2)" font-family="sans-serif" stroke="none">ok</text>
    </g>
    <g fill="url(#linearGradient6)" text-rendering="geometricPrecision" shape-rendering="geometricPrecision" transform="matrix(1,0,0,1,-678,-554)" stroke="url(#linearGradient6)">
      <rect x="840.4603" width="80" height="40" y="758.9334" clip-path="url(#clipPath2)" stroke="none"/>
    </g>
    <g text-rendering="geometricPrecision" stroke-miterlimit="1.45" shape-rendering="geometricPrecision" transform="matrix(1,0,0,1,-678,-554)" stroke-linecap="butt">
      <rect fill="none" x="840.4603" width="80" height="40" y="758.9334" clip-path="url(#clipPath2)"/>
      <path fill="none" d="M850.4603 758.9334 L850.4603 798.9334 M910.4603 758.9334 L910.4603 798.9334 M850.4603 758.9334 Z" clip-path="url(#clipPath2)"/>
      <text x="868.2262" xml:space="preserve" y="775.4174" clip-path="url(#clipPath2)" font-family="sans-serif" stroke="none">load</text>
      <text x="860.0481" xml:space="preserve" y="791.7615" clip-path="url(#clipPath2)" font-family="sans-serif" stroke="none">symbol</text>
    </g>
    <g fill="url(#linearGradient7)" text-rendering="geometricPrecision" shape-rendering="geometricPrecision" transform="matrix(1,0,0,1,-678,-554)" stroke="url(#linearGradient7)">
      <path d="M880.4603 837.3669 L920.4603 857.3669 L880.4603 877.3669 L840.4603 857.3669 Z" stroke="none" clip-path="url(#clipPath2)"/>
    </g>
    <g text-rendering="geometricPrecision" stroke-miterlimit="1.45" shape-rendering="geometricPrecision" transform="matrix(1,0,0,1,-678,-554)" stroke-linecap="butt">
      <path fill="none" d="M880.4603 837.3669 L920.4603 857.3669 L880.4603 877.3669 L840.4603 857.3669 Z" clip-path="url(#clipPath2)"/>
    </g>
    <g fill="url(#linearGradient8)" text-rendering="geometricPrecision" shape-rendering="geometricPrecision" transform="matrix(1,0,0,1,-678,-554)" stroke="url(#linearGradient8)">
      <rect x="980.4603" y="837.3669" clip-path="url(#clipPath2)" width="80" rx="20" ry="20" height="40" stroke="none"/>
    </g>
    <g text-rendering="geometricPrecision" stroke-miterlimit="1.45" shape-rendering="geometricPrecision" transform="matrix(1,0,0,1,-678,-554)" stroke-linecap="butt">
      <rect x="980.4603" y="837.3669" clip-path="url(#clipPath2)" fill="none" width="80" rx="20" ry="20" height="40"/>
      <text x="992.5961" xml:space="preserve" y="862.0229" clip-path="url(#clipPath2)" font-family="sans-serif" stroke="none">not found</text>
    </g>
    <g text-rendering="geometricPrecision" stroke-miterlimit="1.45" shape-rendering="geometricPrecision" transform="matrix(1,0,0,1,-678,-554)" stroke-linecap="butt">
      <path fill="none" d="M740.4603 609.5777 L740.4603 672.4775" clip-path="url(#clipPath2)"/>
    </g>
    <g text-rendering="geometricPrecision" stroke-miterlimit="1.45" shape-rendering="geometricPrecision" transform="matrix(1,0,0,1,-678,-554)" stroke-linecap="butt">
      <path d="M740.4603 680.4775 L745.4603 668.4775 L740.4603 671.4775 L735.4603 668.4775 Z" stroke="none" clip-path="url(#clipPath2)"/>
      <text x="704.324" xml:space="preserve" y="649.6872" clip-path="url(#clipPath2)" font-family="sans-serif" stroke="none">name</text>
      <path fill="none" d="M780.4847 700.5 L837.5567 700.5" clip-path="url(#clipPath2)"/>
      <path d="M845.5567 700.5 L833.5567 695.5 L836.5567 700.5 L833.5567 705.5 Z" clip-path="url(#clipPath2)" stroke="none"/>
      <text x="791.7881" xml:space="preserve" y="692.9839" clip-path="url(#clipPath2)" font-family="sans-serif" stroke="none">name?</text>
      <path fill="none" d="M740.4603 720.5296 L740.4603 750.9427" clip-path="url(#clipPath2)"/>
      <path d="M740.4603 758.9427 L745.4603 746.9427 L740.4603 749.9427 L735.4603 746.9427 Z" clip-path="url(#clipPath2)" stroke="none"/>
      <path fill="none" d="M740.4603 798.9305 L740.4603 923.7693 L741.0853 928.1443 L742.9603 931.2693 L746.0853 933.1443 L750.4603 933.7693 L762.7661 933.7693" clip-path="url(#clipPath2)"/>
      <path d="M770.7661 933.7693 L758.7661 928.7693 L761.7661 933.7693 L758.7661 938.7693 Z" clip-path="url(#clipPath2)" stroke="none"/>
      <text x="695.636" xml:space="preserve" y="875.5699" clip-path="url(#clipPath2)" font-family="sans-serif" stroke="none">symbol</text>
      <path fill="none" d="M780.4847 778.9334 L832.4798 778.9334" clip-path="url(#clipPath2)"/>
      <path d="M840.4798 778.9334 L828.4798 773.9334 L831.4798 778.9334 L828.4798 783.9334 Z" clip-path="url(#clipPath2)" stroke="none"/>
      <text x="796.0121" xml:space="preserve" y="771.4174" clip-path="url(#clipPath2)" font-family="sans-serif" stroke="none">error</text>
      <path fill="none" d="M880.4603 798.9631 L880.4603 829.3761" clip-path="url(#clipPath2)"/>
      <path d="M880.4603 837.3761 L885.4603 825.3761 L880.4603 828.3761 L875.4603 825.3761 Z" clip-path="url(#clipPath2)" stroke="none"/>
      <path fill="none" d="M880.4603 877.4001 L880.4603 923.7693 L879.8353 928.1443 L877.9603 931.2693 L874.8353 933.1443 L870.4603 933.7693 L858.7451 933.7693" clip-path="url(#clipPath2)"/>
      <path d="M850.7451 933.7693 L862.7451 938.7693 L859.7451 933.7693 L862.7451 928.7693 Z" clip-path="url(#clipPath2)" stroke="none"/>
      <text x="884.4603" xml:space="preserve" y="902.3199" clip-path="url(#clipPath2)" font-family="sans-serif" stroke="none">symbol</text>
      <path fill="none" d="M920.4847 857.3669 L972.4798 857.3669" clip-path="url(#clipPath2)"/>
      <path d="M980.4798 857.3669 L968.4798 852.3669 L971.4798 857.3669 L968.4798 862.3669 Z" clip-path="url(#clipPath2)" stroke="none"/>
      <text x="936.0121" xml:space="preserve" y="849.8508" clip-path="url(#clipPath2)" font-family="sans-serif" stroke="none">error</text>
    </g>
  </g>
</svg>
