<?xml version="1.0" encoding="UTF-8"?><svg xmlns="http://www.w3.org/2000/svg" xmlns:xlink="http://www.w3.org/1999/xlink" fill-opacity="1" color-rendering="auto" color-interpolation="auto" text-rendering="auto" stroke="black" stroke-linecap="square" width="511" stroke-miterlimit="10" shape-rendering="auto" stroke-opacity="1" fill="black" stroke-dasharray="none" font-weight="normal" stroke-width="1" height="564" font-family="'Dialog'" font-style="normal" stroke-linejoin="miter" font-size="12px" stroke-dashoffset="0" image-rendering="auto">
  <!--Generated by ySVG 2.6-->
  <defs id="genericDefs"/>
  <g>
    <defs id="defs1">
      <linearGradient x1="-173.0397" gradientUnits="userSpaceOnUse" x2="-93.0397" y1="88.5" y2="128.5" id="linearGradient1" spreadMethod="reflect">
        <stop stop-opacity="1" stop-color="rgb(232,238,247)" offset="0%"/>
        <stop stop-opacity="1" stop-color="rgb(183,201,227)" offset="100%"/>
      </linearGradient>
      <linearGradient x1="-253.0397" gradientUnits="userSpaceOnUse" x2="-173.0397" y1="256.5" y2="296.5" id="linearGradient2" spreadMethod="reflect">
        <stop stop-opacity="1" stop-color="rgb(232,238,247)" offset="0%"/>
        <stop stop-opacity="1" stop-color="rgb(183,201,227)" offset="100%"/>
      </linearGradient>
      <linearGradient x1="-173.0397" gradientUnits="userSpaceOnUse" x2="-93.0397" y1="501" y2="541" id="linearGradient3" spreadMethod="reflect">
        <stop stop-opacity="1" stop-color="rgb(232,238,247)" offset="0%"/>
        <stop stop-opacity="1" stop-color="rgb(183,201,227)" offset="100%"/>
      </linearGradient>
      <linearGradient x1="-173.0397" gradientUnits="userSpaceOnUse" x2="-93.0397" y1="412.5" y2="452.5" id="linearGradient4" spreadMethod="reflect">
        <stop stop-opacity="1" stop-color="rgb(232,238,247)" offset="0%"/>
        <stop stop-opacity="1" stop-color="rgb(183,201,227)" offset="100%"/>
      </linearGradient>
      <linearGradient x1="69.2781" gradientUnits="userSpaceOnUse" x2="149.2781" y1="501" y2="541" id="linearGradient5" spreadMethod="reflect">
        <stop stop-opacity="1" stop-color="rgb(232,238,247)" offset="0%"/>
        <stop stop-opacity="1" stop-color="rgb(183,201,227)" offset="100%"/>
      </linearGradient>
      <linearGradient x1="-173.0397" gradientUnits="userSpaceOnUse" x2="-93.0397" y1="186.5" y2="226.5" id="linearGradient6" spreadMethod="reflect">
        <stop stop-opacity="1" stop-color="rgb(232,238,247)" offset="0%"/>
        <stop stop-opacity="1" stop-color="rgb(183,201,227)" offset="100%"/>
      </linearGradient>
      <linearGradient x1="-173.0397" gradientUnits="userSpaceOnUse" x2="-93.0397" y1="581.25" y2="621.25" id="linearGradient7" spreadMethod="reflect">
        <stop stop-opacity="1" stop-color="rgb(232,238,247)" offset="0%"/>
        <stop stop-opacity="1" stop-color="rgb(183,201,227)" offset="100%"/>
      </linearGradient>
      <linearGradient x1="-330.3576" gradientUnits="userSpaceOnUse" x2="-250.3576" y1="501" y2="541" id="linearGradient8" spreadMethod="reflect">
        <stop stop-opacity="1" stop-color="rgb(232,238,247)" offset="0%"/>
        <stop stop-opacity="1" stop-color="rgb(183,201,227)" offset="100%"/>
      </linearGradient>
      <linearGradient x1="-90.7219" gradientUnits="userSpaceOnUse" x2="-10.7219" y1="256.5" y2="296.5" id="linearGradient9" spreadMethod="reflect">
        <stop stop-opacity="1" stop-color="rgb(232,238,247)" offset="0%"/>
        <stop stop-opacity="1" stop-color="rgb(183,201,227)" offset="100%"/>
      </linearGradient>
      <linearGradient x1="-253.0397" gradientUnits="userSpaceOnUse" x2="-173.0397" y1="342.5" y2="382.5" id="linearGradient10" spreadMethod="reflect">
        <stop stop-opacity="1" stop-color="rgb(232,238,247)" offset="0%"/>
        <stop stop-opacity="1" stop-color="rgb(183,201,227)" offset="100%"/>
      </linearGradient>
      <linearGradient x1="-54.3808" gradientUnits="userSpaceOnUse" x2="25.6192" y1="501" y2="541" id="linearGradient11" spreadMethod="reflect">
        <stop stop-opacity="1" stop-color="rgb(232,238,247)" offset="0%"/>
        <stop stop-opacity="1" stop-color="rgb(183,201,227)" offset="100%"/>
      </linearGradient>
      <linearGradient x1="-90.7219" gradientUnits="userSpaceOnUse" x2="-10.7219" y1="342.5" y2="382.5" id="linearGradient12" spreadMethod="reflect">
        <stop stop-opacity="1" stop-color="rgb(232,238,247)" offset="0%"/>
        <stop stop-opacity="1" stop-color="rgb(183,201,227)" offset="100%"/>
      </linearGradient>
      <clipPath clipPathUnits="userSpaceOnUse" id="clipPath1">
        <path d="M0 0 L511 0 L511 564 L0 564 L0 0 Z"/>
      </clipPath>
      <clipPath clipPathUnits="userSpaceOnUse" id="clipPath2">
        <path d="M-346 73 L165 73 L165 637 L-346 637 L-346 73 Z"/>
      </clipPath>
    </defs>
    <g fill="white" text-rendering="geometricPrecision" shape-rendering="geometricPrecision" transform="translate(346,-73)" stroke="white">
      <rect x="-346" width="511" height="564" y="73" clip-path="url(#clipPath2)" stroke="none"/>
    </g>
    <g fill="url(#linearGradient1)" text-rendering="geometricPrecision" shape-rendering="geometricPrecision" transform="matrix(1,0,0,1,346,-73)" stroke="url(#linearGradient1)">
      <ellipse rx="40" ry="20" clip-path="url(#clipPath2)" cx="-133.0397" cy="108.5" stroke="none"/>
    </g>
    <g text-rendering="geometricPrecision" stroke-miterlimit="1.45" shape-rendering="geometricPrecision" transform="matrix(1,0,0,1,346,-73)" stroke-linecap="butt">
      <ellipse rx="40" fill="none" ry="20" clip-path="url(#clipPath2)" cx="-133.0397" cy="108.5"/>
      <text x="-152.4499" xml:space="preserve" y="113.156" clip-path="url(#clipPath2)" font-family="sans-serif" stroke="none">lookup</text>
    </g>
    <g fill="url(#linearGradient2)" text-rendering="geometricPrecision" shape-rendering="geometricPrecision" transform="matrix(1,0,0,1,346,-73)" stroke="url(#linearGradient2)">
      <rect x="-253.0397" width="80" height="40" y="256.5" clip-path="url(#clipPath2)" stroke="none"/>
    </g>
    <g text-rendering="geometricPrecision" stroke-miterlimit="1.45" shape-rendering="geometricPrecision" transform="matrix(1,0,0,1,346,-73)" stroke-linecap="butt">
      <rect fill="none" x="-253.0397" width="80" height="40" y="256.5" clip-path="url(#clipPath2)"/>
      <path fill="none" d="M-243.0397 256.5 L-243.0397 296.5 M-183.0397 256.5 L-183.0397 296.5 M-243.0397 256.5 Z" clip-path="url(#clipPath2)"/>
      <text x="-232.4499" xml:space="preserve" y="272.984" clip-path="url(#clipPath2)" font-family="sans-serif" stroke="none">lookup</text>
      <text x="-226.0118" xml:space="preserve" y="289.3281" clip-path="url(#clipPath2)" font-family="sans-serif" stroke="none">local</text>
    </g>
    <g fill="url(#linearGradient3)" text-rendering="geometricPrecision" shape-rendering="geometricPrecision" transform="matrix(1,0,0,1,346,-73)" stroke="url(#linearGradient3)">
      <path d="M-133.0397 501 L-93.0397 521 L-133.0397 541 L-173.0397 521 Z" stroke="none" clip-path="url(#clipPath2)"/>
    </g>
    <g text-rendering="geometricPrecision" stroke-miterlimit="1.45" shape-rendering="geometricPrecision" transform="matrix(1,0,0,1,346,-73)" stroke-linecap="butt">
      <path fill="none" d="M-133.0397 501 L-93.0397 521 L-133.0397 541 L-173.0397 521 Z" clip-path="url(#clipPath2)"/>
      <text x="-151.7359" xml:space="preserve" y="525.656" clip-path="url(#clipPath2)" font-family="sans-serif" stroke="none">count?</text>
    </g>
    <g fill="url(#linearGradient4)" text-rendering="geometricPrecision" shape-rendering="geometricPrecision" transform="matrix(1,0,0,1,346,-73)" stroke="url(#linearGradient4)">
      <path d="M-173.0397 412.5 L-93.0397 412.5 L-93.0397 452.5 L-173.0397 452.5 Z" stroke="none" clip-path="url(#clipPath2)"/>
    </g>
    <g text-rendering="geometricPrecision" stroke-miterlimit="1.45" shape-rendering="geometricPrecision" transform="matrix(1,0,0,1,346,-73)" stroke-linecap="butt">
      <path fill="none" d="M-173.0397 412.5 L-93.0397 412.5 L-93.0397 452.5 L-173.0397 452.5 Z" clip-path="url(#clipPath2)"/>
      <text x="-151.0759" xml:space="preserve" y="428.984" clip-path="url(#clipPath2)" font-family="sans-serif" stroke="none">collect</text>
      <text x="-156.3259" xml:space="preserve" y="445.3281" clip-path="url(#clipPath2)" font-family="sans-serif" stroke="none">symbols</text>
    </g>
    <g fill="url(#linearGradient5)" text-rendering="geometricPrecision" shape-rendering="geometricPrecision" transform="matrix(1,0,0,1,346,-73)" stroke="url(#linearGradient5)">
      <rect x="69.2781" y="501" clip-path="url(#clipPath2)" width="80" rx="20" ry="20" height="40" stroke="none"/>
    </g>
    <g text-rendering="geometricPrecision" stroke-miterlimit="1.45" shape-rendering="geometricPrecision" transform="matrix(1,0,0,1,346,-73)" stroke-linecap="butt">
      <rect x="69.2781" y="501" clip-path="url(#clipPath2)" fill="none" width="80" rx="20" ry="20" height="40"/>
      <text x="77.4539" xml:space="preserve" y="525.656" clip-path="url(#clipPath2)" font-family="sans-serif" stroke="none">ambiguous</text>
    </g>
    <g fill="url(#linearGradient6)" text-rendering="geometricPrecision" shape-rendering="geometricPrecision" transform="matrix(1,0,0,1,346,-73)" stroke="url(#linearGradient6)">
      <circle r="20" clip-path="url(#clipPath2)" cx="-133.0397" cy="206.5" stroke="none"/>
    </g>
    <g text-rendering="geometricPrecision" stroke-miterlimit="1.45" shape-rendering="geometricPrecision" transform="matrix(1,0,0,1,346,-73)" stroke-linecap="butt">
      <circle fill="none" r="20" clip-path="url(#clipPath2)" cx="-133.0397" cy="206.5"/>
      <text x="-139.5018" xml:space="preserve" y="211.156" clip-path="url(#clipPath2)" font-family="sans-serif" stroke="none">all</text>
    </g>
    <g fill="url(#linearGradient7)" text-rendering="geometricPrecision" shape-rendering="geometricPrecision" transform="matrix(1,0,0,1,346,-73)" stroke="url(#linearGradient7)">
      <rect x="-173.0397" y="581.25" clip-path="url(#clipPath2)" width="80" rx="20" ry="20" height="40" stroke="none"/>
    </g>
    <g text-rendering="geometricPrecision" stroke-miterlimit="1.45" shape-rendering="geometricPrecision" transform="matrix(1,0,0,1,346,-73)" stroke-linecap="butt">
      <rect x="-173.0397" y="581.25" clip-path="url(#clipPath2)" fill="none" width="80" rx="20" ry="20" height="40"/>
      <text x="-139.8738" xml:space="preserve" y="605.906" clip-path="url(#clipPath2)" font-family="sans-serif" stroke="none">ok</text>
    </g>
    <g fill="url(#linearGradient8)" text-rendering="geometricPrecision" shape-rendering="geometricPrecision" transform="matrix(1,0,0,1,346,-73)" stroke="url(#linearGradient8)">
      <rect x="-330.3576" y="501" clip-path="url(#clipPath2)" width="80" rx="20" ry="20" height="40" stroke="none"/>
    </g>
    <g text-rendering="geometricPrecision" stroke-miterlimit="1.45" shape-rendering="geometricPrecision" transform="matrix(1,0,0,1,346,-73)" stroke-linecap="butt">
      <rect x="-330.3576" y="501" clip-path="url(#clipPath2)" fill="none" width="80" rx="20" ry="20" height="40"/>
      <text x="-318.2218" xml:space="preserve" y="525.656" clip-path="url(#clipPath2)" font-family="sans-serif" stroke="none">not found</text>
    </g>
    <g fill="url(#linearGradient9)" text-rendering="geometricPrecision" shape-rendering="geometricPrecision" transform="matrix(1,0,0,1,346,-73)" stroke="url(#linearGradient9)">
      <rect x="-90.7219" width="80" height="40" y="256.5" clip-path="url(#clipPath2)" stroke="none"/>
    </g>
    <g text-rendering="geometricPrecision" stroke-miterlimit="1.45" shape-rendering="geometricPrecision" transform="matrix(1,0,0,1,346,-73)" stroke-linecap="butt">
      <rect fill="none" x="-90.7219" width="80" height="40" y="256.5" clip-path="url(#clipPath2)"/>
      <path fill="none" d="M-80.7219 256.5 L-80.7219 296.5 M-20.7219 256.5 L-20.7219 296.5 M-80.7219 256.5 Z" clip-path="url(#clipPath2)"/>
      <text x="-70.132" xml:space="preserve" y="272.984" clip-path="url(#clipPath2)" font-family="sans-serif" stroke="none">lookup</text>
      <text x="-68.194" xml:space="preserve" y="289.3281" clip-path="url(#clipPath2)" font-family="sans-serif" stroke="none">global</text>
    </g>
    <g fill="url(#linearGradient10)" text-rendering="geometricPrecision" shape-rendering="geometricPrecision" transform="matrix(1,0,0,1,346,-73)" stroke="url(#linearGradient10)">
      <rect x="-253.0397" width="80" height="40" y="342.5" clip-path="url(#clipPath2)" stroke="none"/>
    </g>
    <g text-rendering="geometricPrecision" stroke-miterlimit="1.45" shape-rendering="geometricPrecision" transform="matrix(1,0,0,1,346,-73)" stroke-linecap="butt">
      <rect fill="none" x="-253.0397" width="80" height="40" y="342.5" clip-path="url(#clipPath2)"/>
      <path fill="none" d="M-243.0397 342.5 L-243.0397 382.5 M-183.0397 342.5 L-183.0397 382.5 M-243.0397 342.5 Z" clip-path="url(#clipPath2)"/>
      <text x="-230.1759" xml:space="preserve" y="358.984" clip-path="url(#clipPath2)" font-family="sans-serif" stroke="none">follow</text>
      <text x="-225.7418" xml:space="preserve" y="375.3281" clip-path="url(#clipPath2)" font-family="sans-serif" stroke="none">alias</text>
    </g>
    <g fill="url(#linearGradient11)" text-rendering="geometricPrecision" shape-rendering="geometricPrecision" transform="matrix(1,0,0,1,346,-73)" stroke="url(#linearGradient11)">
      <path d="M-14.3808 501 L25.6192 521 L-14.3808 541 L-54.3808 521 Z" stroke="none" clip-path="url(#clipPath2)"/>
    </g>
    <g text-rendering="geometricPrecision" stroke-miterlimit="1.45" shape-rendering="geometricPrecision" transform="matrix(1,0,0,1,346,-73)" stroke-linecap="butt">
      <path fill="none" d="M-14.3808 501 L25.6192 521 L-14.3808 541 L-54.3808 521 Z" clip-path="url(#clipPath2)"/>
      <text x="-32.2189" xml:space="preserve" y="525.656" clip-path="url(#clipPath2)" font-family="sans-serif" stroke="none">same?</text>
    </g>
    <g fill="url(#linearGradient12)" text-rendering="geometricPrecision" shape-rendering="geometricPrecision" transform="matrix(1,0,0,1,346,-73)" stroke="url(#linearGradient12)">
      <rect x="-90.7219" width="80" height="40" y="342.5" clip-path="url(#clipPath2)" stroke="none"/>
    </g>
    <g text-rendering="geometricPrecision" stroke-miterlimit="1.45" shape-rendering="geometricPrecision" transform="matrix(1,0,0,1,346,-73)" stroke-linecap="butt">
      <rect fill="none" x="-90.7219" width="80" height="40" y="342.5" clip-path="url(#clipPath2)"/>
      <path fill="none" d="M-80.7219 342.5 L-80.7219 382.5 M-20.7219 342.5 L-20.7219 382.5 M-80.7219 342.5 Z" clip-path="url(#clipPath2)"/>
      <text x="-67.858" xml:space="preserve" y="358.984" clip-path="url(#clipPath2)" font-family="sans-serif" stroke="none">follow</text>
      <text x="-63.4239" xml:space="preserve" y="375.3281" clip-path="url(#clipPath2)" font-family="sans-serif" stroke="none">alias</text>
    </g>
    <g text-rendering="geometricPrecision" stroke-miterlimit="1.45" shape-rendering="geometricPrecision" transform="matrix(1,0,0,1,346,-73)" stroke-linecap="butt">
      <path fill="none" d="M-133.0397 452.5076 L-133.0397 492.9673" clip-path="url(#clipPath2)"/>
    </g>
    <g text-rendering="geometricPrecision" stroke-miterlimit="1.45" shape-rendering="geometricPrecision" transform="matrix(1,0,0,1,346,-73)" stroke-linecap="butt">
      <path d="M-133.0397 500.9673 L-128.0397 488.9673 L-133.0397 491.9673 L-138.0397 488.9673 Z" stroke="none" clip-path="url(#clipPath2)"/>
      <text x="-183.6121" xml:space="preserve" y="481.406" clip-path="url(#clipPath2)" font-family="sans-serif" stroke="none">symbols</text>
      <path fill="none" d="M-133.0397 128.4541 L-133.0397 178.4931" clip-path="url(#clipPath2)"/>
      <path d="M-133.0397 186.4931 L-128.0397 174.4931 L-133.0397 177.4931 L-138.0397 174.4931 Z" clip-path="url(#clipPath2)" stroke="none"/>
      <text x="-169.1759" xml:space="preserve" y="162.156" clip-path="url(#clipPath2)" font-family="sans-serif" stroke="none">name</text>
      <path fill="none" d="M-153.0007 206.5 L-203.0397 206.5 L-207.4147 207.125 L-210.5397 209 L-212.4147 212.125 L-213.0397 216.5 L-213.0397 248.5049" clip-path="url(#clipPath2)"/>
      <path d="M-213.0397 256.5049 L-208.0397 244.5049 L-213.0397 247.5049 L-218.0397 244.5049 Z" clip-path="url(#clipPath2)" stroke="none"/>
      <path fill="none" d="M-133.0397 541.0233 L-133.0397 573.2234" clip-path="url(#clipPath2)"/>
      <path d="M-133.0397 581.2234 L-128.0397 569.2234 L-133.0397 572.2234 L-138.0397 569.2234 Z" clip-path="url(#clipPath2)" stroke="none"/>
      <text x="-177.864" xml:space="preserve" y="565.781" clip-path="url(#clipPath2)" font-family="sans-serif" stroke="none">symbol</text>
      <path fill="none" d="M-173.0221 521 L-242.3387 521" clip-path="url(#clipPath2)"/>
      <path d="M-250.3387 521 L-238.3387 526 L-241.3387 521 L-238.3387 516 Z" clip-path="url(#clipPath2)" stroke="none"/>
      <text x="-215.1307" xml:space="preserve" y="513.4839" clip-path="url(#clipPath2)" font-family="sans-serif" stroke="none">0</text>
      <path fill="none" d="M-113.0632 206.5 L-60.7219 206.5 L-56.3469 207.125 L-53.2219 209 L-51.3469 212.125 L-50.7219 216.5 L-50.7219 248.5049" clip-path="url(#clipPath2)"/>
      <path d="M-50.7219 256.5049 L-45.7219 244.5049 L-50.7219 247.5049 L-55.7219 244.5049 Z" clip-path="url(#clipPath2)" stroke="none"/>
      <path fill="none" d="M-213.0397 296.5303 L-213.0397 334.4965" clip-path="url(#clipPath2)"/>
      <path d="M-213.0397 342.4965 L-208.0397 330.4965 L-213.0397 333.4965 L-218.0397 330.4965 Z" clip-path="url(#clipPath2)" stroke="none"/>
      <text x="-292.1363" xml:space="preserve" y="324.156" clip-path="url(#clipPath2)" font-family="sans-serif" stroke="none">local symbol?</text>
      <path fill="none" d="M-213.0397 382.4951 L-213.0397 422.5 L-212.4147 426.875 L-210.5397 430 L-207.4147 431.875 L-203.0397 432.5 L-181.0007 432.5" clip-path="url(#clipPath2)"/>
      <path d="M-173.0007 432.5 L-185.0007 427.5 L-182.0007 432.5 L-185.0007 437.5 Z" clip-path="url(#clipPath2)" stroke="none"/>
      <text x="-263.0721" xml:space="preserve" y="416.7185" clip-path="url(#clipPath2)" font-family="sans-serif" stroke="none">symbol?</text>
      <path fill="none" d="M-93.0329 521 L-62.3597 521" clip-path="url(#clipPath2)"/>
      <path d="M-54.3597 521 L-66.3597 516 L-63.3597 521 L-66.3597 526 Z" clip-path="url(#clipPath2)" stroke="none"/>
      <text x="-82.1343" xml:space="preserve" y="513.4839" clip-path="url(#clipPath2)" font-family="sans-serif" stroke="none">&gt; 1</text>
      <path fill="none" d="M25.6212 521 L61.2878 521" clip-path="url(#clipPath2)"/>
      <path d="M69.2878 521 L57.2878 516 L60.2878 521 L57.2878 526 Z" clip-path="url(#clipPath2)" stroke="none"/>
      <text x="40.1106" xml:space="preserve" y="513.4839" clip-path="url(#clipPath2)" font-family="sans-serif" stroke="none">no</text>
      <path fill="none" d="M-14.3808 541.0233 L-14.3808 591.25 L-15.0058 595.625 L-16.8808 598.75 L-20.0058 600.625 L-24.3808 601.25 L-85.0329 601.25" clip-path="url(#clipPath2)"/>
      <path d="M-93.0329 601.25 L-81.0329 606.25 L-84.0329 601.25 L-81.0329 596.25 Z" clip-path="url(#clipPath2)" stroke="none"/>
      <text x="-69.5599" xml:space="preserve" y="593.7339" clip-path="url(#clipPath2)" font-family="sans-serif" stroke="none">symbol</text>
      <path fill="none" d="M-50.7219 296.5303 L-50.7219 334.4965" clip-path="url(#clipPath2)"/>
      <path d="M-50.7219 342.4965 L-45.7219 330.4965 L-50.7219 333.4965 L-55.7219 330.4965 Z" clip-path="url(#clipPath2)" stroke="none"/>
      <text x="-138.8185" xml:space="preserve" y="324.156" clip-path="url(#clipPath2)" font-family="sans-serif" stroke="none">global symbol?</text>
      <path fill="none" d="M-50.7219 382.4951 L-50.7219 422.5 L-51.3469 426.875 L-53.2219 430 L-56.3469 431.875 L-60.7219 432.5 L-85.0464 432.5" clip-path="url(#clipPath2)"/>
      <path d="M-93.0464 432.5 L-81.0464 437.5 L-84.0464 432.5 L-81.0464 427.5 Z" clip-path="url(#clipPath2)" stroke="none"/>
      <text x="-46.7219" xml:space="preserve" y="416.7185" clip-path="url(#clipPath2)" font-family="sans-serif" stroke="none">global symbol?</text>
    </g>
  </g>
</svg>
