<?xml version="1.0" encoding="UTF-8"?><svg xmlns="http://www.w3.org/2000/svg" xmlns:xlink="http://www.w3.org/1999/xlink" fill-opacity="1" color-rendering="auto" color-interpolation="auto" text-rendering="auto" stroke="black" stroke-linecap="square" width="579" stroke-miterlimit="10" shape-rendering="auto" stroke-opacity="1" fill="black" stroke-dasharray="none" font-weight="normal" stroke-width="1" height="450" font-family="'Dialog'" font-style="normal" stroke-linejoin="miter" font-size="12px" stroke-dashoffset="0" image-rendering="auto">
  <!--Generated by ySVG 2.6-->
  <defs id="genericDefs"/>
  <g>
    <defs id="defs1">
      <clipPath clipPathUnits="userSpaceOnUse" id="clipPath1">
        <path d="M0 0 L579 0 L579 450 L0 450 L0 0 Z"/>
      </clipPath>
      <clipPath clipPathUnits="userSpaceOnUse" id="clipPath2">
        <path d="M-15 -15 L564 -15 L564 435 L-15 435 L-15 -15 Z"/>
      </clipPath>
    </defs>
    <g fill="white" text-rendering="geometricPrecision" shape-rendering="geometricPrecision" transform="translate(15,15)" stroke="white">
      <rect x="-15" width="579" height="450" y="-15" clip-path="url(#clipPath2)" stroke="none"/>
    </g>
    <g fill="rgb(255,204,0)" text-rendering="geometricPrecision" shape-rendering="geometricPrecision" transform="matrix(1,0,0,1,15,15)" stroke="rgb(255,204,0)">
      <circle r="41.5" clip-path="url(#clipPath2)" cx="106.4115" cy="344.3709" stroke="none"/>
    </g>
    <g text-rendering="geometricPrecision" stroke-miterlimit="1.45" shape-rendering="geometricPrecision" transform="matrix(1,0,0,1,15,15)" stroke-linecap="butt">
      <circle fill="none" r="41.5" clip-path="url(#clipPath2)" cx="106.4115" cy="344.3709"/>
      <text x="96.8197" xml:space="preserve" y="348.5252" clip-path="url(#clipPath2)" font-family="sans-serif" stroke="none">Init</text>
    </g>
    <g fill="rgb(255,204,0)" text-rendering="geometricPrecision" shape-rendering="geometricPrecision" transform="matrix(1,0,0,1,15,15)" stroke="rgb(255,204,0)">
      <circle r="41.5" clip-path="url(#clipPath2)" cx="252.2665" cy="41.5" stroke="none"/>
    </g>
    <g text-rendering="geometricPrecision" stroke-miterlimit="1.45" shape-rendering="geometricPrecision" transform="matrix(1,0,0,1,15,15)" stroke-linecap="butt">
      <circle fill="none" r="41.5" clip-path="url(#clipPath2)" cx="252.2665" cy="41.5"/>
      <text x="226.4178" xml:space="preserve" y="45.6543" clip-path="url(#clipPath2)" font-family="sans-serif" stroke="none">Function</text>
    </g>
    <g fill="rgb(255,204,0)" text-rendering="geometricPrecision" shape-rendering="geometricPrecision" transform="matrix(1,0,0,1,15,15)" stroke="rgb(255,204,0)">
      <circle r="41.5" clip-path="url(#clipPath2)" cx="106.4115" cy="74.7904" stroke="none"/>
    </g>
    <g text-rendering="geometricPrecision" stroke-miterlimit="1.45" shape-rendering="geometricPrecision" transform="matrix(1,0,0,1,15,15)" stroke-linecap="butt">
      <circle fill="none" r="41.5" clip-path="url(#clipPath2)" cx="106.4115" cy="74.7904"/>
      <text x="84.5942" xml:space="preserve" y="78.9447" clip-path="url(#clipPath2)" font-family="sans-serif" stroke="none">Module</text>
    </g>
    <g fill="rgb(255,204,0)" text-rendering="geometricPrecision" shape-rendering="geometricPrecision" transform="matrix(1,0,0,1,15,15)" stroke="rgb(255,204,0)">
      <circle r="41.5" clip-path="url(#clipPath2)" cx="369.233" cy="134.7777" stroke="none"/>
    </g>
    <g text-rendering="geometricPrecision" stroke-miterlimit="1.45" shape-rendering="geometricPrecision" transform="matrix(1,0,0,1,15,15)" stroke-linecap="butt">
      <circle fill="none" r="41.5" clip-path="url(#clipPath2)" cx="369.233" cy="134.7777"/>
      <text x="348.4938" xml:space="preserve" y="138.932" clip-path="url(#clipPath2)" font-family="sans-serif" stroke="none">Source</text>
    </g>
    <g fill="rgb(255,204,0)" text-rendering="geometricPrecision" shape-rendering="geometricPrecision" transform="matrix(1,0,0,1,15,15)" stroke="rgb(255,204,0)">
      <circle r="41.5" clip-path="url(#clipPath2)" cx="41.5" cy="209.5807" stroke="none"/>
    </g>
    <g text-rendering="geometricPrecision" stroke-miterlimit="1.45" shape-rendering="geometricPrecision" transform="matrix(1,0,0,1,15,15)" stroke-linecap="butt">
      <circle fill="none" r="41.5" clip-path="url(#clipPath2)" cx="41.5" cy="209.5807"/>
      <text x="7.5508" xml:space="preserve" y="213.7349" clip-path="url(#clipPath2)" font-family="sans-serif" stroke="none">Workbench</text>
    </g>
    <g fill="rgb(255,204,0)" text-rendering="geometricPrecision" shape-rendering="geometricPrecision" transform="matrix(1,0,0,1,15,15)" stroke="rgb(255,204,0)">
      <circle r="41.5" clip-path="url(#clipPath2)" cx="369.233" cy="284.3836" stroke="none"/>
    </g>
    <g text-rendering="geometricPrecision" stroke-miterlimit="1.45" shape-rendering="geometricPrecision" transform="matrix(1,0,0,1,15,15)" stroke-linecap="butt">
      <circle fill="none" r="41.5" clip-path="url(#clipPath2)" cx="369.233" cy="284.3836"/>
      <text x="354.0865" xml:space="preserve" y="288.5379" clip-path="url(#clipPath2)" font-family="sans-serif" stroke="none">Body</text>
    </g>
    <g fill="rgb(255,204,0)" text-rendering="geometricPrecision" shape-rendering="geometricPrecision" transform="matrix(1,0,0,1,15,15)" stroke="rgb(255,204,0)">
      <circle r="41.5" clip-path="url(#clipPath2)" cx="252.2665" cy="377.6613" stroke="none"/>
    </g>
    <g text-rendering="geometricPrecision" stroke-miterlimit="1.45" shape-rendering="geometricPrecision" transform="matrix(1,0,0,1,15,15)" stroke-linecap="butt">
      <circle fill="none" r="41.5" clip-path="url(#clipPath2)" cx="252.2665" cy="377.6613"/>
      <text x="241.0663" xml:space="preserve" y="381.8156" clip-path="url(#clipPath2)" font-family="sans-serif" stroke="none">Call</text>
    </g>
    <g fill="rgb(153,204,0)" text-rendering="geometricPrecision" shape-rendering="geometricPrecision" transform="matrix(1,0,0,1,15,15)" stroke="rgb(153,204,0)">
      <circle r="15" clip-path="url(#clipPath2)" cx="533.7771" cy="55.5375" stroke="none"/>
    </g>
    <g text-rendering="geometricPrecision" stroke-miterlimit="1.45" shape-rendering="geometricPrecision" transform="matrix(1,0,0,1,15,15)" stroke-linecap="butt">
      <circle fill="none" r="15" clip-path="url(#clipPath2)" cx="533.7771" cy="55.5375"/>
      <path fill="none" d="M146.871 65.5558 L204.0075 52.5148" clip-path="url(#clipPath2)"/>
      <path d="M211.807 50.7346 L198.9952 48.5302 L203.0326 52.7373 L201.2204 58.2795 Z" clip-path="url(#clipPath2)" stroke="none"/>
      <path fill="none" d="M328.7735 125.5431 L154.6705 85.8052" clip-path="url(#clipPath2)"/>
      <path d="M146.871 84.0251 L157.4576 91.5699 L155.6454 86.0277 L159.6828 81.8207 Z" clip-path="url(#clipPath2)" stroke="none"/>
      <path fill="none" d="M336.787 108.9029 L290.9671 72.3627" clip-path="url(#clipPath2)"/>
      <path d="M284.7125 67.3748 L290.977 78.7659 L291.749 72.9862 L297.2119 70.9475 Z" clip-path="url(#clipPath2)" stroke="none"/>
      <path fill="none" d="M328.7735 144.0123 L89.7589 198.5659" clip-path="url(#clipPath2)"/>
      <path d="M81.9595 200.346 L94.7713 202.5504 L90.7339 198.3433 L92.546 192.8011 Z" clip-path="url(#clipPath2)" stroke="none"/>
      <path fill="none" d="M88.4054 112.1806 L62.9772 164.9827" clip-path="url(#clipPath2)"/>
      <path d="M59.5062 172.1904 L69.2176 163.5482 L63.4111 164.0817 L60.2079 159.2094 Z" clip-path="url(#clipPath2)" stroke="none"/>
      <path fill="none" d="M59.5062 246.9709 L84.9343 299.7729" clip-path="url(#clipPath2)"/>
      <path d="M88.4054 306.9807 L87.7036 293.9996 L84.5004 298.8719 L78.6939 298.3384 Z" clip-path="url(#clipPath2)" stroke="none"/>
      <path fill="none" d="M73.946 183.7058 L183.4458 96.3827 M191.2641 90.1478 L213.5658 72.3627" clip-path="url(#clipPath2)"/>
      <path d="M219.8205 67.3748 L207.321 70.9475 L212.784 72.9862 L213.5559 78.7659 Z" clip-path="url(#clipPath2)" stroke="none"/>
      <path fill="none" d="M369.233 176.2777 L369.233 234.8836" clip-path="url(#clipPath2)"/>
      <path d="M369.233 242.8836 L374.233 230.8836 L369.233 233.8836 L364.233 230.8836 Z" clip-path="url(#clipPath2)" stroke="none"/>
      <path fill="none" d="M146.871 335.1363 L320.9741 295.3984" clip-path="url(#clipPath2)"/>
      <path d="M328.7735 293.6182 L315.9618 291.4138 L319.9991 295.6209 L318.187 301.1631 Z" clip-path="url(#clipPath2)" stroke="none"/>
      <path fill="none" d="M81.9595 218.8153 L320.9741 273.3688" clip-path="url(#clipPath2)"/>
      <path d="M328.7735 275.149 L318.187 267.6041 L319.9992 273.1463 L315.9618 277.3534 Z" clip-path="url(#clipPath2)" stroke="none"/>
      <path fill="none" d="M389.983 242.8836 L389.983 227.8836 L395.983 221.8836 L425.733 221.8836 L431.733 227.8836 L431.733 257.6336 L425.733 263.6336 L418.733 263.6336" clip-path="url(#clipPath2)"/>
      <path d="M410.733 263.6336 L422.733 268.6336 L419.733 263.6336 L422.733 258.6336 Z" clip-path="url(#clipPath2)" stroke="none"/>
      <path fill="none" d="M270.2726 78.8902 L286.1202 111.7981 M290.4591 120.8078 L302.1521 145.0885 M306.4909 154.0982 L347.7558 239.7856" clip-path="url(#clipPath2)"/>
      <path d="M351.2269 246.9934 L350.5251 234.0123 L347.3219 238.8846 L341.5154 238.3512 Z" clip-path="url(#clipPath2)" stroke="none"/>
      <path fill="none" d="M146.871 353.6055 L204.0075 366.6465" clip-path="url(#clipPath2)"/>
      <path d="M211.807 368.4267 L201.2204 360.8818 L203.0326 366.424 L198.9952 370.6311 Z" clip-path="url(#clipPath2)" stroke="none"/>
      <path fill="none" d="M340.1342 313.9844 L293.8527 350.8926" clip-path="url(#clipPath2)"/>
      <path d="M287.5981 355.8806 L300.0975 352.3078 L294.6345 350.2691 L293.8626 344.4895 Z" clip-path="url(#clipPath2)" stroke="none"/>
      <path fill="none" d="M281.3653 348.0605 L327.6468 311.1523" clip-path="url(#clipPath2)"/>
      <path d="M333.9015 306.1643 L321.402 309.7371 L326.865 311.7758 L327.6369 317.5554 Z" clip-path="url(#clipPath2)" stroke="none"/>
      <path fill="none" d="M520.2626 62.0457 L413.831 113.3005" clip-path="url(#clipPath2)"/>
      <path d="M406.6232 116.7715 L419.6043 116.0698 L414.732 112.8666 L415.2654 107.0601 Z" clip-path="url(#clipPath2)" stroke="none"/>
    </g>
  </g>
</svg>
