<?xml version="1.0" encoding="UTF-8"?><svg xmlns="http://www.w3.org/2000/svg" xmlns:xlink="http://www.w3.org/1999/xlink" fill-opacity="1" color-rendering="auto" color-interpolation="auto" text-rendering="auto" stroke="black" stroke-linecap="square" width="520" stroke-miterlimit="10" shape-rendering="auto" stroke-opacity="1" fill="black" stroke-dasharray="none" font-weight="normal" stroke-width="1" height="750" font-family="'Dialog'" font-style="normal" stroke-linejoin="miter" font-size="12px" stroke-dashoffset="0" image-rendering="auto">
  <!--Generated by ySVG 2.6-->
  <defs id="genericDefs"/>
  <g>
    <defs id="defs1">
      <clipPath clipPathUnits="userSpaceOnUse" id="clipPath1">
        <path d="M0 0 L520 0 L520 750 L0 750 L0 0 Z"/>
      </clipPath>
      <clipPath clipPathUnits="userSpaceOnUse" id="clipPath2">
        <path d="M367 104 L887 104 L887 854 L367 854 L367 104 Z"/>
      </clipPath>
    </defs>
    <g fill="white" text-rendering="geometricPrecision" shape-rendering="geometricPrecision" transform="translate(-367,-104)" stroke="white">
      <rect x="367" width="520" height="750" y="104" clip-path="url(#clipPath2)" stroke="none"/>
    </g>
    <g fill="rgb(255,204,0)" text-rendering="geometricPrecision" shape-rendering="geometricPrecision" transform="matrix(1,0,0,1,-367,-104)" stroke="rgb(255,204,0)">
      <rect x="434.2" width="114" height="84.4" y="410.6" clip-path="url(#clipPath2)" stroke="none"/>
    </g>
    <g text-rendering="geometricPrecision" stroke-miterlimit="1.45" shape-rendering="geometricPrecision" transform="matrix(1,0,0,1,-367,-104)" stroke-linecap="butt">
      <rect fill="none" x="434.2" width="114" height="84.4" y="410.6" clip-path="url(#clipPath2)"/>
      <text x="449.0917" xml:space="preserve" y="432.9398" clip-path="url(#clipPath2)" font-family="sans-serif" stroke="none">put arguments</text>
      <text x="450.8137" xml:space="preserve" y="449.284" clip-path="url(#clipPath2)" font-family="sans-serif" stroke="none">into propertes</text>
      <text x="453.1837" xml:space="preserve" y="465.6281" clip-path="url(#clipPath2)" font-family="sans-serif" stroke="none">(if part of init </text>
      <text x="456.6038" xml:space="preserve" y="481.9722" clip-path="url(#clipPath2)" font-family="sans-serif" stroke="none">parameters)</text>
    </g>
    <g fill="rgb(153,204,0)" text-rendering="geometricPrecision" shape-rendering="geometricPrecision" transform="matrix(1,0,0,1,-367,-104)" stroke="rgb(153,204,0)">
      <circle r="15" clip-path="url(#clipPath2)" cx="698" cy="159.2" stroke="none"/>
    </g>
    <g text-rendering="geometricPrecision" stroke-miterlimit="1.45" shape-rendering="geometricPrecision" transform="matrix(1,0,0,1,-367,-104)" stroke-linecap="butt">
      <circle fill="none" r="15" clip-path="url(#clipPath2)" cx="698" cy="159.2"/>
      <text x="655.6997" xml:space="preserve" y="134.684" clip-path="url(#clipPath2)" font-family="sans-serif" stroke="none">call workbench</text>
    </g>
    <g fill="rgb(255,204,0)" text-rendering="geometricPrecision" shape-rendering="geometricPrecision" transform="matrix(1,0,0,1,-367,-104)" stroke="rgb(255,204,0)">
      <rect x="641" width="114" height="30" y="223.2" clip-path="url(#clipPath2)" stroke="none"/>
    </g>
    <g text-rendering="geometricPrecision" stroke-miterlimit="1.45" shape-rendering="geometricPrecision" transform="matrix(1,0,0,1,-367,-104)" stroke-linecap="butt">
      <rect fill="none" x="641" width="114" height="30" y="223.2" clip-path="url(#clipPath2)"/>
      <text x="645.8296" xml:space="preserve" y="242.856" clip-path="url(#clipPath2)" font-family="sans-serif" stroke="none">create stack frame</text>
    </g>
    <g fill="rgb(255,204,0)" text-rendering="geometricPrecision" shape-rendering="geometricPrecision" transform="matrix(1,0,0,1,-367,-104)" stroke="rgb(255,204,0)">
      <rect x="634.8" width="114" height="54" y="655.6" clip-path="url(#clipPath2)" stroke="none"/>
    </g>
    <g text-rendering="geometricPrecision" stroke-miterlimit="1.45" shape-rendering="geometricPrecision" transform="matrix(1,0,0,1,-367,-104)" stroke-linecap="butt">
      <rect fill="none" x="634.8" width="114" height="54" y="655.6" clip-path="url(#clipPath2)"/>
      <text x="669.9898" xml:space="preserve" y="679.084" clip-path="url(#clipPath2)" font-family="sans-serif" stroke="none">process</text>
      <text x="678.2159" xml:space="preserve" y="695.4281" clip-path="url(#clipPath2)" font-family="sans-serif" stroke="none">code</text>
    </g>
    <g fill="rgb(255,204,0)" text-rendering="geometricPrecision" shape-rendering="geometricPrecision" transform="matrix(1,0,0,1,-367,-104)" stroke="rgb(255,204,0)">
      <path d="M682.9994 365.6003 L697.9994 350.6003 L712.9994 365.6003 L697.9994 380.6003 Z" fill-rule="evenodd" clip-path="url(#clipPath2)" stroke="none"/>
    </g>
    <g text-rendering="geometricPrecision" stroke-miterlimit="1.45" shape-rendering="geometricPrecision" transform="matrix(1,0,0,1,-367,-104)" stroke-linecap="butt">
      <path fill="none" d="M682.9994 365.6003 L697.9994 350.6003 L712.9994 365.6003 L697.9994 380.6003 Z" fill-rule="evenodd" clip-path="url(#clipPath2)"/>
    </g>
    <g fill="rgb(255,204,0)" text-rendering="geometricPrecision" shape-rendering="geometricPrecision" transform="matrix(1,0,0,1,-367,-104)" stroke="rgb(255,204,0)">
      <rect x="757.9" width="114" height="54" y="425.8" clip-path="url(#clipPath2)" stroke="none"/>
    </g>
    <g text-rendering="geometricPrecision" stroke-miterlimit="1.45" shape-rendering="geometricPrecision" transform="matrix(1,0,0,1,-367,-104)" stroke-linecap="butt">
      <rect fill="none" x="757.9" width="114" height="54" y="425.8" clip-path="url(#clipPath2)"/>
      <text x="770.9797" xml:space="preserve" y="449.284" clip-path="url(#clipPath2)" font-family="sans-serif" stroke="none">put parameters</text>
      <text x="774.5137" xml:space="preserve" y="465.6281" clip-path="url(#clipPath2)" font-family="sans-serif" stroke="none">into propertes</text>
    </g>
    <g fill="white" text-rendering="geometricPrecision" shape-rendering="geometricPrecision" transform="matrix(1,0,0,1,-367,-104)" stroke="white">
      <path d="M655.7 410.6 L712.9 410.6 L712.9 425.6 L727.9 425.6 L727.9 567 L655.7 567 Z" stroke="none" clip-path="url(#clipPath2)"/>
      <path d="M712.9 410.6 L712.9 425.6 L727.9 425.6 Z" clip-path="url(#clipPath2)" fill-rule="evenodd" stroke="none"/>
    </g>
    <g text-rendering="geometricPrecision" stroke-miterlimit="1.45" shape-rendering="geometricPrecision" transform="matrix(1,0,0,1,-367,-104)" stroke-linecap="butt">
      <path fill="none" d="M655.7 410.6 L712.9 410.6 L712.9 425.6 L727.9 425.6 L727.9 567 L655.7 567 Z" clip-path="url(#clipPath2)"/>
      <path fill="none" d="M712.9 410.6 L712.9 425.6 L727.9 425.6 Z" clip-path="url(#clipPath2)" fill-rule="evenodd"/>
      <text x="662.4778" xml:space="preserve" y="493.456" clip-path="url(#clipPath2)" font-family="sans-serif" stroke="none">properties</text>
    </g>
    <g fill="rgb(255,204,0)" text-rendering="geometricPrecision" shape-rendering="geometricPrecision" transform="matrix(1,0,0,1,-367,-104)" stroke="rgb(255,204,0)">
      <path d="M476.2002 620.7999 L491.2002 605.7999 L506.2002 620.7999 L491.2002 635.7999 Z" fill-rule="evenodd" clip-path="url(#clipPath2)" stroke="none"/>
    </g>
    <g text-rendering="geometricPrecision" stroke-miterlimit="1.45" shape-rendering="geometricPrecision" transform="matrix(1,0,0,1,-367,-104)" stroke-linecap="butt">
      <path fill="none" d="M476.2002 620.7999 L491.2002 605.7999 L506.2002 620.7999 L491.2002 635.7999 Z" fill-rule="evenodd" clip-path="url(#clipPath2)"/>
      <text x="512.2" xml:space="preserve" y="624.6281" clip-path="url(#clipPath2)" font-family="sans-serif" stroke="none">complete?</text>
    </g>
    <g fill="rgb(255,153,0)" text-rendering="geometricPrecision" shape-rendering="geometricPrecision" transform="matrix(1,0,0,1,-367,-104)" stroke="rgb(255,153,0)">
      <circle r="15" clip-path="url(#clipPath2)" cx="397.3371" cy="620.8" stroke="none"/>
    </g>
    <g text-rendering="geometricPrecision" stroke-miterlimit="1.45" shape-rendering="geometricPrecision" transform="matrix(1,0,0,1,-367,-104)" stroke-linecap="butt">
      <circle fill="none" r="15" clip-path="url(#clipPath2)" cx="397.3371" cy="620.8"/>
    </g>
    <g fill="rgb(255,204,0)" text-rendering="geometricPrecision" shape-rendering="geometricPrecision" transform="matrix(1,0,0,1,-367,-104)" stroke="rgb(255,204,0)">
      <rect x="434.2" width="114" height="50" y="517" clip-path="url(#clipPath2)" stroke="none"/>
    </g>
    <g text-rendering="geometricPrecision" stroke-miterlimit="1.45" shape-rendering="geometricPrecision" transform="matrix(1,0,0,1,-367,-104)" stroke-linecap="butt">
      <rect fill="none" x="434.2" width="114" height="50" y="517" clip-path="url(#clipPath2)"/>
      <text x="469.3898" xml:space="preserve" y="538.4839" clip-path="url(#clipPath2)" font-family="sans-serif" stroke="none">process</text>
      <text x="467.0858" xml:space="preserve" y="554.8281" clip-path="url(#clipPath2)" font-family="sans-serif" stroke="none">init code</text>
    </g>
    <g fill="white" text-rendering="geometricPrecision" shape-rendering="geometricPrecision" transform="matrix(1,0,0,1,-367,-104)" stroke="white">
      <path d="M663.3 753.8467 L705.3 753.8467 L705.3 768.8467 L720.3 768.8467 L720.3 838.8467 L663.3 838.8467 Z" stroke="none" clip-path="url(#clipPath2)"/>
      <path d="M705.3 753.8467 L705.3 768.8467 L720.3 768.8467 Z" clip-path="url(#clipPath2)" fill-rule="evenodd" stroke="none"/>
    </g>
    <g text-rendering="geometricPrecision" stroke-miterlimit="1.45" shape-rendering="geometricPrecision" transform="matrix(1,0,0,1,-367,-104)" stroke-linecap="butt">
      <path fill="none" d="M663.3 753.8467 L705.3 753.8467 L705.3 768.8467 L720.3 768.8467 L720.3 838.8467 L663.3 838.8467 Z" clip-path="url(#clipPath2)"/>
      <path fill="none" d="M705.3 753.8467 L705.3 768.8467 L720.3 768.8467 Z" clip-path="url(#clipPath2)" fill-rule="evenodd"/>
      <text x="674.5019" xml:space="preserve" y="801.0027" clip-path="url(#clipPath2)" font-family="sans-serif" stroke="none">object</text>
    </g>
    <g fill="rgb(255,204,0)" text-rendering="geometricPrecision" shape-rendering="geometricPrecision" transform="matrix(1,0,0,1,-367,-104)" stroke="rgb(255,204,0)">
      <rect x="641" width="114" height="54" y="274.9" clip-path="url(#clipPath2)" stroke="none"/>
    </g>
    <g text-rendering="geometricPrecision" stroke-miterlimit="1.45" shape-rendering="geometricPrecision" transform="matrix(1,0,0,1,-367,-104)" stroke-linecap="butt">
      <rect fill="none" x="641" width="114" height="54" y="274.9" clip-path="url(#clipPath2)"/>
      <text x="676.1898" xml:space="preserve" y="298.384" clip-path="url(#clipPath2)" font-family="sans-serif" stroke="none">process</text>
      <text x="662.4017" xml:space="preserve" y="314.7281" clip-path="url(#clipPath2)" font-family="sans-serif" stroke="none">pre-init code</text>
      <path fill="none" d="M698 174.2 L698 215.2" clip-path="url(#clipPath2)"/>
      <path d="M698 223.2 L703 211.2 L698 214.2 L693 211.2 Z" clip-path="url(#clipPath2)" stroke="none"/>
      <text x="609.3274" xml:space="preserve" y="203.356" clip-path="url(#clipPath2)" font-family="sans-serif" stroke="none">argument map</text>
      <path fill="none" d="M682.9797 365.6 L501.2 365.6 L496.825 366.225 L493.7 368.1 L491.825 371.225 L491.2 375.6 L491.2 402.6" clip-path="url(#clipPath2)"/>
      <path d="M491.2 410.6 L496.2 398.6 L491.2 401.6 L486.2 398.6 Z" clip-path="url(#clipPath2)" stroke="none"/>
      <text x="439.5898" xml:space="preserve" y="383.2937" clip-path="url(#clipPath2)" font-family="sans-serif" stroke="none">explicit</text>
      <path fill="none" d="M712.9835 365.6 L804.9 365.6 L809.275 366.225 L812.4 368.1 L814.275 371.225 L814.9 375.6 L814.9 417.8" clip-path="url(#clipPath2)"/>
      <path d="M814.9 425.8 L819.9 413.8 L814.9 416.8 L809.9 413.8 Z" clip-path="url(#clipPath2)" stroke="none"/>
      <text x="825.05" xml:space="preserve" y="378.1418" clip-path="url(#clipPath2)" font-family="sans-serif" stroke="none">implicit</text>
      <path fill="none" d="M814.9 479.8 L814.9 672.6 L814.275 676.975 L812.4 680.1 L809.275 681.975 L804.9 682.6 L756.8 682.6" clip-path="url(#clipPath2)"/>
      <path d="M748.8 682.6 L760.8 687.6 L757.8 682.6 L760.8 677.6 Z" clip-path="url(#clipPath2)" stroke="none"/>
      <path fill="none" d="M757.9 452.8 L735.9263 452.8" clip-path="url(#clipPath2)"/>
      <path d="M727.9263 452.8 L739.9263 457.8 L736.9263 452.8 L739.9263 447.8 Z" clip-path="url(#clipPath2)" stroke="none"/>
      <path fill="none" d="M548.2 452.8 L647.6799 452.8" clip-path="url(#clipPath2)"/>
      <path d="M655.6799 452.8 L643.6799 447.8 L646.6799 452.8 L643.6799 457.8 Z" clip-path="url(#clipPath2)" stroke="none"/>
      <path fill="none" d="M691.8 575.0108 L691.8 647.6" clip-path="url(#clipPath2)"/>
      <path d="M691.8 567.0108 L686.8 579.0108 L691.8 576.0108 L696.8 579.0108 Z" clip-path="url(#clipPath2)" stroke="none"/>
      <path d="M691.8 655.6 L696.8 643.6 L691.8 646.6 L686.8 643.6 Z" clip-path="url(#clipPath2)" stroke="none"/>
      <path fill="none" d="M491.2 635.7974 L491.2 672.6 L491.825 676.975 L493.7 680.1 L496.825 681.975 L501.2 682.6 L626.8 682.6" clip-path="url(#clipPath2)"/>
      <path d="M634.8 682.6 L622.8 677.6 L625.8 682.6 L622.8 687.6 Z" clip-path="url(#clipPath2)" stroke="none"/>
      <path fill="none" d="M476.2131 620.8 L420.3371 620.8" clip-path="url(#clipPath2)"/>
      <path d="M412.3371 620.8 L424.3371 625.8 L421.3371 620.8 L424.3371 615.8 Z" clip-path="url(#clipPath2)" stroke="none"/>
      <text x="436.9305" xml:space="preserve" y="613.284" clip-path="url(#clipPath2)" font-family="sans-serif" stroke="none">no</text>
      <path fill="none" d="M491.2 495 L491.2 509" clip-path="url(#clipPath2)"/>
      <path d="M491.2 517 L496.2 505 L491.2 508 L486.2 505 Z" clip-path="url(#clipPath2)" stroke="none"/>
      <path fill="none" d="M491.2 567 L491.2 597.8001" clip-path="url(#clipPath2)"/>
      <path d="M491.2 605.8001 L496.2 593.8001 L491.2 596.8001 L486.2 593.8001 Z" clip-path="url(#clipPath2)" stroke="none"/>
      <path fill="none" d="M548.2 542 L647.6799 542" clip-path="url(#clipPath2)"/>
      <path d="M655.6799 542 L643.6799 537 L646.6799 542 L643.6799 547 Z" clip-path="url(#clipPath2)" stroke="none"/>
      <text x="560.325" xml:space="preserve" y="558.8281" clip-path="url(#clipPath2)" font-family="sans-serif" stroke="none">assignments</text>
      <text x="568.335" xml:space="preserve" y="575.1722" clip-path="url(#clipPath2)" font-family="sans-serif" stroke="none">of implicit</text>
      <text x="563.331" xml:space="preserve" y="591.5163" clip-path="url(#clipPath2)" font-family="sans-serif" stroke="none">parameters</text>
      <path fill="none" d="M691.8 709.6 L691.8 745.8629" clip-path="url(#clipPath2)"/>
      <path d="M691.8 753.8629 L696.8 741.8629 L691.8 744.8629 L686.8 741.8629 Z" clip-path="url(#clipPath2)" stroke="none"/>
      <path fill="none" d="M698 253.2 L698 266.9" clip-path="url(#clipPath2)"/>
      <path d="M698 274.9 L703 262.9 L698 265.9 L693 262.9 Z" clip-path="url(#clipPath2)" stroke="none"/>
      <path fill="none" d="M698 328.9 L698 342.5831" clip-path="url(#clipPath2)"/>
      <path d="M698 350.5831 L703 338.5831 L698 341.5831 L693 338.5831 Z" clip-path="url(#clipPath2)" stroke="none"/>
    </g>
  </g>
</svg>
