<?xml version="1.0" encoding="UTF-8"?><svg xmlns="http://www.w3.org/2000/svg" xmlns:xlink="http://www.w3.org/1999/xlink" fill-opacity="1" color-rendering="auto" color-interpolation="auto" text-rendering="auto" stroke="black" stroke-linecap="square" width="772" stroke-miterlimit="10" shape-rendering="auto" stroke-opacity="1" fill="black" stroke-dasharray="none" font-weight="normal" stroke-width="1" height="616" font-family="'Dialog'" font-style="normal" stroke-linejoin="miter" font-size="12px" stroke-dashoffset="0" image-rendering="auto">
  <!--Generated by ySVG 2.6-->
  <defs id="genericDefs"/>
  <g>
    <g fill="white" text-rendering="geometricPrecision" shape-rendering="geometricPrecision" transform="translate(-118,-137)" stroke="white">
      <rect x="118" width="772" height="616" y="137" clip-path="url(#clipPath2)" stroke="none"/>
    </g>
    <g fill="rgb(255,204,0)" text-rendering="geometricPrecision" shape-rendering="geometricPrecision" transform="matrix(1,0,0,1,-118,-137)" stroke="rgb(255,204,0)">
      <rect x="160.7333" width="104" height="47" y="263.4" clip-path="url(#clipPath2)" stroke="none"/>
    </g>
    <g text-rendering="geometricPrecision" stroke-miterlimit="1.45" shape-rendering="geometricPrecision" transform="matrix(1,0,0,1,-118,-137)" stroke-linecap="butt">
      <rect fill="none" x="160.7333" width="104" height="47" y="263.4" clip-path="url(#clipPath2)"/>
      <text x="169.113" xml:space="preserve" y="291.556" clip-path="url(#clipPath2)" font-family="sans-serif" stroke="none">ResolveContext</text>
    </g>
    <g fill="rgb(255,204,0)" text-rendering="geometricPrecision" shape-rendering="geometricPrecision" transform="matrix(1,0,0,1,-118,-137)" stroke="rgb(255,204,0)">
      <rect x="160.7333" width="407.2" height="47" y="459.4" clip-path="url(#clipPath2)" stroke="none"/>
    </g>
    <g text-rendering="geometricPrecision" stroke-miterlimit="1.45" shape-rendering="geometricPrecision" transform="matrix(1,0,0,1,-118,-137)" stroke-linecap="butt">
      <rect fill="none" x="160.7333" width="407.2" height="47" y="459.4" clip-path="url(#clipPath2)"/>
      <text x="329.7251" xml:space="preserve" y="487.556" clip-path="url(#clipPath2)" font-family="sans-serif" stroke="none">SymbolTabe</text>
    </g>
    <g fill="rgb(255,204,0)" text-rendering="geometricPrecision" shape-rendering="geometricPrecision" transform="matrix(1,0,0,1,-118,-137)" stroke="rgb(255,204,0)">
      <rect x="312.3333" width="104" height="47" y="675.4" clip-path="url(#clipPath2)" stroke="none"/>
    </g>
    <g text-rendering="geometricPrecision" stroke-miterlimit="1.45" shape-rendering="geometricPrecision" transform="matrix(1,0,0,1,-118,-137)" stroke-linecap="butt">
      <rect fill="none" x="312.3333" width="104" height="47" y="675.4" clip-path="url(#clipPath2)"/>
      <text x="343.5012" xml:space="preserve" y="703.556" clip-path="url(#clipPath2)" font-family="sans-serif" stroke="none">Symbol</text>
    </g>
    <g fill="rgb(255,204,0)" text-rendering="geometricPrecision" shape-rendering="geometricPrecision" transform="matrix(1,0,0,1,-118,-137)" stroke="rgb(255,204,0)">
      <rect x="312.3333" width="104" height="47" y="577.4" clip-path="url(#clipPath2)" stroke="none"/>
    </g>
    <g text-rendering="geometricPrecision" stroke-miterlimit="1.45" shape-rendering="geometricPrecision" transform="matrix(1,0,0,1,-118,-137)" stroke-linecap="butt">
      <rect fill="none" x="312.3333" width="104" height="47" y="577.4" clip-path="url(#clipPath2)"/>
      <text x="331.0031" xml:space="preserve" y="605.556" clip-path="url(#clipPath2)" font-family="sans-serif" stroke="none">SymbolMap</text>
    </g>
    <g fill="rgb(255,204,0)" text-rendering="geometricPrecision" shape-rendering="geometricPrecision" transform="matrix(1,0,0,1,-118,-137)" stroke="rgb(255,204,0)">
      <rect x="287.5333" width="586.56" height="47" y="263.4" clip-path="url(#clipPath2)" stroke="none"/>
    </g>
    <g text-rendering="geometricPrecision" stroke-miterlimit="1.45" shape-rendering="geometricPrecision" transform="matrix(1,0,0,1,-118,-137)" stroke-linecap="butt">
      <rect fill="none" x="287.5333" width="586.56" height="47" y="263.4" clip-path="url(#clipPath2)"/>
      <text x="547.4951" xml:space="preserve" y="291.556" clip-path="url(#clipPath2)" font-family="sans-serif" stroke="none">EvalContext</text>
    </g>
    <g fill="rgb(255,204,0)" text-rendering="geometricPrecision" shape-rendering="geometricPrecision" transform="matrix(1,0,0,1,-118,-137)" stroke="rgb(255,204,0)">
      <rect x="595.0667" width="279.0267" height="47" y="459.4" clip-path="url(#clipPath2)" stroke="none"/>
    </g>
    <g text-rendering="geometricPrecision" stroke-miterlimit="1.45" shape-rendering="geometricPrecision" transform="matrix(1,0,0,1,-118,-137)" stroke-linecap="butt">
      <rect fill="none" x="595.0667" width="279.0267" height="47" y="459.4" clip-path="url(#clipPath2)"/>
      <text x="719.6699" xml:space="preserve" y="487.556" clip-path="url(#clipPath2)" font-family="sans-serif" stroke="none">Stack</text>
    </g>
    <g text-rendering="geometricPrecision" shape-rendering="geometricPrecision" transform="matrix(1.1519,0,0,1.1347,264.0922,15.1333)">
      <g clip-path="url(#clipPath3)">
        <svg xmlns:svg="http://www.w3.org/2000/svg" xmlns:sodipodi="http://sodipodi.sourceforge.net/DTD/sodipodi-0.dtd" xmlns:inkscape="http://www.inkscape.org/namespaces/inkscape" xmlns:dc="http://purl.org/dc/elements/1.1/" xmlns:cc="http://web.resource.org/cc/" xmlns:rdf="http://www.w3.org/1999/02/22-rdf-syntax-ns#" opacity="1" writing-mode="lr-tb" stop-color="rgb(0, 0, 0)" shape-rendering="auto" glyph-orientation-horizontal="0deg" color-profile="auto" lighting-color="rgb(255, 255, 255)" color="rgb(0, 0, 0)" font-weight="400" alignment-baseline="auto" font-style="normal" version="1.0" color-interpolation-filters="linearrgb" text-anchor="start" stroke-linecap="butt" color-interpolation="srgb" font-variant="normal" word-spacing="normal" fill-opacity="1" text-rendering="auto" clip-path="none" text-decoration="none" letter-spacing="normal" glyph-orientation-vertical="auto" display="inline" font-size-adjust="none" overflow="hidden" fill="rgb(0, 0, 0)" font-stretch="normal" stroke-dasharray="none" inkscape:version="0.45.1" id="svg1.svg2" stroke-miterlimit="4" stop-opacity="1" color-rendering="auto" font-size="12" sodipodi:docbase="C:\Daten\alberts\projects\yfx" pointer-events="visiblepainted" mask="none" direction="ltr" baseline-shift="baseline" sodipodi:docname="uml_actor.svg" enable-background="accumulate" fill-rule="nonzero" image-rendering="auto" stroke-dashoffset="0" inkscape:output_extension="org.inkscape.output.svg.inkscape" marker-end="none" width="41" clip="auto" cursor="auto" stroke="none" filter="none" visibility="visible" kerning="auto" stroke-width="1" font-family="&quot;Arial&quot;,&quot;Helvetica&quot;,sans-serif" flood-opacity="1" clip-rule="nonzero" src="none" height="68.997391" unicode-bidi="normal" sodipodi:version="0.32" stroke-linejoin="miter" stroke-opacity="1" flood-color="rgb(0, 0, 0)" dominant-baseline="auto" marker-start="none" marker-mid="none">
            
          <defs id="svg1.defs4">
            <clipPath clipPathUnits="userSpaceOnUse" id="clipPath1">
              <path d="M0 0 L772 0 L772 616 L0 616 L0 0 Z"/>
            </clipPath>
            <clipPath clipPathUnits="userSpaceOnUse" id="clipPath2">
              <path d="M118 137 L890 137 L890 753 L118 753 L118 137 Z"/>
            </clipPath>
            <clipPath clipPathUnits="userSpaceOnUse" id="clipPath3">
              <path d="M-229.2614 -13.3364 L440.9205 -13.3364 L440.9205 529.5206 L-229.2614 529.5206 L-229.2614 -13.3364 Z"/>
            </clipPath>
          </defs>
            
  
          <metadata id="svg1.metadata7">
    
  </metadata>
            
          <g inkscape:groupmode="layer" id="svg1.layer1" transform="translate(-29.5,-42.959476)" inkscape:label="Ebene 1">
                
            <a id="svg1.a3142" transform="matrix(1.0873906,0,0,1,-4.4741999,0)">
                    
              <path transform="translate(11.586889,5.2908993)" style="fill:none;fill-rule:evenodd;stroke:#000000;stroke-width:1px;stroke-linecap:butt;stroke-linejoin:miter;stroke-opacity:1" sodipodi:cx="38.509369" sodipodi:cy="47.36993" sodipodi:rx="8.5197716" id="svg1.path2160" d="M 47.02914 47.36993 A 8.5197716 9.2013531 0 1 1  29.989597,47.36993 A 8.5197716 9.2013531 0 1 1  47.02914 47.36993 z" sodipodi:ry="9.2013531" sodipodi:type="arc"/>
                  
            </a>
                
            <path style="fill:none" sodipodi:cx="43.962021" sodipodi:cy="48.392303" d="M 47.71072 48.392303 A 3.7486994 0 0 1 1  40.213321,48.392303 A 3.7486994 0 0 1 1  47.71072 48.392303 z" id="svg1.path3134" sodipodi:rx="3.7486994" sodipodi:ry="0" sodipodi:type="arc"/>
                
            <path style="fill:none;fill-rule:evenodd;stroke:#000000;stroke-width:1.24319649px;stroke-linecap:butt;stroke-linejoin:miter;stroke-opacity:1" d="M 50,61.33709 C 50,91.363211 50,92.247838 50,92.247838" id="svg1.path3136"/>
                
            <path style="fill:none;fill-rule:evenodd;stroke:#000000;stroke-width:1px;stroke-linecap:butt;stroke-linejoin:miter;stroke-opacity:1" d="M 69.760668,72.362183 C 69.760668,72.362183 69.760668,72.362183 50.239332,72.362183 C 30.239332,72.362183 30.239332,72.362183 30.239332,72.362183 L 30.239332,72.362183" id="svg1.path3138"/>
                
            <path style="fill:none;fill-rule:evenodd;stroke:#000000;stroke-width:1px;stroke-linecap:butt;stroke-linejoin:miter;stroke-opacity:1" d="M 30,111.45687 C 30,111.45687 30,111.45687 50,92.013532 C 70,111.45687 70,111.45687 70,111.45687" id="svg1.path3140"/>
              
          </g>
          
        </svg>
      </g>
    </g>
    <g fill="yellow" text-rendering="geometricPrecision" shape-rendering="geometricPrecision" transform="matrix(1,0,0,1,-118,-137)" stroke="yellow">
      <rect x="345.0667" y="361.4" clip-path="url(#clipPath2)" width="104" rx="4" ry="4" height="47" stroke="none"/>
    </g>
    <g text-rendering="geometricPrecision" stroke-miterlimit="1.45" shape-rendering="geometricPrecision" transform="matrix(1,0,0,1,-118,-137)" stroke-linecap="butt">
      <rect x="345.0667" y="361.4" clip-path="url(#clipPath2)" fill="none" width="104" rx="4" ry="4" height="47"/>
      <text x="357.5984" xml:space="preserve" y="389.556" clip-path="url(#clipPath2)" font-family="sans-serif" stroke="none">lookup_within</text>
    </g>
    <g fill="yellow" text-rendering="geometricPrecision" shape-rendering="geometricPrecision" transform="matrix(1,0,0,1,-118,-137)" stroke="yellow">
      <rect x="697.2" y="361.4" clip-path="url(#clipPath2)" width="135.36" rx="4" ry="4" height="47" stroke="none"/>
    </g>
    <g text-rendering="geometricPrecision" stroke-miterlimit="1.45" shape-rendering="geometricPrecision" transform="matrix(1,0,0,1,-118,-137)" stroke-linecap="butt">
      <rect x="697.2" y="361.4" clip-path="url(#clipPath2)" fill="none" width="135.36" rx="4" ry="4" height="47"/>
      <text x="718.2297" xml:space="preserve" y="389.556" clip-path="url(#clipPath2)" font-family="sans-serif" stroke="none">lookup_property</text>
    </g>
    <g fill="yellow" text-rendering="geometricPrecision" shape-rendering="geometricPrecision" transform="matrix(1,0,0,1,-118,-137)" stroke="yellow">
      <rect x="463.9333" y="361.4" clip-path="url(#clipPath2)" width="218.4" rx="4" ry="4" height="47" stroke="none"/>
    </g>
    <g text-rendering="geometricPrecision" stroke-miterlimit="1.45" shape-rendering="geometricPrecision" transform="matrix(1,0,0,1,-118,-137)" stroke-linecap="butt">
      <rect x="463.9333" y="361.4" clip-path="url(#clipPath2)" fill="none" width="218.4" rx="4" ry="4" height="47"/>
      <text x="519.6609" xml:space="preserve" y="389.556" clip-path="url(#clipPath2)" font-family="sans-serif" stroke="none">lookup_workbench</text>
      <path fill="none" d="M212.7333 310.4 L212.7333 451.4274" clip-path="url(#clipPath2)"/>
      <path d="M212.7333 459.4274 L217.7333 447.4274 L212.7333 450.4274 L207.7333 447.4274 Z" clip-path="url(#clipPath2)" stroke="none"/>
      <text x="169.9131" xml:space="preserve" y="443.759" clip-path="url(#clipPath2)" font-family="sans-serif" stroke="none">lookup</text>
      <path fill="none" d="M372.394 722.3791 L373.1021 723.326 L375.5804 726.0529 L378.3074 728.5313 L381.2635 730.7419 L384.4296 732.6653 L387.7863 734.2823 L391.3144 735.5736 L394.9944 736.5198 L398.8072 737.1017 L402.7333 737.3 L406.6595 737.1017 L410.4723 736.5198 L414.1523 735.5736 L417.6804 734.2823 L421.0371 732.6653 L424.2032 730.7419 L427.1593 728.5313 L429.8863 726.0529 L432.3647 723.326 L434.5752 720.3698 L436.4987 717.2037 L438.1157 713.847 L439.407 710.319 L440.3532 706.6389 L440.9351 702.8262 L441.1334 698.9 L440.9351 694.9738 L440.3532 691.1611 L439.407 687.481 L438.1157 683.953 L436.4987 680.5963 L434.5752 677.4302 L432.3647 674.4741 L429.8863 671.7471 L427.1593 669.2687 L424.2032 667.0581 L421.0371 665.1346 L417.6804 663.5176 L414.1523 662.2264 L410.4723 661.2802 L406.6595 660.6982 L402.7333 660.5 L398.8072 660.6982 L394.9944 661.2802 L391.3144 662.2264 L387.7863 663.5176 L384.4296 665.1346 L381.2635 667.0581 L378.3074 669.2687 L377.9117 669.6283 L377.8462 669.7039" clip-path="url(#clipPath2)"/>
      <path d="M372.325 675.4933 L384.2251 670.2599 L378.5363 668.9802 L376.9884 663.3585 Z" clip-path="url(#clipPath2)" stroke="none"/>
      <text x="428.7632" xml:space="preserve" y="664.556" clip-path="url(#clipPath2)" font-family="sans-serif" stroke="none">search</text>
      <path fill="none" d="M364.3333 506.4 L364.3333 569.4" clip-path="url(#clipPath2)"/>
      <path d="M364.3333 577.4 L369.3333 565.4 L364.3333 568.4 L359.3333 565.4 Z" clip-path="url(#clipPath2)" stroke="none"/>
      <text x="322.9531" xml:space="preserve" y="561.759" clip-path="url(#clipPath2)" font-family="sans-serif" stroke="none">search</text>
      <path fill="none" d="M374.3614 624.4018 L374.5283 624.5985 L377.1542 627.1525 L380.0115 629.4446 L383.0799 631.457 L386.339 633.1717 L389.7684 634.5707 L393.3479 635.6359 L397.0571 636.3495 L400.8757 636.6936 L404.7833 636.65 L408.6667 636.2131 L412.414 635.4023 L416.0074 634.2383 L419.4289 632.7412 L422.6604 630.9315 L425.6841 628.8293 L428.4818 626.455 L431.0358 623.8291 L433.3279 620.9718 L435.3403 617.9034 L437.055 614.6444 L438.4539 611.215 L439.5193 607.6355 L440.2329 603.9263 L440.5769 600.1077 L440.5333 596.2001 L440.0963 592.3167 L439.2857 588.5693 L438.1216 584.976 L436.6245 581.5545 L434.8147 578.3229 L432.7126 575.2993 L430.3383 572.5015 L427.7124 569.9476 L424.8551 567.6554 L421.7868 565.643 L418.5277 563.9283 L415.0983 562.5294 L411.5188 561.4641 L407.8096 560.7505 L403.991 560.4064 L400.0833 560.45 L396.2 560.887 L392.4526 561.6977 L388.8592 562.8618 L385.4378 564.3588 L382.2063 566.1686 L379.1826 568.2708 L376.3848 570.645 L375.8084 571.2376 L375.7481 571.3173" clip-path="url(#clipPath2)"/>
      <path d="M370.6417 577.4756 L382.1502 571.4297 L376.3864 570.5475 L374.4523 565.0467 Z" clip-path="url(#clipPath2)" stroke="none"/>
      <text x="420.6133" xml:space="preserve" y="558.156" clip-path="url(#clipPath2)" font-family="sans-serif" stroke="none">get</text>
      <path fill="none" d="M364.3333 632.4 L364.3333 667.4" clip-path="url(#clipPath2)"/>
      <path d="M364.3333 624.4 L359.3333 636.4 L364.3333 633.4 L369.3333 636.4 Z" clip-path="url(#clipPath2)" stroke="none"/>
      <path d="M364.3333 675.4 L369.3333 663.4 L364.3333 666.4 L359.3333 663.4 Z" clip-path="url(#clipPath2)" stroke="none"/>
      <text x="322.9531" xml:space="preserve" y="659.759" clip-path="url(#clipPath2)" font-family="sans-serif" stroke="none">search</text>
      <path fill="none" d="M315.5705 310.407 L316.8398 451.3789" clip-path="url(#clipPath2)"/>
      <path d="M316.9118 459.3786 L321.8035 447.334 L316.8307 450.3789 L311.804 447.4241 Z" clip-path="url(#clipPath2)" stroke="none"/>
      <text x="273.8174" xml:space="preserve" y="443.759" clip-path="url(#clipPath2)" font-family="sans-serif" stroke="none">lookup</text>
      <path fill="none" d="M852.0405 310.4006 L852.0405 451.3676" clip-path="url(#clipPath2)"/>
      <path d="M852.0405 459.3676 L857.0405 447.3676 L852.0405 450.3676 L847.0405 447.3676 Z" clip-path="url(#clipPath2)" stroke="none"/>
      <text x="809.2203" xml:space="preserve" y="443.759" clip-path="url(#clipPath2)" font-family="sans-serif" stroke="none">lookup</text>
      <path fill="none" d="M382.2917 191.2 L222.7333 191.2 L218.3583 191.825 L215.2333 193.7 L213.3583 196.825 L212.7333 201.2 L212.7333 255.4" clip-path="url(#clipPath2)"/>
      <path d="M212.7333 263.4 L217.7333 251.4 L212.7333 254.4 L207.7333 251.4 Z" clip-path="url(#clipPath2)" stroke="none"/>
      <text x="329.4494" xml:space="preserve" y="208.0281" clip-path="url(#clipPath2)" font-family="sans-serif" stroke="none">resolve</text>
      <path fill="none" d="M429.1768 191.2 L570.8134 191.2 L575.1884 191.825 L578.3134 193.7 L580.1884 196.825 L580.8134 201.2 L580.8134 255.4" clip-path="url(#clipPath2)"/>
      <path d="M580.8134 263.4 L585.8134 251.4 L580.8134 254.4 L575.8134 251.4 Z" clip-path="url(#clipPath2)" stroke="none"/>
      <text x="441.2717" xml:space="preserve" y="208.0281" clip-path="url(#clipPath2)" font-family="sans-serif" stroke="none">eval</text>
      <path fill="none" d="M397.0667 310.3902 L397.0667 353.4338" clip-path="url(#clipPath2)"/>
      <path d="M397.0667 361.4338 L402.0667 349.4338 L397.0667 352.4338 L392.0667 349.4338 Z" clip-path="url(#clipPath2)" stroke="none"/>
      <path fill="none" d="M397.0667 408.4181 L397.0667 451.4118" clip-path="url(#clipPath2)"/>
      <path d="M397.0667 459.4118 L402.0667 447.4118 L397.0667 450.4118 L392.0667 447.4118 Z" clip-path="url(#clipPath2)" stroke="none"/>
      <text x="354.2464" xml:space="preserve" y="443.759" clip-path="url(#clipPath2)" font-family="sans-serif" stroke="none">lookup</text>
      <path fill="none" d="M345.0473 384.9 L321.2412 384.9 M311.2412 384.9 L217.7333 384.9 M207.7333 384.9 L143.8533 384.9 L139.4783 385.525 L136.3533 387.4 L134.4783 390.525 L133.8533 394.9 L133.8533 688.9 L134.4783 693.275 L136.3533 696.4 L139.4783 698.275 L143.8533 698.9 L304.3333 698.9" clip-path="url(#clipPath2)"/>
      <path d="M312.3333 698.9 L300.3333 693.9 L303.3333 698.9 L300.3333 703.9 Z" clip-path="url(#clipPath2)" stroke="none"/>
      <text x="262.8281" xml:space="preserve" y="691.384" clip-path="url(#clipPath2)" font-family="sans-serif" stroke="none">search</text>
      <path fill="none" d="M763.6711 310.4063 L764.3683 353.3672" clip-path="url(#clipPath2)"/>
      <path d="M764.4981 361.3661 L769.3027 349.2865 L764.3521 352.3673 L759.304 349.4488 Z" clip-path="url(#clipPath2)" stroke="none"/>
      <path fill="none" d="M764.88 408.37 L764.88 451.3712" clip-path="url(#clipPath2)"/>
      <path d="M764.88 459.3712 L769.88 447.3712 L764.88 450.3712 L759.88 447.3712 Z" clip-path="url(#clipPath2)" stroke="none"/>
      <text x="701.3476" xml:space="preserve" y="443.759" clip-path="url(#clipPath2)" font-family="sans-serif" stroke="none">get_model</text>
      <path fill="none" d="M573.1334 310.3985 L573.1334 353.3636" clip-path="url(#clipPath2)"/>
      <path d="M573.1334 361.3636 L578.1334 349.3636 L573.1334 352.3636 L568.1334 349.3636 Z" clip-path="url(#clipPath2)" stroke="none"/>
      <path fill="none" d="M510.1125 408.3953 L510.1125 451.3812" clip-path="url(#clipPath2)"/>
      <path d="M510.1125 459.3812 L515.1125 447.3812 L510.1125 450.3812 L505.1125 447.3812 Z" clip-path="url(#clipPath2)" stroke="none"/>
      <text x="467.2922" xml:space="preserve" y="443.759" clip-path="url(#clipPath2)" font-family="sans-serif" stroke="none">lookup</text>
      <path fill="none" d="M648.3525 408.4161 L648.3525 451.3859" clip-path="url(#clipPath2)"/>
      <path d="M648.3525 459.3859 L653.3525 447.3859 L648.3525 450.3859 L643.3525 447.3859 Z" clip-path="url(#clipPath2)" stroke="none"/>
      <text x="586.8242" xml:space="preserve" y="422.2119" clip-path="url(#clipPath2)" font-family="sans-serif" stroke="none">current_</text>
      <text x="576.228" xml:space="preserve" y="438.556" clip-path="url(#clipPath2)" font-family="sans-serif" stroke="none">workbench_</text>
      <text x="594.2222" xml:space="preserve" y="454.9001" clip-path="url(#clipPath2)" font-family="sans-serif" stroke="none">name</text>
    </g>
  </g>
</svg>
