<?xml version="1.0" encoding="UTF-8" standalone="no"?>
<svg
   version="1.1"
   x="0px"
   y="0px"
   viewBox="0 0 400 188.29359"
   xml:space="preserve"
   id="svg68"
   sodipodi:docname="Open_Knowledge_Foundation_Deutschland_Logo.svg"
   width="400"
   height="188.29359"
   inkscape:version="1.4.2 (ebf0e94, 2025-05-08)"
   xmlns:inkscape="http://www.inkscape.org/namespaces/inkscape"
   xmlns:sodipodi="http://sodipodi.sourceforge.net/DTD/sodipodi-0.dtd"
   xmlns="http://www.w3.org/2000/svg"
   xmlns:svg="http://www.w3.org/2000/svg"
   xmlns:rdf="http://www.w3.org/1999/02/22-rdf-syntax-ns#"
   xmlns:cc="http://creativecommons.org/ns#"
   xmlns:dc="http://purl.org/dc/elements/1.1/"><defs
   id="defs68" /><sodipodi:namedview
   id="namedview68"
   pagecolor="#ffffff"
   bordercolor="#999999"
   borderopacity="1"
   inkscape:showpageshadow="2"
   inkscape:pageopacity="0"
   inkscape:pagecheckerboard="0"
   inkscape:deskcolor="#d1d1d1"
   inkscape:zoom="0.72090292"
   inkscape:cx="265.6391"
   inkscape:cy="308.64073"
   inkscape:window-width="1888"
   inkscape:window-height="1127"
   inkscape:window-x="16"
   inkscape:window-y="34"
   inkscape:window-maximized="1"
   inkscape:current-layer="svg68" />
    <title
   id="title1">OKF DE Logo</title>
    <style
   type="text/css"
   id="style1">
	.st0{fill:#FFFFFF;}
    </style>
    <g
   id="g34"
   transform="matrix(0.23901111,0,0,0.23901111,8.8855514,3.250872)">
	<path
   d="m 807,259.1 c -17.7,0 -29.5,-12.6 -29.5,-29 0,-16.4 11.8,-28.9 29.5,-28.9 17.6,0 29.4,12.6 29.4,28.9 0,16.4 -11.8,29 -29.4,29 z m 0,-47 c -10.1,0 -16,6.8 -16,18.1 0,11.4 5.9,18.1 16,18.1 10,0 16,-6.7 16,-18.1 -0.1,-11.3 -6,-18.1 -16,-18.1 z"
   id="path1" />
	<path
   d="m 871.8,239.6 v 18.9 h -13.2 v -56.7 h 20 c 16,0 22.8,8.1 22.8,18.5 0,11.3 -7.1,19.2 -22.8,19.2 z m 0,-10 h 6.8 c 6.8,0 9.7,-3.4 9.7,-9.3 0,-5.2 -3,-8.7 -9.7,-8.7 h -6.8 z"
   id="path2" />
	<path
   d="m 960.9,201.8 v 10.1 h -23.3 v 13.2 h 17.8 v 9.7 h -17.8 v 13.5 h 23.3 v 10.1 h -36.5 v -56.7 z"
   id="path3" />
	<path
   d="m 998.8,203.8 26.9,34 c -0.2,-2.2 -0.3,-4.2 -0.3,-6.1 v -30 h 11.6 v 56.7 h -6.8 c -2,0 -3.3,-0.5 -4.6,-2.2 l -26.7,-33.8 c 0.2,2 0.3,3.9 0.3,5.6 v 30.4 h -11.6 v -56.7 h 6.9 c 2.2,0.1 2.8,0.4 4.3,2.1 z"
   id="path4" />
	<path
   d="m 792.7,324.9 h 2.1 c 1.9,0 3.3,-0.6 4.2,-1.8 l 12.8,-18.5 c 1.4,-2 3.1,-2.6 5.7,-2.6 h 11.4 l -16.8,22.9 c -1.2,1.7 -2.5,2.7 -3.9,3.4 2,0.7 3.6,1.9 4.9,4 l 17.1,26.3 h -11.8 c -3,0 -4.1,-0.9 -5.1,-2.4 l -12.8,-19.7 c -0.9,-1.4 -2.2,-2 -4.7,-2 h -3.2 v 24.1 h -13.2 v -56.7 h 13.2 v 23 z"
   id="path5" />
	<path
   d="m 864.5,303.9 26.9,34 c -0.2,-2.2 -0.3,-4.2 -0.3,-6.1 v -30 h 11.6 v 56.7 h -6.8 c -2,0 -3.3,-0.5 -4.6,-2.2 l -26.7,-33.8 c 0.2,2 0.3,3.9 0.3,5.6 v 30.4 h -11.6 v -56.7 h 6.9 c 2.2,0.1 2.8,0.4 4.3,2.1 z"
   id="path6" />
	<path
   d="m 957.3,359.2 c -17.7,0 -29.5,-12.6 -29.5,-29 0,-16.4 11.8,-29 29.5,-29 17.6,0 29.4,12.6 29.4,29 0,16.4 -11.8,29 -29.4,29 z m 0,-47.1 c -10.1,0 -16,6.8 -16,18.1 0,11.4 5.9,18.1 16,18.1 10,0 16,-6.7 16,-18.1 -0.1,-11.2 -6,-18.1 -16,-18.1 z"
   id="path7" />
	<path
   d="m 1002.1,301.9 h 11 c 2.3,0 3.9,1.1 4.4,2.8 l 7.8,29.6 c 0.5,1.9 1.1,4.1 1.4,6.5 0.5,-2.5 1.2,-4.6 1.8,-6.5 l 9.2,-29.6 c 0.5,-1.4 2.1,-2.8 4.3,-2.8 h 3.9 c 2.3,0 3.8,1.1 4.4,2.8 l 9.1,29.6 c 0.6,1.8 1.2,3.9 1.7,6.2 0.4,-2.3 0.9,-4.4 1.3,-6.2 l 7.8,-29.6 c 0.4,-1.5 2.1,-2.8 4.3,-2.8 h 10.4 l -17.5,56.7 h -11.9 l -10.7,-35.1 c -0.3,-1.1 -0.8,-2.4 -1.1,-3.9 -0.3,1.4 -0.8,2.8 -1.1,3.9 l -10.8,35.1 h -11.9 z"
   id="path8" />
	<path
   d="m 1121.6,348.1 h 21 v 10.5 h -34.2 v -56.7 h 13.2 z"
   id="path9" />
	<path
   d="M 1207.1,301.9 V 312 h -23.3 v 13.2 h 17.8 v 9.7 h -17.8 v 13.5 h 23.3 v 10.1 h -36.5 v -56.7 h 36.5 z"
   id="path10" />
	<path
   d="m 1256.7,358.6 h -22 v -56.7 h 22 c 17.6,0 29.4,12 29.4,28.3 0,16.4 -11.8,28.4 -29.4,28.4 z m 0,-46.6 h -8.8 v 36.5 h 8.8 c 10,0 16,-6.9 16,-18.2 0,-11.3 -5.9,-18.3 -16,-18.3 z"
   id="path11" />
	<path
   d="m 1344,347.4 v -8.6 h -5.6 c -1.7,0 -2.6,-1 -2.6,-2.3 v -7.2 h 20.2 v 23.9 c -5.8,4.2 -12.5,6.1 -21.7,6.1 -16.6,0 -28.9,-12.4 -28.9,-29 0,-16.9 11.7,-29 30,-29 9.5,0 16.5,3.3 21.1,7.6 l -3.8,5.8 c -0.7,1.1 -1.8,1.8 -3,1.8 -0.8,0 -1.6,-0.3 -2.4,-0.8 -4.2,-2.5 -7.1,-3.5 -12.4,-3.5 -9.8,0 -16,7.2 -16,18.1 0,12 7,18.9 16.5,18.9 3.4,-0.1 6.1,-0.8 8.6,-1.8 z"
   id="path12" />
	<path
   d="M 1420.1,301.9 V 312 h -23.3 v 13.2 h 17.8 v 9.7 h -17.8 v 13.5 h 23.3 v 10.1 h -36.5 v -56.7 h 36.5 z"
   id="path13" />
	<path
   d="m 816.1,402 v 10.1 h -23.3 v 14.4 h 19.4 v 10.2 h -19.4 v 22.1 H 779.6 V 402 Z"
   id="path14" />
	<path
   d="m 892.7,430.3 c 0,4.1 -0.7,7.9 -2.1,11.4 -1.4,3.5 -3.4,6.6 -6,9.2 -2.6,2.6 -5.7,4.6 -9.3,6.1 -3.6,1.5 -7.6,2.2 -12,2.2 -4.4,0 -8.4,-0.7 -12.1,-2.2 -3.6,-1.5 -6.7,-3.5 -9.3,-6.1 -2.6,-2.6 -4.6,-5.7 -6,-9.2 -1.4,-3.5 -2.1,-7.3 -2.1,-11.4 0,-4.1 0.7,-7.9 2.1,-11.4 1.4,-3.5 3.4,-6.6 6,-9.2 2.6,-2.6 5.7,-4.6 9.3,-6.1 3.6,-1.5 7.7,-2.2 12.1,-2.2 4.4,0 8.4,0.7 12,2.2 3.6,1.5 6.7,3.5 9.3,6.1 2.6,2.6 4.6,5.7 6,9.2 1.4,3.5 2.1,7.3 2.1,11.4 z m -13.4,0 c 0,-2.8 -0.4,-5.3 -1.1,-7.6 -0.7,-2.2 -1.8,-4.1 -3.1,-5.7 -1.4,-1.6 -3,-2.7 -5,-3.6 -2,-0.8 -4.2,-1.2 -6.7,-1.2 -2.5,0 -4.8,0.4 -6.8,1.2 -2,0.8 -3.7,2 -5,3.6 -1.4,1.6 -2.4,3.5 -3.1,5.7 -0.7,2.2 -1.1,4.8 -1.1,7.6 0,2.8 0.4,5.4 1.1,7.6 0.7,2.2 1.8,4.1 3.1,5.7 1.4,1.6 3,2.7 5,3.6 2,0.8 4.2,1.2 6.8,1.2 2.5,0 4.8,-0.4 6.7,-1.2 2,-0.8 3.6,-2 5,-3.6 1.4,-1.6 2.4,-3.5 3.1,-5.7 0.7,-2.2 1.1,-4.8 1.1,-7.6 z"
   id="path15" />
	<path
   d="m 936.5,448.3 c 1.8,0 3.3,-0.3 4.7,-0.9 1.4,-0.6 2.6,-1.4 3.5,-2.5 1,-1.1 1.7,-2.4 2.2,-4 0.5,-1.6 0.8,-3.4 0.8,-5.3 V 402 h 13.2 v 33.6 c 0,3.5 -0.6,6.7 -1.7,9.6 -1.1,2.9 -2.7,5.4 -4.8,7.5 -2.1,2.1 -4.7,3.7 -7.7,4.9 -3,1.2 -6.4,1.8 -10.2,1.8 -3.8,0 -7.2,-0.6 -10.2,-1.8 -3,-1.2 -5.6,-2.8 -7.7,-4.9 -2.1,-2.1 -3.7,-4.6 -4.8,-7.5 -1.1,-2.9 -1.7,-6.1 -1.7,-9.6 V 402 h 13.2 v 33.5 c 0,2 0.3,3.8 0.8,5.3 0.5,1.6 1.2,2.9 2.2,4 1,1.1 2.1,1.9 3.5,2.5 1.3,0.7 2.9,1 4.7,1 z"
   id="path16" />
	<path
   d="m 996.9,402.1 c 0.4,0.1 0.7,0.1 1.1,0.3 0.3,0.1 0.6,0.3 0.9,0.6 0.3,0.3 0.6,0.6 1,1.1 l 26.9,34 c -0.1,-1.1 -0.2,-2.1 -0.2,-3.2 -0.1,-1 -0.1,-2 -0.1,-2.9 v -30 h 11.6 v 56.7 h -6.8 c -1,0 -1.9,-0.2 -2.6,-0.5 -0.7,-0.3 -1.4,-0.9 -2,-1.7 L 1000,422.7 c 0.1,1 0.1,2 0.2,2.9 0.1,0.9 0.1,1.8 0.1,2.7 v 30.4 H 988.7 V 402 h 6.9 c 0.4,0 0.9,0 1.3,0.1 z"
   id="path17" />
	<path
   d="m 1117.9,430.3 c 0,4.1 -0.7,7.9 -2.1,11.3 -1.4,3.5 -3.4,6.5 -6,9 -2.6,2.5 -5.7,4.5 -9.3,5.9 -3.6,1.4 -7.6,2.1 -12,2.1 h -22 V 402 h 22 c 4.4,0 8.4,0.7 12,2.1 3.6,1.4 6.7,3.4 9.3,5.9 2.6,2.5 4.6,5.5 6,9 1.4,3.5 2.1,7.2 2.1,11.3 z m -13.4,0 c 0,-2.8 -0.4,-5.3 -1.1,-7.6 -0.7,-2.3 -1.8,-4.2 -3.1,-5.7 -1.4,-1.6 -3,-2.8 -5,-3.6 -2,-0.8 -4.2,-1.3 -6.7,-1.3 h -8.8 v 36.5 h 8.8 c 2.5,0 4.8,-0.4 6.7,-1.3 2,-0.8 3.6,-2 5,-3.6 1.4,-1.6 2.4,-3.5 3.1,-5.7 0.7,-2.3 1.1,-4.9 1.1,-7.7 z"
   id="path18" />
	<path
   d="m 1191.9,458.7 h -10.2 c -1.1,0 -2.1,-0.3 -2.8,-0.8 -0.7,-0.5 -1.3,-1.2 -1.5,-2 l -3.3,-9.9 h -21.6 l -3.3,9.9 c -0.3,0.7 -0.8,1.4 -1.5,2 -0.8,0.6 -1.7,0.9 -2.8,0.9 h -10.3 l 21.9,-56.7 H 1170 Z M 1155.5,437 h 15.5 l -5.2,-15.5 c -0.3,-1 -0.7,-2.1 -1.2,-3.5 -0.5,-1.3 -0.9,-2.8 -1.3,-4.3 -0.4,1.6 -0.8,3 -1.3,4.4 -0.4,1.3 -0.9,2.5 -1.2,3.5 z"
   id="path19" />
	<path
   d="m 1252.6,402 v 10.4 h -16 v 46.3 h -13.2 v -46.3 h -16 V 402 Z"
   id="path20" />
	<path
   d="m 1290.5,458.7 h -13.2 V 402 h 13.2 z"
   id="path21" />
	<path
   d="m 1374,430.3 c 0,4.1 -0.7,7.9 -2.1,11.4 -1.4,3.5 -3.4,6.6 -6,9.2 -2.6,2.6 -5.7,4.6 -9.3,6.1 -3.6,1.5 -7.6,2.2 -12,2.2 -4.4,0 -8.4,-0.7 -12.1,-2.2 -3.6,-1.5 -6.7,-3.5 -9.3,-6.1 -2.6,-2.6 -4.6,-5.7 -6,-9.2 -1.4,-3.5 -2.1,-7.3 -2.1,-11.4 0,-4.1 0.7,-7.9 2.1,-11.4 1.4,-3.5 3.4,-6.6 6,-9.2 2.6,-2.6 5.7,-4.6 9.3,-6.1 3.6,-1.5 7.7,-2.2 12.1,-2.2 4.4,0 8.4,0.7 12,2.2 3.6,1.5 6.7,3.5 9.3,6.1 2.6,2.6 4.6,5.7 6,9.2 1.4,3.5 2.1,7.3 2.1,11.4 z m -13.4,0 c 0,-2.8 -0.4,-5.3 -1.1,-7.6 -0.7,-2.2 -1.8,-4.1 -3.1,-5.7 -1.4,-1.6 -3,-2.7 -5,-3.6 -2,-0.8 -4.2,-1.2 -6.7,-1.2 -2.5,0 -4.8,0.4 -6.8,1.2 -2,0.8 -3.7,2 -5,3.6 -1.4,1.6 -2.4,3.5 -3.1,5.7 -0.7,2.2 -1.1,4.8 -1.1,7.6 0,2.8 0.4,5.4 1.1,7.6 0.7,2.2 1.8,4.1 3.1,5.7 1.4,1.6 3,2.7 5,3.6 2,0.8 4.2,1.2 6.8,1.2 2.5,0 4.8,-0.4 6.7,-1.2 2,-0.8 3.6,-2 5,-3.6 1.4,-1.6 2.4,-3.5 3.1,-5.7 0.7,-2.2 1.1,-4.8 1.1,-7.6 z"
   id="path22" />
	<path
   d="m 1407.8,402.1 c 0.4,0.1 0.7,0.1 1.1,0.3 0.3,0.1 0.6,0.3 0.9,0.6 0.3,0.3 0.6,0.6 1,1.1 l 26.9,34 c -0.1,-1.1 -0.2,-2.1 -0.2,-3.2 -0.1,-1 -0.1,-2 -0.1,-2.9 v -30 h 11.6 v 56.7 h -6.8 c -1,0 -1.9,-0.2 -2.6,-0.5 -0.7,-0.3 -1.4,-0.9 -2,-1.7 l -26.7,-33.8 c 0.1,1 0.1,2 0.2,2.9 0.1,0.9 0.1,1.8 0.1,2.7 v 30.4 h -11.6 V 402 h 6.9 c 0.4,0 0.9,0 1.3,0.1 z"
   id="path23" />
	<path
   d="m 826.5,530.4 c 0,4.2 -0.7,8.1 -2,11.6 -1.3,3.5 -3.2,6.5 -5.7,8.9 -2.5,2.5 -5.4,4.4 -8.8,5.8 -3.4,1.4 -7.2,2 -11.4,2 h -21.2 v -56.6 h 21.2 c 4.2,0 8,0.7 11.4,2 3.4,1.4 6.4,3.3 8.8,5.8 2.4,2.5 4.3,5.5 5.7,9 1.4,3.4 2,7.3 2,11.5 z m -7.8,0 c 0,-3.5 -0.5,-6.6 -1.4,-9.3 -0.9,-2.7 -2.3,-5.1 -4,-7 -1.7,-1.9 -3.8,-3.3 -6.3,-4.3 -2.5,-1 -5.2,-1.5 -8.3,-1.5 h -13.5 v 44.2 h 13.5 c 3,0 5.8,-0.5 8.3,-1.5 2.5,-1 4.6,-2.4 6.3,-4.3 1.7,-1.9 3.1,-4.2 4,-6.9 0.9,-2.8 1.4,-5.9 1.4,-9.4 z"
   id="path24" />
	<path
   d="m 883.7,502.1 v 6.2 h -27.2 v 18.8 h 22 v 6 h -22 v 19.3 h 27.2 v 6.2 H 848.8 V 502 h 34.9 z"
   id="path25" />
	<path
   d="m 935.9,552.6 c 2.3,0 4.4,-0.4 6.3,-1.2 1.8,-0.8 3.4,-1.9 4.7,-3.3 1.3,-1.4 2.3,-3.1 2.9,-5.1 0.7,-2 1,-4.1 1,-6.5 v -34.4 h 7.6 v 34.4 c 0,3.3 -0.5,6.3 -1.6,9.1 -1,2.8 -2.5,5.2 -4.5,7.3 -1.9,2 -4.3,3.6 -7.1,4.8 -2.8,1.2 -5.9,1.7 -9.4,1.7 -3.5,0 -6.6,-0.6 -9.4,-1.7 -2.8,-1.2 -5.2,-2.8 -7.1,-4.8 -1.9,-2 -3.4,-4.5 -4.5,-7.3 -1,-2.8 -1.6,-5.8 -1.6,-9.1 v -34.4 h 7.6 v 34.4 c 0,2.4 0.3,4.5 1,6.5 0.7,2 1.6,3.7 2.9,5.1 1.3,1.4 2.8,2.5 4.7,3.3 2.1,0.8 4.2,1.2 6.5,1.2 z"
   id="path26" />
	<path
   d="m 1030.4,502.1 v 6.4 h -18.3 v 50.2 h -7.7 V 508.5 H 986 v -6.4 z"
   id="path27" />
	<path
   d="m 1088.8,510.9 c -0.2,0.4 -0.5,0.7 -0.8,0.9 -0.3,0.2 -0.6,0.3 -1,0.3 -0.4,0 -1,-0.2 -1.6,-0.7 -0.6,-0.4 -1.3,-0.9 -2.3,-1.5 -0.9,-0.5 -2,-1 -3.3,-1.5 -1.3,-0.4 -2.8,-0.7 -4.6,-0.7 -1.7,0 -3.2,0.2 -4.5,0.7 -1.3,0.5 -2.4,1.1 -3.3,1.9 -0.9,0.8 -1.5,1.7 -2,2.8 -0.4,1.1 -0.7,2.2 -0.7,3.5 0,1.6 0.4,2.9 1.2,3.9 0.8,1 1.8,1.9 3.1,2.7 1.3,0.7 2.7,1.4 4.3,1.9 1.6,0.5 3.3,1.1 5,1.7 1.7,0.6 3.4,1.2 5,2 1.6,0.7 3.1,1.6 4.3,2.7 1.3,1.1 2.3,2.5 3.1,4.1 0.8,1.6 1.2,3.6 1.2,5.9 0,2.5 -0.4,4.8 -1.3,7 -0.8,2.2 -2.1,4.1 -3.7,5.7 -1.6,1.6 -3.6,2.9 -6,3.8 -2.4,0.9 -5,1.4 -8,1.4 -3.7,0 -7,-0.7 -10,-2 -3,-1.3 -5.6,-3.1 -7.7,-5.4 l 2.2,-3.6 c 0.2,-0.3 0.5,-0.5 0.8,-0.7 0.3,-0.2 0.6,-0.3 1,-0.3 0.6,0 1.2,0.3 1.9,0.9 0.7,0.6 1.6,1.2 2.7,2 1.1,0.7 2.4,1.4 3.9,2 1.5,0.6 3.4,0.9 5.6,0.9 1.8,0 3.4,-0.3 4.9,-0.8 1.4,-0.5 2.6,-1.2 3.6,-2.1 1,-0.9 1.7,-2 2.3,-3.3 0.5,-1.3 0.8,-2.7 0.8,-4.2 0,-1.7 -0.4,-3.1 -1.2,-4.2 -0.8,-1.1 -1.8,-2 -3.1,-2.7 -1.3,-0.7 -2.7,-1.4 -4.3,-1.9 -1.6,-0.5 -3.3,-1 -5,-1.6 -1.7,-0.5 -3.4,-1.2 -5,-1.9 -1.6,-0.7 -3.1,-1.6 -4.3,-2.8 -1.3,-1.1 -2.3,-2.5 -3.1,-4.2 -0.8,-1.7 -1.2,-3.8 -1.2,-6.3 0,-2 0.4,-3.9 1.2,-5.8 0.8,-1.9 1.9,-3.5 3.4,-5 1.5,-1.4 3.3,-2.6 5.5,-3.5 2.2,-0.9 4.7,-1.3 7.5,-1.3 3.2,0 6,0.5 8.7,1.5 2.6,1 4.9,2.5 6.8,4.3 z"
   id="path28" />
	<path
   d="m 1162.9,547 c 0.4,0 0.8,0.2 1.1,0.5 l 3,3.3 c -2.3,2.7 -5.1,4.8 -8.4,6.3 -3.3,1.5 -7.3,2.3 -12,2.3 -4.1,0 -7.8,-0.7 -11.1,-2.1 -3.3,-1.4 -6.2,-3.4 -8.5,-5.9 -2.3,-2.5 -4.2,-5.6 -5.5,-9.1 -1.3,-3.6 -1.9,-7.5 -1.9,-11.7 0,-4.3 0.7,-8.2 2.1,-11.7 1.4,-3.6 3.3,-6.6 5.8,-9.2 2.5,-2.6 5.5,-4.5 9,-5.9 3.5,-1.4 7.3,-2.1 11.6,-2.1 4.2,0 7.8,0.6 10.8,1.9 3,1.3 5.7,3 8,5.3 l -2.5,3.5 c -0.2,0.3 -0.4,0.5 -0.6,0.7 -0.2,0.2 -0.6,0.3 -1,0.3 -0.3,0 -0.7,-0.1 -1.1,-0.4 -0.4,-0.3 -0.8,-0.6 -1.4,-0.9 -0.5,-0.4 -1.1,-0.8 -1.9,-1.2 -0.7,-0.4 -1.6,-0.8 -2.5,-1.2 -0.9,-0.4 -2.1,-0.7 -3.4,-0.9 -1.3,-0.3 -2.8,-0.4 -4.5,-0.4 -3,0 -5.8,0.5 -8.3,1.6 -2.5,1 -4.7,2.5 -6.5,4.4 -1.8,1.9 -3.2,4.3 -4.2,7 -1,2.8 -1.5,5.9 -1.5,9.3 0,3.5 0.5,6.7 1.5,9.4 1,2.8 2.4,5.1 4.1,7 1.8,1.9 3.8,3.4 6.2,4.4 2.4,1 5,1.5 7.7,1.5 1.7,0 3.2,-0.1 4.5,-0.3 1.3,-0.2 2.6,-0.5 3.7,-0.9 1.1,-0.4 2.2,-1 3.2,-1.6 1,-0.6 2,-1.4 3,-2.3 0.6,-0.7 1,-0.9 1.5,-0.9 z"
   id="path29" />
	<path
   d="m 1242.2,558.7 h -7.7 V 532.9 H 1204 v 25.8 h -7.7 v -56.6 h 7.7 v 25.3 h 30.5 v -25.3 h 7.7 z"
   id="path30" />
	<path
   d="m 1286,552.3 h 24.5 v 6.4 h -32.2 v -56.6 h 7.7 z"
   id="path31" />
	<path
   d="m 1386.9,558.7 h -5.9 c -0.7,0 -1.2,-0.2 -1.7,-0.5 -0.4,-0.3 -0.7,-0.8 -0.9,-1.3 l -5.3,-13.7 h -25.4 l -5.3,13.7 c -0.2,0.5 -0.5,0.9 -0.9,1.3 -0.4,0.4 -1,0.6 -1.7,0.6 h -5.9 l 22.6,-56.6 h 7.8 z m -37.1,-21 h 21.1 l -8.9,-23 c -0.6,-1.4 -1.1,-3.2 -1.7,-5.3 -0.3,1.1 -0.6,2.1 -0.9,3 -0.3,0.9 -0.5,1.7 -0.8,2.4 z"
   id="path32" />
	<path
   d="m 1420.8,502.3 c 0.3,0.2 0.7,0.5 1.1,1 l 32.8,42.7 c -0.1,-0.7 -0.1,-1.3 -0.2,-2 0,-0.6 0,-1.3 0,-1.9 V 502 h 6.7 v 56.6 h -3.9 c -0.6,0 -1.1,-0.1 -1.5,-0.3 -0.4,-0.2 -0.8,-0.6 -1.2,-1.1 l -32.8,-42.6 c 0.1,0.7 0.1,1.3 0.1,1.9 0,0.6 0,1.2 0,1.7 v 40.4 h -6.7 V 502 h 4 c 0.8,0.1 1.3,0.1 1.6,0.3 z"
   id="path33" />
	<path
   d="m 1543.3,530.4 c 0,4.2 -0.7,8.1 -2,11.6 -1.3,3.5 -3.2,6.5 -5.7,8.9 -2.5,2.5 -5.4,4.4 -8.8,5.8 -3.4,1.4 -7.2,2 -11.4,2 h -21.2 v -56.6 h 21.2 c 4.2,0 8,0.7 11.4,2 3.4,1.4 6.4,3.3 8.8,5.8 2.5,2.5 4.3,5.5 5.7,9 1.4,3.4 2,7.3 2,11.5 z m -7.8,0 c 0,-3.5 -0.5,-6.6 -1.4,-9.3 -0.9,-2.7 -2.3,-5.1 -4,-7 -1.7,-1.9 -3.8,-3.3 -6.3,-4.3 -2.5,-1 -5.2,-1.5 -8.3,-1.5 H 1502 v 44.2 h 13.5 c 3,0 5.8,-0.5 8.3,-1.5 2.5,-1 4.6,-2.4 6.3,-4.3 1.7,-1.9 3.1,-4.2 4,-6.9 0.9,-2.8 1.4,-5.9 1.4,-9.4 z"
   id="path34" />
    </g>
    <g
   id="g37"
   transform="matrix(0.23901111,0,0,0.23901111,8.8855514,3.3225754)">
	<g
   id="g36">
	    <g
   id="g35">
		<polygon
   points="456.1,339.1 495,313.3 486.4,300.4 447.5,326.3 481.2,293.9 470.5,282.8 436.9,315.2 464.2,277.3 451.7,268.3 424.4,306.1 444.5,264 430.6,257.4 410.5,299.5 422.8,254.4 407.9,250.4 395.6,295.4 399.7,248.9 384.4,247.6 380.1,295.7 375.5,247.6 360.2,249.1 364.6,295.6 352,250.6 337.1,254.8 349.8,299.8 329.3,257.8 315.5,264.6 336,306.5 308.3,268.9 295.9,278 323.6,315.6 289.6,283.5 279.1,294.7 313,326.8 273.9,301.3 265.5,314.2 304.6,339.7 261.5,321.6 255.6,335.8 298.6,353.9 253,343.8 249.7,358.8 295.2,368.9 248.6,367.1 248,382.5 294.6,384.3 248.4,390.8 250.5,406.1 296.8,399.6 252.4,414.2 257.3,428.9 301.6,414.2 260.6,436.5 267.9,450.1 309,427.8 272.6,457 282.2,469 318.6,439.7 288.1,475.1 299.7,485.1 330.3,449.8 306.5,490 319.7,497.9 343.5,457.7 327.3,501.5 341.7,506.8 358,463 349.8,509 365,511.7 373.1,465.7 373.3,512.4 388.7,512.3 388.5,465.6 397.1,511.6 412.2,508.7 403.7,462.8 420.3,506.5 434.7,501 418.1,457.4 442.2,497.4 455.4,489.4 431.3,449.4 462.1,484.5 473.7,474.3 442.8,439.2 479.4,468.2 489,456.1 452.4,427.1 493.6,449.1 500.8,435.6 459.7,413.6 504.1,427.8 508.8,413.2 464.3,398.9 510.7,405 512.7,389.7 466.4,383.6 513,381.4 512.3,366 465.6,368.2 511.1,357.7 507.7,342.7 462.1,353.2 505,334.8 498.9,320.6 "
   id="polygon34" />
	    </g>
	</g>
    </g>
    <g
   id="g63"
   transform="matrix(0.23901111,0,0,0.23901111,8.8855514,3.3216678)">
	<polygon
   points="594.4,397.1 705.5,412 702.7,432.9 591.6,417.9 "
   id="polygon37" />
	<rect
   x="469.79999"
   y="124.8"
   transform="matrix(0.5845,-0.8114,0.8114,0.5845,121.5421,507.9919)"
   width="173.89999"
   height="21"
   id="rect37" />
	<rect
   x="449.10001"
   y="138"
   transform="matrix(0.4302,-0.9027,0.9027,0.4302,145.6718,527.8401)"
   width="83.800003"
   height="21"
   id="rect38" />
	<rect
   x="392.89999"
   y="104.9"
   transform="matrix(0.2621,-0.965,0.965,0.2621,222.6221,521.8828)"
   width="119.4"
   height="21"
   id="rect39" />
	<polygon
   points="409.7,167.4 388.7,165.4 395.9,81.9 416.8,83.7 "
   id="polygon39" />
	<polygon
   points="350.4,167.4 341.6,74 362.5,72 371.3,165.4 "
   id="polygon40" />
	<polygon
   points="313,176.2 295.6,114.4 315.9,108.7 333.2,170.6 "
   id="polygon41" />
	<rect
   x="267.29999"
   y="146.10001"
   transform="matrix(0.8991,-0.4377,0.4377,0.8991,-45.3534,138.4906)"
   width="21"
   height="43.099998"
   id="rect41" />
	<polygon
   points="245.9,213 235.9,199.4 252.9,187 262.8,200.6 "
   id="polygon42" />
	<polygon
   points="218.3,239.8 168.2,192.3 182.7,177 232.8,224.5 "
   id="polygon43" />
	<polygon
   points="196,271 118.8,220.1 130.3,202.5 207.5,253.5 "
   id="polygon44" />
	<polygon
   points="179.6,305.8 131.2,285.3 139.4,266 187.8,286.4 "
   id="polygon45" />
	<polygon
   points="96,357.4 167.4,360.2 166.5,381.2 95.1,378.4 "
   id="polygon46" />
	<rect
   x="126.6"
   y="401.5"
   transform="matrix(0.9904,-0.1382,0.1382,0.9904,-55.5101,24.3787)"
   width="42.400002"
   height="21"
   id="rect46" />
	<rect
   x="154"
   y="439.70001"
   transform="matrix(0.9498,-0.313,0.313,0.9498,-132.566,74.5944)"
   width="24.1"
   height="21"
   id="rect47" />
	<rect
   x="110.8"
   y="491.89999"
   transform="matrix(0.8787,-0.4774,0.4774,0.8787,-221.123,134.6437)"
   width="87.199997"
   height="21"
   id="rect48" />
	<rect
   x="130.3"
   y="532.5"
   transform="matrix(0.7793,-0.6267,0.6267,0.7793,-301.1598,230.9796)"
   width="94"
   height="21"
   id="rect49" />
	<rect
   x="164.8"
   y="565.29999"
   transform="matrix(0.6547,-0.7559,0.7559,0.6547,-362.519,357.9985)"
   width="91.599998"
   height="21"
   id="rect50" />
	<rect
   x="239.8"
   y="571.29999"
   transform="matrix(0.5092,-0.8606,0.8606,0.5092,-372.6993,510.0705)"
   width="42.299999"
   height="21"
   id="rect51" />
	<polygon
   points="287.6,661 267.9,653.7 296.5,576.5 316.2,583.8 "
   id="polygon51" />
	<rect
   x="299"
   y="616.90002"
   transform="matrix(0.1745,-0.9847,0.9847,0.1745,-339.7914,849.6027)"
   width="75.599998"
   height="21"
   id="rect52" />
	<polygon
   points="392.3,646 371.3,646.1 371.1,593.6 392.1,593.5 "
   id="polygon52" />
	<polygon
   points="428,691.8 409.5,591.9 430.1,588 448.7,687.9 "
   id="polygon53" />
	<rect
   x="457.20001"
   y="577.59998"
   transform="matrix(0.9348,-0.3553,0.3553,0.9348,-185.6063,205.8402)"
   width="21"
   height="61.400002"
   id="rect53" />
	<polygon
   points="482.2,568.3 565.7,705 583.7,694.1 500.2,557.4 "
   id="polygon54" />
	<polygon
   points="526.6,559.3 514.7,547.6 529.7,532.8 541.5,544.5 "
   id="polygon55" />
	<polygon
   points="595.2,562.6 542.1,520.6 555.1,504.1 608.3,546.1 "
   id="polygon56" />
	<polygon
   points="618.7,518.3 564.7,489.5 574.6,471 628.6,499.7 "
   id="polygon57" />
	<polygon
   points="607.4,463.2 581.4,454.9 587.8,434.9 613.8,443.2 "
   id="polygon58" />
	<polygon
   points="595.1,379.6 594,358.6 646,356.1 647,377.1 "
   id="polygon59" />
	<rect
   x="588.40002"
   y="313.20001"
   transform="matrix(0.974,-0.2266,0.2266,0.974,-57.1879,149.2115)"
   width="65.699997"
   height="21"
   id="rect59" />
	<polygon
   points="581.5,304.3 573.1,285 614.3,267.2 622.6,286.5 "
   id="polygon60" />
	<polygon
   points="564.8,269.7 553.2,252.2 661.6,179.9 673.3,197.4 "
   id="polygon61" />
	<polygon
   points="542.2,238.6 527.7,223.5 544,207.7 558.5,222.9 "
   id="polygon62" />
	<polygon
   points="55.5,317.3 169.7,342.9 174.3,322.4 60.2,296.8 "
   id="polygon63" />
    </g>
    <g
   id="g68"
   transform="matrix(0.23901111,0,0,0.23901111,8.8855514,3.2030698)">
	<g
   id="g65">
	    <g
   id="g64">
		<path
   class="st0"
   d="m 383.7,366.3 c -1.8,-4.3 -4.3,-8.1 -7.5,-11.2 -3.2,-3.2 -7.1,-5.6 -11.6,-7.4 -4.5,-1.8 -9.6,-2.7 -15.1,-2.7 h -27.6 v 71 h 27.6 c 5.5,0 10.6,-0.9 15.1,-2.7 4.5,-1.8 8.4,-4.2 11.6,-7.4 3.2,-3.2 5.7,-6.9 7.5,-11.3 1.8,-4.4 2.7,-9.1 2.7,-14.2 -0.1,-5.1 -1,-9.8 -2.7,-14.1 z M 368.1,390 c -0.9,2.8 -2.2,5.2 -3.9,7.2 -1.7,2 -3.8,3.5 -6.3,4.5 -2.5,1.1 -5.3,1.6 -8.4,1.6 h -11 v -45.7 h 11 c 3.2,0 6,0.5 8.4,1.6 2.5,1.1 4.6,2.6 6.3,4.5 1.7,2 3,4.4 3.9,7.2 0.9,2.8 1.4,6 1.4,9.5 0,3.6 -0.5,6.8 -1.4,9.6 z"
   id="path63" />
	    </g>
	</g>
	<g
   id="g67">
	    <g
   id="g66">
		<polygon
   class="st0"
   points="431.4,386.4 431.4,374.2 409.1,374.2 409.1,357.6 438.3,357.6 438.3,345 392.5,345 392.5,416 438.3,416 438.3,403.3 409.1,403.3 409.1,386.4 "
   id="polygon65" />
	    </g>
	</g>
    </g>
<metadata
   id="metadata68"><rdf:RDF><cc:Work
       rdf:about=""><dc:title>OKF DE Logo</dc:title></cc:Work></rdf:RDF></metadata></svg>
