<?xml version="1.0" encoding="UTF-8" standalone="no"?>
<svg
   width="400"
   height="105.6"
   fill="none"
   viewBox="0 0 2415.1548 633.59719"
   version="1.1"
   id="svg2"
   sodipodi:docname="Prototype_Fund_Logo_2025.svg"
   inkscape:version="1.4.2 (ebf0e94, 2025-05-08)"
   xmlns:inkscape="http://www.inkscape.org/namespaces/inkscape"
   xmlns:sodipodi="http://sodipodi.sourceforge.net/DTD/sodipodi-0.dtd"
   xmlns="http://www.w3.org/2000/svg"
   xmlns:svg="http://www.w3.org/2000/svg">
  <defs
     id="defs2" />
  <sodipodi:namedview
     id="namedview2"
     pagecolor="#ffffff"
     bordercolor="#999999"
     borderopacity="1"
     inkscape:showpageshadow="2"
     inkscape:pageopacity="0"
     inkscape:pagecheckerboard="0"
     inkscape:deskcolor="#d1d1d1"
     inkscape:zoom="1.2593572"
     inkscape:cx="275.14037"
     inkscape:cy="299.7561"
     inkscape:window-width="1888"
     inkscape:window-height="1145"
     inkscape:window-x="16"
     inkscape:window-y="16"
     inkscape:window-maximized="1"
     inkscape:current-layer="svg2" />
  <path
     fill-rule="evenodd"
     d="m 242.78198,106.14382 h 240.45771 l 62.88541,116.92098 -52.63858,92.19415 -39.16432,35.6027 -95.79794,17.74536 v 76.52019 l 34.10648,14.13909 v 35.17425 l -40.35578,33.01282 H 202.434 v -36.42311 l 34.10612,-27.90182 V 189.58312 L 202.434,175.44155 V 139.15381 Z M 385.10952,488.90143 H 247.88272 V 464.28977 L 281.98919,450.1482 V 153.52857 L 247.88272,139.38948 V 113.6622 h 230.86792 l 58.78263,109.29203 -49.45367,86.60684 -94.74186,20.68927 H 351.00589 V 450.1482 l 34.10647,14.14405 z m 7.75901,-344.70182 62.65753,30.67527 22.01824,47.98154 -21.97819,41.0277 -62.75003,34.09336 -41.81019,-9.39133 V 153.79152 Z m 26.88401,130.59334 11.46522,-21.16558 -19.33515,-42.14366 -53.36331,-26.12385 v 97.20734 l 33.18825,7.45317 z"
     clip-rule="evenodd"
     style="fill:#000000;stroke-width:0.35439"
     id="path1" />
  <path
     d="M 1269.6171,523.46648 H 1192.633 V 334.12205 h 77.481 c 56.0566,0 87.1986,25.41152 87.1986,94.17306 0,67.26672 -29.3991,95.42157 -87.6955,95.17101 m -39.8639,-33.13544 h 34.6331 c 34.6275,0 53.3158,-13.45441 53.3158,-61.53659 0,-45.34098 -16.4461,-61.53624 -53.3158,-61.53624 h -34.6327 z M 1005.338,523.46612 V 334.12205 h 35.8767 l 81.2176,128.55489 V 334.12205 h 37.3711 V 523.46577 H 1122.68 l -80.2196,-124.07079 v 124.07079 z m -110.0596,3.98724 c -60.53828,0 -77.23287,-34.63274 -77.23287,-83.7104 V 334.1224 h 37.12304 v 96.41529 c 0,37.61918 2.49029,63.7781 40.10983,63.7781 37.61954,0 39.86141,-26.15644 39.86141,-63.77846 V 334.1224 h 37.37111 v 109.61843 c 0,50.32689 -17.43917,83.71041 -77.23252,83.71041 M 785.38178,370.99489 h -94.66956 v 38.11816 h 93.64608 v 34.38219 h -93.64856 v 79.97372 H 653.83761 V 334.1224 H 785.38178 Z M 2098.6627,262.61541 h 101.3977 v 36.87213 H 2061.7906 V 110.14098 h 134.0366 v 36.87213 h -97.1645 v 38.11852 h 88.4451 v 34.38219 h -88.4451 z m -197.444,36.87213 V 110.14098 h 73.2453 c 37.8676,0 63.7781,19.43545 63.7781,57.55396 0,37.61706 -26.407,57.54652 -66.519,57.54652 h -33.3842 v 74.24324 z m 37.1202,-106.88006 h 28.1527 c 18.6856,0 32.8846,-6.72596 32.8846,-24.41568 0,-16.94019 -13.2035,-25.65995 -32.8846,-25.65995 h -28.1527 z m -164.5867,106.88289 v -66.03096 l -65.7794,-123.31843 h 41.3587 l 43.0988,89.93987 42.8507,-89.93987 h 41.3562 l -65.7694,123.32374 V 299.4847 Z M 1695.0599,147.0163 h -57.3006 v 152.47407 h -37.1226 V 147.01595 h -57.301 v -36.87497 h 151.7217 z m -257.4478,156.44076 c -60.5383,0 -95.4195,-42.85069 -95.4195,-98.65644 0,-55.80576 34.879,-98.6568 95.4219,-98.6568 60.2878,0 95.1661,42.85069 95.1661,98.6568 0,55.80575 -34.8783,98.65644 -95.1685,98.65644 m -0.2506,-33.13296 c 35.8763,0 55.3096,-31.14165 55.3096,-65.52348 0,-34.38219 -19.4333,-65.52136 -55.3096,-65.52136 -35.8742,0 -55.3071,31.14165 -55.3071,65.52136 0,34.38183 19.4354,65.52348 55.3071,65.52348 M 1331.7877,147.01595 h -57.3006 v 152.47407 h -37.123 V 147.01595 h -57.3006 v -36.87497 h 151.7242 z m -257.4252,156.44111 c -60.5436,0 -95.42189,-42.85069 -95.42189,-98.65644 0,-55.80576 34.87829,-98.6568 95.42159,-98.6568 60.2877,0 95.166,42.85069 95.166,98.6568 0,55.80575 -34.8783,98.65644 -95.1685,98.65644 m -0.2506,-33.13296 c 35.8763,0 55.3097,-31.14165 55.3097,-65.52348 0,-34.38219 -19.4334,-65.52136 -55.3097,-65.52136 -35.8741,0 -55.3071,31.14165 -55.3071,65.52136 0,34.38183 19.4355,65.52348 55.3071,65.52348 M 818.07034,299.49002 V 110.14098 h 71.00341 c 39.8614,0 66.02281,18.93399 66.02281,55.05871 0,33.38387 -23.66863,50.57496 -58.29889,54.06322 l 69.00961,80.22463 H 920.4663 l -65.27257,-77.48626 v 77.48094 z m 37.12303,-109.12441 h 29.89526 c 15.69912,0 30.89606,-6.47753 30.89606,-23.41807 0,-16.19526 -13.20811,-24.41569 -32.64143,-24.41569 H 855.19337 Z M 653.84222,299.48754 V 110.14098 h 73.2428 c 37.87009,0 63.77846,19.43545 63.77846,57.55396 0,37.61706 -26.40735,57.54652 -66.51967,57.54652 H 690.9603 V 299.4847 Z M 690.9603,192.60748 h 28.15272 c 18.6852,0 32.88702,-6.72596 32.88702,-24.41568 0,-16.94019 -13.20598,-25.65995 -32.88737,-25.65995 h -28.15273 z"
     style="fill:#000000;stroke-width:0.35439"
     id="path2" />
</svg>
