<?xml version="1.0" encoding="UTF-8" standalone="no"?>
<!-- Created with Inkscape (http://www.inkscape.org/) -->

<svg
   width="50mm"
   height="50mm"
   viewBox="0 0 50 50"
   version="1.1"
   id="svg1"
   inkscape:version="1.4.2 (ebf0e94, 2025-05-08)"
   sodipodi:docname="sticker-mouse.svg"
   xml:space="preserve"
   xmlns:inkscape="http://www.inkscape.org/namespaces/inkscape"
   xmlns:sodipodi="http://sodipodi.sourceforge.net/DTD/sodipodi-0.dtd"
   xmlns="http://www.w3.org/2000/svg"
   xmlns:svg="http://www.w3.org/2000/svg"><sodipodi:namedview
     id="namedview1"
     pagecolor="#ffffff"
     bordercolor="#999999"
     borderopacity="1"
     inkscape:showpageshadow="2"
     inkscape:pageopacity="0"
     inkscape:pagecheckerboard="0"
     inkscape:deskcolor="#d1d1d1"
     inkscape:document-units="mm"
     inkscape:zoom="3.1251123"
     inkscape:cx="93.276648"
     inkscape:cy="84.31697"
     inkscape:window-width="1888"
     inkscape:window-height="1127"
     inkscape:window-x="16"
     inkscape:window-y="34"
     inkscape:window-maximized="1"
     inkscape:current-layer="layer1" /><defs
     id="defs1" /><g
     inkscape:label="Layer 1"
     inkscape:groupmode="layer"
     id="layer1"><path
       style="fill:#f9f9f9;stroke-width:3.91501;stroke-opacity:0.428796;paint-order:markers fill stroke"
       id="path2"
       sodipodi:type="arc"
       sodipodi:cx="25"
       sodipodi:cy="25"
       sodipodi:rx="22.393528"
       sodipodi:ry="22.393528"
       sodipodi:start="4.1436909"
       sodipodi:end="4.1366588"
       sodipodi:arc-type="arc"
       d="M 12.94029,6.1311502 A 22.393528,22.393528 0 0 1 43.847619,12.907137 22.393528,22.393528 0 0 1 37.125979,43.826331 22.393528,22.393528 0 0 1 6.1950161,37.159057 22.393528,22.393528 0 0 1 12.807902,6.2164211"
       sodipodi:open="true" /><path
       d="m 28.690745,28.426428 4.451743,10.719441 -3.905192,1.630838 -4.451743,-10.666551 -6.426376,6.479268 V 9.2178202 L 37.6577,28.414086 l -8.966955,0.01058 z"
       id="path1-0"
       style="stroke-width:1.76306" /><g
       id="g1"
       transform="matrix(0.89449882,0,0,0.89449882,-42.146875,-55.163603)"><path
         id="path1"
         style="fill:#ff0000;fill-opacity:1;stroke-width:24.8034;stroke-opacity:0.428796;paint-order:markers fill stroke"
         d="m 88.963056,113.43926 a 27.578052,27.578052 0 0 0 10.040553,-10.12663 l 0.09514,-0.16538 A 27.578052,27.578052 0 0 0 88.635172,65.609701 27.578052,27.578052 0 0 0 51.081036,76.007047 a 27.578052,27.578052 0 0 0 10.332049,37.572343 27.578052,27.578052 0 0 0 27.54999,-0.14011 z m -3.286996,-5.63323 a 21.055674,21.055674 0 0 1 -21.033983,0.10784 21.055674,21.055674 0 0 1 -5.647341,-4.69067 L 94.88381,82.502632 a 21.055674,21.055674 0 0 1 -1.469062,17.443592 l -0.07292,0.128746 a 21.055674,21.055674 0 0 1 -7.665743,7.73104 z M 91.136985,76.012952 55.247911,96.733519 a 21.055674,21.055674 0 0 1 1.506474,-17.506348 21.055674,21.055674 0 0 1 28.67182,-7.939743 21.055674,21.055674 0 0 1 5.71078,4.725524 z" /></g><text
       xml:space="preserve"
       style="font-size:4.54618px;font-family:'Data Control';-inkscape-font-specification:'Data Control, Normal';text-align:start;writing-mode:lr-tb;direction:ltr;text-anchor:start;fill:#f9f9f9;fill-opacity:1;stroke-width:3.6037;stroke-opacity:0.428796;paint-order:markers fill stroke"
       x="-7.2543182"
       y="35.303478"
       id="text1-0"
       transform="rotate(-30)"><tspan
         sodipodi:role="line"
         id="tspan1-9"
         style="font-style:normal;font-variant:normal;font-weight:normal;font-stretch:normal;font-size:4.54618px;font-family:'Fira Code';-inkscape-font-specification:'Fira Code, Normal';font-variant-ligatures:normal;font-variant-caps:normal;font-variant-numeric:normal;font-variant-east-asian:normal;fill:#f9f9f9;fill-opacity:1;stroke-width:3.6037"
         x="-7.2543182"
         y="35.303478">microcad.xyz</tspan></text></g></svg>
