<?xml version="1.0" encoding="UTF-8" standalone="no"?>
<!-- Created with Inkscape (http://www.inkscape.org/) -->

<svg
   width="90mm"
   height="40mm"
   viewBox="0 0 90 40"
   version="1.1"
   id="svg1"
   xml:space="preserve"
   inkscape:version="1.4.2 (ebf0e94, 2025-05-08)"
   sodipodi:docname="sticker.svg"
   xmlns:inkscape="http://www.inkscape.org/namespaces/inkscape"
   xmlns:sodipodi="http://sodipodi.sourceforge.net/DTD/sodipodi-0.dtd"
   xmlns="http://www.w3.org/2000/svg"
   xmlns:svg="http://www.w3.org/2000/svg"><sodipodi:namedview
     id="namedview1"
     pagecolor="#ffffff"
     bordercolor="#999999"
     borderopacity="1"
     inkscape:showpageshadow="2"
     inkscape:pageopacity="0"
     inkscape:pagecheckerboard="0"
     inkscape:deskcolor="#d1d1d1"
     inkscape:document-units="mm"
     inkscape:zoom="2.2400246"
     inkscape:cx="193.30145"
     inkscape:cy="17.633735"
     inkscape:window-width="1888"
     inkscape:window-height="1145"
     inkscape:window-x="16"
     inkscape:window-y="16"
     inkscape:window-maximized="1"
     inkscape:current-layer="layer1" /><defs
     id="defs1" /><g
     inkscape:label="Layer 1"
     inkscape:groupmode="layer"
     id="layer1"><rect
       style="fill:#f9f9f9;stroke-width:3.91501;stroke-opacity:0.428796;paint-order:markers fill stroke"
       id="rect1"
       width="90"
       height="40"
       x="0"
       y="0" /><g
       id="g2"
       transform="translate(1.1433978,0.64694303)"><g
         id="g243"
         transform="matrix(0.56131491,0,0,0.56131491,-114.54081,-139.31185)"><path
           id="path227"
           style="fill:#ffffff;fill-opacity:1;stroke-width:0.63186;paint-order:markers fill stroke"
           d="m 226.14759,284.93405 c 0,8.30534 0,16.61068 0,24.91601 9.097,0 18.19401,0 27.29101,0 0,-5.34049 0,-10.68099 0,-16.02148 -3.83333,0 -7.66666,0 -11.5,0 -0.49748,-2.84855 -1.92731,-5.5288 -4.04091,-7.50575 -1.64274,-1.58464 -3.71507,-2.72489 -5.92177,-3.29999 -1.89478,-0.53634 -3.87855,-0.4663 -5.82833,-0.46379 0,0.79166 0,1.58333 0,2.375 z" /><path
           id="path228"
           style="fill:#ffffff;fill-opacity:1;stroke-width:0.63186;paint-order:markers fill stroke"
           d="m 250.95618,271.39499 c 0,3.04231 0,6.08463 0,9.12695 -2.84855,0.49748 -5.5288,1.92731 -7.50574,4.04091 -1.58465,1.64274 -2.7249,3.71508 -3.3,5.92177 -0.53615,1.89414 -0.46637,3.87724 -0.46379,5.82638 9.09701,0 18.19401,0 27.29102,0 0,-9.097 0,-18.19401 0,-27.29101 -5.3405,0 -10.68099,0 -16.02149,0 0,0.79166 0,1.58333 0,2.375 z" /><path
           id="path229"
           style="fill:#ffffff;fill-opacity:1;stroke-width:0.63186;paint-order:markers fill stroke"
           d="m 212.61048,271.39499 c 0,8.30533 0,16.61067 0,24.91601 5.34049,0 10.68099,0 16.02148,0 0,-3.83333 0,-7.66667 0,-11.5 2.58396,-0.45376 5.03762,-1.66743 6.93812,-3.47718 1.87591,-1.73204 3.22922,-4.02086 3.8672,-6.4895 0.53316,-1.89407 0.46885,-3.87564 0.46421,-5.82433 -9.097,0 -18.19401,0 -27.29101,0 0,0.79166 0,1.58333 0,2.375 z" /><path
           id="path230"
           style="fill:#ffffff;fill-opacity:1;stroke-width:0.63186;paint-order:markers fill stroke"
           d="m 226.14759,257.85788 c 0,4.54882 0,9.09765 0,13.64648 3.83398,0 7.66797,0 11.50195,0 0.4446,2.55387 1.64299,4.97052 3.40671,6.86716 1.74684,1.90781 4.05709,3.29359 6.55996,3.93823 1.89331,0.53346 3.87438,0.46851 5.82239,0.46414 0,-9.097 0,-18.19401 0,-27.29101 -9.097,0 -18.19401,0 -27.29101,0 0,0.79166 0,1.58333 0,2.375 z" /><path
           id="path231"
           style="fill:#ffffff;fill-opacity:1;stroke-width:0.981192;paint-order:markers fill stroke"
           d="m 266.97767,271.35792 v 38.49215 h 9.35481 v -13.57098 c 2.58981,0.84464 5.44345,0.83528 8.0283,-0.025 3.09071,10e-6 6.18142,0 9.27213,0 v -27.2339 h -9.35479 c -0.0228,4.93848 0.0517,9.88615 -0.0512,14.79883 -0.23728,2.2171 -2.59281,3.87505 -4.75822,3.34229 -1.9971,-0.32401 -3.33643,-2.38489 -3.13619,-4.34346 V 269.0221 c -3.11827,6.8e-4 -6.23654,-0.003 -9.3548,-0.002 v 2.33773 z"
           sodipodi:nodetypes="ccccccccccccccc" /><path
           style="fill:#3771c8;fill-opacity:1;stroke-width:0.63186;paint-order:markers fill stroke"
           d="m 228.52132,284.83619 v 11.26922 11.26923 0.002 h 22.54119 v -11.27128 h -11.27359 a 11.270559,11.270559 0 0 0 -11.20165,-11.26922 z"
           id="path232" /><path
           style="fill:#3771c8;fill-opacity:1;stroke-width:0.63186;paint-order:markers fill stroke"
           d="m 253.32944,271.29731 v 11.27413 a 11.270559,11.270559 0 0 0 -11.26923,11.20164 v 0.0654 h 11.26923 11.26922 0.002 v -22.54124 z"
           id="path233" /><path
           style="fill:#3771c8;fill-opacity:1;stroke-width:0.63186;paint-order:markers fill stroke"
           d="m 214.98408,271.29731 v 22.54117 h 11.27086 V 282.5649 a 11.270559,11.270559 0 0 0 11.26923,-11.20219 v -0.0654 h -11.26923 -11.26977 z"
           id="path234" /><path
           style="fill:#3771c8;fill-opacity:1;stroke-width:0.63186;paint-order:markers fill stroke"
           d="m 228.52132,257.76006 v 11.27032 h 11.27413 a 11.270559,11.270559 0 0 0 11.20165,11.26978 h 0.0654 v -11.26978 -11.26924 -0.001 z"
           id="path235" /><path
           id="path236"
           style="fill:#000000;fill-opacity:1;stroke-width:0.981192;paint-order:markers fill stroke"
           d="m 269.3148,271.35887 v 36.11586 h 4.67914 v -15.61144 c 1.83617,1.33422 4.02711,2.05789 6.27684,2.07328 2.27241,8e-5 4.48897,-0.72284 6.34447,-2.0692 v 2.04855 h 4.67915 v -22.55705 h -4.67915 v 11.3313 h -0.0157 v 0.005 c 0,3.47314 -2.84949,6.2736 -6.32262,6.25851 -0.028,-0.002 -0.056,-0.004 -0.0839,-0.006 -0.0303,0.003 -0.0607,0.006 -0.091,0.009 -0.18487,-0.0106 -0.3692,-0.0298 -0.55239,-0.0574 -0.0695,-0.006 -0.13883,-0.0134 -0.20805,-0.0218 -3.01158,-0.40009 -5.28515,-3.00064 -5.34751,-6.11661 V 271.3594 Z"
           sodipodi:nodetypes="ccccccccccccscccccccc" /><path
           id="path237"
           style="fill:#ffffff;stroke-width:1.83229;paint-order:markers fill stroke"
           d="m 298.50332,269.02788 c -2.3723,0.041 -4.72703,0.69989 -6.7481,1.94982 -2.18012,1.33614 -3.95616,3.31406 -5.07018,5.61672 -1.13324,2.32498 -1.58986,4.97525 -1.30466,7.54839 0.27408,2.55941 1.28309,5.03872 2.8877,7.05538 1.56587,1.98195 3.70453,3.51778 6.10206,4.32789 2.1538,0.74441 4.52,0.92215 6.75347,0.45656 2.80151,-0.52006 5.38774,-2.02728 7.28831,-4.1418 1.6904,-1.8842 2.85142,-4.24421 3.28528,-6.74197 0.97747,-4.9547 -1.08274,-10.36501 -5.13855,-13.38793 -2.29063,-1.75095 -5.17042,-2.72384 -8.05533,-2.68306 z m 0.0539,9.65663 c 2.19938,-0.062 4.17102,1.95903 3.98412,4.16208 -0.042,2.32114 -2.4607,4.18506 -4.71251,3.65363 -2.30476,-0.32823 -3.77807,-3.00477 -2.96347,-5.15229 0.50218,-1.5864 2.04371,-2.64564 3.69186,-2.66342 z" /><path
           id="path238"
           style="fill:#000000;stroke-width:1.83229;paint-order:markers fill stroke"
           d="m 298.66092,271.359 a 10.989417,11.278572 0 0 0 -11.0399,11.21741 l -5.1e-4,0.0356 a 10.989417,11.278572 0 0 0 10.95597,11.30388 10.989417,11.278572 0 0 0 11.02311,-11.23521 10.989417,11.278572 0 0 0 -10.93867,-11.3217 z m -0.20653,4.98025 a 6.1365863,6.2980539 0 0 1 0.13481,0.005 6.2953899,6.2953899 0 0 1 0.03,-0.002 6.2953899,6.2953899 0 0 1 6.2865,6.29514 l -5.2e-4,0.0367 a 6.2953899,6.2953899 0 0 1 -6.32261,6.25852 6.2953899,6.2953899 0 0 1 -0.084,-0.006 6.1365863,6.2980539 0 0 1 -0.091,0.009 6.1365863,6.2980539 0 0 1 -0.5524,-0.0574 6.2953899,6.2953899 0 0 1 -0.20804,-0.0218 6.1365863,6.2980539 0 0 1 -5.35768,-6.23258 l 5.1e-4,-0.0199 a 6.1365863,6.2980539 0 0 1 5.39583,-6.19036 6.2953899,6.2953899 0 0 1 0.21161,-0.0204 6.1365863,6.2980539 0 0 1 0.55696,-0.0535 z" /><path
           id="path239"
           style="fill:#ffffff;stroke-width:1.83229;paint-order:markers fill stroke"
           d="m 320.87,269.62961 c -4.59192,-1.50729 -9.92872,-0.15116 -13.28628,3.31436 -3.80161,3.75503 -5.01237,9.80413 -3.01384,14.74974 1.82964,4.85718 6.68536,8.43147 11.90024,8.54719 1.48695,0.0602 2.98251,-0.15583 4.39988,-0.60585 -0.3001,0.88908 0.62144,0.57159 1.17348,0.61904 2.73417,0 5.46832,0 8.20247,0 0,-9.08054 0,-18.16107 0,-27.2416 -3.12787,0 -6.25576,0 -9.38364,0 0.003,0.20572 0.005,0.41142 0.008,0.61712 z m -3.91802,9.05683 c 2.38722,-0.0866 4.39598,2.36347 3.88072,4.68764 -0.3562,2.15533 -2.70151,3.67364 -4.81342,3.11313 -2.40916,-0.43425 -3.77384,-3.40225 -2.67196,-5.55332 0.62662,-1.39799 2.08286,-2.2774 3.60466,-2.24745 z" /><path
           id="path240"
           style="fill:#000000;stroke-width:1.83229;paint-order:markers fill stroke"
           d="m 316.99397,271.35899 c -6.06578,-0.0287 -11.00706,4.99206 -11.0399,11.21742 l -5.2e-4,0.0356 c -0.0136,6.22548 4.89012,11.28496 10.95597,11.30389 2.27307,-0.002 4.48968,-0.72679 6.3445,-2.07533 l -0.0251,2.07533 h 4.67912 v -22.56649 h -4.67912 l 0.0251,2.05843 c -1.83426,-1.3222 -4.01861,-2.03712 -6.26005,-2.04887 z m -0.20652,4.98026 c 0.045,9.8e-4 0.0898,0.003 0.1348,0.005 0.0104,-6.9e-4 0.0204,-9.8e-4 0.0304,-0.002 3.47328,0.005 6.28636,2.82187 6.28649,6.29515 l -5.2e-4,0.0367 c -0.0203,3.47308 -2.84949,6.2736 -6.32261,6.25852 l -0.0844,-0.006 c -0.0302,0.003 -0.0607,0.006 -0.091,0.009 -0.18489,-0.0106 -0.36921,-0.0298 -0.55241,-0.0574 -0.0695,-0.006 -0.13881,-0.0133 -0.20804,-0.0218 -3.05768,-0.40155 -5.35056,-3.06884 -5.35768,-6.23257 l 5.2e-4,-0.0199 c 0.03,-3.16076 2.33845,-5.80895 5.39581,-6.19036 0.0705,-0.008 0.14098,-0.015 0.21162,-0.0208 0.18476,-0.0265 0.37061,-0.0443 0.55697,-0.0535 z"
           sodipodi:nodetypes="ccccccccccccccccccccccccccc" /><path
           id="path241"
           style="fill:#ffffff;stroke-width:1.83229;paint-order:markers fill stroke"
           d="m 339.24944,269.64307 c -4.58906,-1.5214 -9.93445,-0.18681 -13.30314,3.27251 -3.82445,3.75208 -5.04635,9.81987 -3.04311,14.77813 1.82963,4.85718 6.68535,8.43147 11.90023,8.54719 1.50301,0.0602 3.0154,-0.15938 4.44602,-0.62123 -0.28802,0.89322 0.61537,0.59504 1.18118,0.63442 2.72454,10e-6 5.44908,0 8.17363,0 l 0.0415,-40.77121 h -9.35481 z m -3.96608,9.04337 c 2.37554,-0.086 4.38949,2.34347 3.88489,4.66271 -0.34052,2.16735 -2.69596,3.70137 -4.81565,3.13806 -2.41267,-0.4353 -3.7776,-3.4099 -2.6673,-5.56257 0.62836,-1.39273 2.08014,-2.2681 3.59806,-2.2382 z"
           sodipodi:nodetypes="ccccccccccccccc" /><path
           id="path242"
           style="fill:#000000;stroke-width:1.83229;paint-order:markers fill stroke"
           d="m 341.58652,257.85904 v 15.54831 c -1.83404,-1.32182 -4.01798,-2.03654 -6.25901,-2.04836 -6.06578,-0.0287 -11.00707,4.99206 -11.0399,11.21742 l -5.2e-4,0.0356 c -0.0137,6.22548 4.89011,11.28496 10.95597,11.30389 2.27266,-0.002 4.48888,-0.72667 6.34346,-2.07482 v 2.07481 h 4.67914 v -11.22812 l 5.1e-4,-0.007 c -1.5e-4,-0.008 -3.3e-4,-0.0167 -5.1e-4,-0.0249 v -24.79664 z m -6.46554,18.48021 c 0.045,9.8e-4 0.0899,0.003 0.1348,0.005 0.0104,-6.9e-4 0.02,-9.8e-4 0.03,-0.002 3.47329,0.005 6.28637,2.82187 6.2865,6.29515 l -5.1e-4,0.0367 c -0.0203,3.47308 -2.8495,6.2736 -6.32261,6.25852 -0.028,-0.002 -0.056,-0.004 -0.0839,-0.006 -0.0303,0.003 -0.0607,0.006 -0.091,0.009 -0.18488,-0.0106 -0.36921,-0.0298 -0.5524,-0.0574 -0.0695,-0.006 -0.13883,-0.0133 -0.20804,-0.0218 -3.05769,-0.40155 -5.35057,-3.06884 -5.35769,-6.23257 l 5.1e-4,-0.0199 c 0.0301,-3.16076 2.33847,-5.80896 5.39584,-6.19036 0.0704,-0.008 0.14095,-0.015 0.2116,-0.0208 0.18477,-0.0265 0.37062,-0.0443 0.55697,-0.0535 z"
           sodipodi:nodetypes="cccccccccccccccccccccccccccccc" /></g><text
         xml:space="preserve"
         style="font-style:normal;font-variant:normal;font-weight:normal;font-stretch:normal;font-size:3.27569px;font-family:'Droid Sans';-inkscape-font-specification:'Droid Sans, Normal';font-variant-ligatures:normal;font-variant-caps:normal;font-variant-numeric:normal;font-variant-east-asian:normal;text-align:start;writing-mode:lr-tb;direction:ltr;text-anchor:start;fill:#3771c8;fill-opacity:1;stroke-width:2.59662;stroke-opacity:0.428796;paint-order:markers fill stroke"
         x="-25.813929"
         y="84.247688"
         id="text1"
         transform="rotate(-90)"><tspan
           sodipodi:role="line"
           id="tspan1"
           style="font-style:normal;font-variant:normal;font-weight:normal;font-stretch:normal;font-size:3.27569px;font-family:'Droid Sans';-inkscape-font-specification:'Droid Sans, Normal';font-variant-ligatures:normal;font-variant-caps:normal;font-variant-numeric:normal;font-variant-east-asian:normal;fill:#3771c8;fill-opacity:1;stroke-width:2.59659"
           x="-25.813929"
           y="84.247688">microcad.xyz</tspan></text></g></g></svg>
